<svg xmlns="http://www.w3.org/2000/svg" fill="none" viewBox="26.94 27.02 165.82 165.87">
<path d="M178.276 116.142C178.372 115.103 178.656 114.212 179.127 113.466C179.612 112.722 180.265 112.173 181.087 111.819C181.909 111.465 182.889 111.341 184.027 111.446L187.974 111.813C189.68 111.971 190.936 112.59 191.739 113.669C192.556 114.763 192.883 116.185 192.72 117.934C192.604 119.186 192.307 120.22 191.83 121.036C191.351 121.867 190.738 122.448 189.99 122.78C189.254 123.128 188.438 123.196 187.539 122.983C187.37 122.953 187.293 122.86 187.307 122.704L187.52 120.636C187.536 120.465 187.629 120.395 187.798 120.425C188.308 120.501 188.75 120.449 189.125 120.269C189.514 120.104 189.82 119.817 190.045 119.407C190.269 118.998 190.412 118.459 190.474 117.79C190.571 116.752 190.387 115.946 189.924 115.372C189.475 114.8 188.724 114.465 187.672 114.367L183.853 114.012C182.786 113.913 181.98 114.097 181.435 114.563C180.888 115.043 180.568 115.795 180.473 116.819C180.38 117.814 180.537 118.596 180.943 119.165C181.364 119.735 182.015 120.061 182.897 120.142L183.58 120.206L183.847 117.326C183.863 117.155 183.956 117.078 184.127 117.093L185.556 117.226C185.713 117.241 185.783 117.333 185.767 117.504L185.296 122.581C185.289 122.653 185.262 122.708 185.216 122.746C185.169 122.785 185.11 122.801 185.039 122.794L181.114 122.43C180.63 122.385 180.139 122.347 179.64 122.315C179.139 122.297 178.672 122.304 178.239 122.335C178.151 122.356 178.081 122.335 178.03 122.273C177.991 122.226 177.975 122.167 177.982 122.096L178.136 120.432C178.143 120.361 178.162 120.306 178.194 120.265C178.241 120.227 178.301 120.197 178.375 120.175C178.548 120.162 178.757 120.153 179.002 120.147C179.245 120.155 179.481 120.163 179.71 120.169L179.714 120.127C179.366 119.851 179.075 119.515 178.839 119.12C178.601 118.74 178.434 118.301 178.337 117.804C178.24 117.307 178.219 116.753 178.276 116.142Z" fill="white"/>
<path d="M175.81 129.249C176.345 127.441 177.177 126.213 178.307 125.564C179.451 124.919 180.838 124.837 182.468 125.319L186.31 126.454C187.954 126.94 189.074 127.763 189.67 128.922C190.266 130.081 190.296 131.565 189.762 133.373C189.231 135.167 188.401 136.389 187.271 137.038C186.141 137.687 184.754 137.769 183.11 137.283L179.268 136.147C177.638 135.665 176.518 134.843 175.908 133.68C175.312 132.521 175.28 131.044 175.81 129.249ZM177.968 129.887C177.68 130.86 177.717 131.667 178.078 132.31C178.453 132.957 179.133 133.427 180.12 133.718L183.715 134.781C184.702 135.072 185.521 135.046 186.174 134.703C186.84 134.364 187.317 133.708 187.604 132.735C187.892 131.763 187.85 130.946 187.479 130.285C187.118 129.642 186.445 129.175 185.458 128.884L181.863 127.821C180.876 127.529 180.05 127.553 179.384 127.893C178.727 128.25 178.255 128.914 177.968 129.887Z" fill="white"/>
<path d="M168.505 145.745C169.441 144.225 170.533 143.295 171.782 142.957C173.03 142.619 174.403 142.91 175.899 143.831L183.342 148.415C183.488 148.505 183.52 148.617 183.438 148.751L182.348 150.52C182.303 150.593 182.251 150.637 182.192 150.651C182.133 150.665 182.067 150.649 181.994 150.604L174.587 146.043C173.748 145.526 172.97 145.332 172.253 145.461C171.548 145.598 170.937 146.085 170.42 146.925C169.904 147.764 169.743 148.529 169.938 149.219C170.146 149.918 170.669 150.525 171.508 151.042L178.916 155.603C179.062 155.693 179.093 155.805 179.011 155.939L177.921 157.709C177.831 157.855 177.713 157.883 177.567 157.793L170.087 153.186C168.64 152.295 167.784 151.206 167.52 149.919C167.255 148.632 167.584 147.241 168.505 145.745Z" fill="white"/>
<path d="M164.096 152.74C164.201 152.623 164.317 152.621 164.445 152.736L174.511 161.761C174.639 161.875 174.65 161.991 174.546 162.108L171.885 165.075C170.646 166.458 169.443 167.211 168.276 167.336C167.111 167.48 165.969 167.052 164.853 166.051C163.757 165.069 163.217 163.98 163.233 162.786C163.259 161.601 163.873 160.338 165.075 158.998L166.19 157.754L162.728 154.65C162.601 154.536 162.594 154.415 162.709 154.287L164.096 152.74ZM167.818 159.213L166.731 160.425C166.082 161.148 165.739 161.809 165.701 162.408C165.663 163.007 165.947 163.578 166.553 164.122C167.191 164.694 167.806 164.929 168.397 164.825C168.988 164.722 169.613 164.304 170.271 163.57L171.343 162.374L167.818 159.213Z" fill="white"/>
<path d="M140.038 171.642C140.976 171.187 141.886 170.967 142.767 170.983C143.655 171.013 144.463 171.287 145.192 171.806C145.921 172.326 146.535 173.099 147.034 174.127L148.766 177.692C149.515 179.234 149.637 180.628 149.131 181.875C148.618 183.14 147.572 184.157 145.991 184.924C144.861 185.474 143.822 185.756 142.877 185.771C141.918 185.792 141.103 185.568 140.431 185.101C139.753 184.652 139.272 183.989 138.988 183.11C138.926 182.95 138.965 182.835 139.107 182.767L140.985 181.878C141.14 181.803 141.248 181.846 141.31 182.006C141.509 182.481 141.783 182.832 142.131 183.06C142.474 183.306 142.878 183.42 143.345 183.399C143.811 183.379 144.346 183.222 144.95 182.929C145.888 182.473 146.482 181.899 146.733 181.205C146.99 180.525 146.887 179.709 146.426 178.758L144.749 175.309C144.281 174.345 143.707 173.751 143.026 173.526C142.332 173.307 141.522 173.422 140.597 173.872C139.698 174.309 139.111 174.848 138.835 175.49C138.566 176.145 138.624 176.871 139.011 177.668L139.311 178.284L141.913 177.02C142.067 176.945 142.181 176.985 142.256 177.139L142.884 178.43C142.952 178.572 142.91 178.68 142.755 178.755L138.169 180.983C138.104 181.014 138.044 181.02 137.986 181C137.929 180.981 137.885 180.938 137.854 180.874L136.131 177.328C135.919 176.891 135.697 176.451 135.466 176.008C135.221 175.571 134.974 175.175 134.722 174.821C134.659 174.756 134.64 174.686 134.667 174.609C134.687 174.552 134.729 174.508 134.793 174.477L136.296 173.746C136.36 173.715 136.418 173.703 136.469 173.71C136.526 173.73 136.583 173.765 136.64 173.817C136.741 173.959 136.857 174.133 136.989 174.339C137.108 174.551 137.224 174.757 137.337 174.956L137.375 174.937C137.431 174.497 137.567 174.074 137.782 173.667C137.985 173.267 138.274 172.897 138.648 172.556C139.022 172.215 139.486 171.911 140.038 171.642Z" fill="white"/>
<path d="M127.628 176.269C129.451 175.789 130.933 175.865 132.074 176.496C133.218 177.14 134.006 178.284 134.438 179.928L135.457 183.803C135.893 185.461 135.769 186.845 135.086 187.955C134.403 189.065 133.15 189.86 131.326 190.339C129.517 190.815 128.042 190.737 126.901 190.107C125.76 189.476 124.972 188.332 124.537 186.674L123.518 182.799C123.086 181.155 123.209 179.771 123.889 178.647C124.572 177.537 125.818 176.744 127.628 176.269ZM128.2 178.444C127.219 178.702 126.547 179.152 126.184 179.794C125.825 180.45 125.776 181.275 126.037 182.27L126.99 185.896C127.252 186.891 127.699 187.578 128.33 187.959C128.966 188.353 129.774 188.421 130.754 188.163C131.735 187.905 132.412 187.447 132.785 186.787C133.148 186.146 133.199 185.327 132.938 184.333L131.984 180.706C131.723 179.712 131.275 179.017 130.639 178.623C129.994 178.246 129.181 178.187 128.2 178.444Z" fill="white"/>
<path d="M109.435 178.555C111.22 178.569 112.581 179.022 113.517 179.915C114.453 180.808 114.914 182.133 114.9 183.89L114.833 192.631C114.832 192.803 114.752 192.888 114.595 192.887L112.517 192.87C112.431 192.87 112.367 192.848 112.325 192.805C112.282 192.762 112.261 192.697 112.262 192.611L112.329 183.913C112.337 182.927 112.1 182.161 111.618 181.615C111.137 181.082 110.403 180.812 109.418 180.805C108.432 180.797 107.694 181.056 107.205 181.58C106.715 182.119 106.466 182.882 106.459 183.867L106.391 192.566C106.39 192.737 106.311 192.823 106.154 192.821L104.075 192.805C103.904 192.804 103.819 192.718 103.82 192.546L103.888 183.762C103.901 182.062 104.39 180.766 105.354 179.873C106.318 178.981 107.678 178.542 109.435 178.555Z" fill="white"/>
<path d="M101.234 178.382C101.388 178.411 101.45 178.509 101.418 178.678L98.9359 191.968C98.9044 192.136 98.8114 192.206 98.657 192.177L94.7395 191.446C92.9141 191.105 91.6453 190.468 90.933 189.536C90.2041 188.615 89.9773 187.417 90.2527 185.943C90.5228 184.497 91.1723 183.47 92.2011 182.863C93.2273 182.27 94.625 182.139 96.3942 182.469L98.0371 182.776L98.8907 178.206C98.9222 178.037 99.0222 177.969 99.1907 178L101.234 178.382ZM97.6358 184.924L96.0351 184.626C95.0803 184.447 94.3371 184.497 93.8056 184.776C93.274 185.054 92.9335 185.594 92.784 186.394C92.6267 187.237 92.7456 187.884 93.1408 188.335C93.5359 188.787 94.2179 189.103 95.1868 189.284L96.7664 189.579L97.6358 184.924Z" fill="white"/>
<path d="M72.6978 167.532C73.5713 168.101 74.228 168.768 74.6677 169.532C75.0997 170.308 75.2806 171.142 75.2106 172.034C75.1406 172.927 74.7936 173.851 74.1696 174.809L72.0051 178.129C71.0691 179.565 69.9365 180.387 68.6075 180.595C67.2587 180.807 65.8483 180.433 64.3765 179.474C63.3234 178.788 62.5471 178.043 62.0476 177.24C61.536 176.429 61.3077 175.615 61.3627 174.798C61.3978 173.986 61.7189 173.232 62.3258 172.536C62.4314 172.4 62.5499 172.375 62.6816 172.461L64.411 173.614C64.5546 173.708 64.5736 173.822 64.468 173.958C64.1633 174.373 64.0032 174.789 63.9877 175.205C63.9524 175.625 64.0635 176.03 64.3211 176.42C64.5787 176.81 64.9887 177.188 65.5511 177.554C66.4247 178.124 67.2232 178.337 67.9468 178.195C68.6625 178.065 69.309 177.557 69.8862 176.671L71.9806 173.459C72.5656 172.561 72.7792 171.762 72.6214 171.063C72.4516 170.355 71.936 169.721 71.0744 169.159C70.2368 168.613 69.4718 168.387 68.7794 168.482C68.0792 168.588 67.4874 169.012 67.0038 169.754L66.6294 170.328L69.0525 171.908C69.1961 172.002 69.2211 172.12 69.1275 172.264L68.3436 173.466C68.2578 173.598 68.1431 173.617 67.9995 173.523L63.7275 170.739C63.6677 170.7 63.6315 170.651 63.619 170.591C63.6065 170.532 63.6198 170.472 63.6588 170.413L65.8116 167.11C66.0768 166.703 66.3399 166.286 66.601 165.86C66.8501 165.425 67.0617 165.009 67.2358 164.611C67.2587 164.524 67.3097 164.472 67.3887 164.455C67.448 164.443 67.5076 164.456 67.5674 164.495L68.9675 165.407C69.0273 165.446 69.0674 165.49 69.0877 165.537C69.1002 165.596 69.0989 165.664 69.0838 165.739C69.0142 165.898 68.925 166.087 68.8163 166.306C68.6957 166.518 68.579 166.723 68.4661 166.922L68.502 166.945C68.9083 166.767 69.341 166.665 69.8004 166.641C70.2477 166.608 70.7138 166.665 71.1987 166.811C71.6835 166.956 72.1832 167.197 72.6978 167.532Z" fill="white"/>
<path d="M62.3412 159.285C63.6937 160.599 64.3946 161.907 64.4438 163.209C64.4831 164.522 63.9105 165.788 62.7262 167.007L59.9345 169.881C58.7402 171.11 57.4914 171.72 56.1882 171.708C54.8849 171.697 53.5571 171.034 52.2046 169.721C50.8624 168.417 50.1666 167.114 50.1174 165.811C50.0682 164.509 50.6407 163.243 51.835 162.013L54.6267 159.139C55.811 157.92 57.0598 157.311 58.373 157.312C59.6762 157.324 60.999 157.981 62.3412 159.285ZM60.7737 160.899C60.0462 160.192 59.3139 159.849 58.5768 159.87C57.8298 159.901 57.098 160.285 56.3814 161.023L53.7689 163.713C53.0523 164.45 52.6943 165.188 52.6949 165.925C52.6856 166.673 53.0446 167.4 53.7721 168.107C54.4996 168.813 55.242 169.156 55.9993 169.135C56.7364 169.114 57.4632 168.735 58.1798 167.997L60.7923 165.308C61.5089 164.57 61.8719 163.827 61.8812 163.08C61.8703 162.332 61.5012 161.605 60.7737 160.899Z" fill="white"/>
<path d="M51.1422 145.179C52.056 146.713 52.3737 148.112 52.0954 149.375C51.817 150.638 50.9231 151.719 49.4137 152.619L41.9035 157.093C41.7562 157.18 41.6424 157.157 41.562 157.022L40.4983 155.236C40.4545 155.163 40.44 155.096 40.4549 155.038C40.4697 154.979 40.514 154.928 40.5876 154.884L48.061 150.432C48.9078 149.927 49.44 149.328 49.6578 148.633C49.8633 147.945 49.7138 147.178 49.2094 146.331C48.705 145.484 48.1015 144.987 47.3989 144.841C46.684 144.701 45.9032 144.884 45.0565 145.388L37.583 149.84C37.4358 149.928 37.3219 149.904 37.2415 149.769L36.1779 147.984C36.0901 147.836 36.1199 147.719 36.2672 147.631L43.8142 143.135C45.2745 142.265 46.6361 142.011 47.8991 142.373C49.162 142.735 50.243 143.67 51.1422 145.179Z" fill="white"/>
<path d="M47.0309 138.124C47.0861 138.271 47.0334 138.375 46.873 138.435L34.2148 143.185C34.0544 143.245 33.9465 143.202 33.8913 143.054L32.4913 139.323C31.8389 137.585 31.7275 136.17 32.1569 135.078C32.568 133.978 33.4756 133.164 34.8798 132.637C36.2573 132.12 37.4719 132.145 38.5236 132.712C39.5619 133.283 40.3972 134.412 41.0295 136.097L41.6166 137.661L45.9697 136.028C46.1302 135.968 46.2405 136.018 46.3008 136.178L47.0309 138.124ZM39.5704 138.429L38.9984 136.905C38.6571 135.995 38.2299 135.385 37.7166 135.074C37.2033 134.763 36.5655 134.751 35.8032 135.037C35.0007 135.338 34.5085 135.774 34.3264 136.346C34.1442 136.918 34.2263 137.665 34.5726 138.588L35.1371 140.093L39.5704 138.429Z" fill="white"/>
<path d="M41.474 107.893C41.4378 108.936 41.2062 109.842 40.7792 110.613C40.3379 111.384 39.7173 111.97 38.9173 112.371C38.1172 112.772 37.1462 112.953 36.0042 112.913L32.0427 112.775C30.3297 112.716 29.0408 112.171 28.1762 111.14C27.2978 110.095 26.8891 108.694 26.9501 106.939C26.9938 105.682 27.2303 104.633 27.6598 103.79C28.0898 102.933 28.6686 102.317 29.3963 101.942C30.1101 101.553 30.9217 101.438 31.8308 101.598C32.0016 101.619 32.0843 101.707 32.0789 101.864L31.9853 103.941C31.9793 104.112 31.8909 104.187 31.7201 104.167C31.2072 104.121 30.7686 104.198 30.4043 104.4C30.0261 104.587 29.7369 104.891 29.5364 105.313C29.3359 105.735 29.224 106.281 29.2007 106.952C29.1645 107.995 29.3942 108.789 29.8898 109.335C30.371 109.88 31.1399 110.171 32.1963 110.208L36.0292 110.341C37.0999 110.378 37.894 110.149 38.4114 109.652C38.9294 109.141 39.2063 108.372 39.242 107.344C39.2767 106.345 39.0749 105.573 38.6364 105.029C38.1837 104.485 37.5148 104.197 36.6297 104.166L35.9445 104.142L35.844 107.033C35.8381 107.204 35.7494 107.287 35.5781 107.281L34.1435 107.231C33.9864 107.226 33.9109 107.138 33.9168 106.966L34.0939 101.87C34.0964 101.799 34.1198 101.742 34.1641 101.701C34.2084 101.659 34.2663 101.64 34.3377 101.643L38.2777 101.779C38.763 101.796 39.2558 101.806 39.7559 101.809C40.2566 101.798 40.7223 101.764 41.153 101.708C41.2396 101.682 41.3105 101.699 41.3656 101.758C41.407 101.802 41.4264 101.86 41.4239 101.932L41.3659 103.602C41.3634 103.673 41.3471 103.73 41.3171 103.772C41.2728 103.813 41.2145 103.847 41.1421 103.873C40.9698 103.895 40.7618 103.917 40.5181 103.937C40.2749 103.943 40.0389 103.949 39.81 103.955L39.8085 103.998C40.1712 104.254 40.4818 104.572 40.7401 104.952C40.9989 105.319 41.1913 105.747 41.3172 106.237C41.4431 106.728 41.4954 107.28 41.474 107.893Z" fill="white"/>
<path d="M43.1937 94.5379C42.763 96.3735 42.002 97.6475 40.9106 98.3598C39.8052 99.0688 38.4251 99.2292 36.7702 98.841L32.8695 97.9259C31.2007 97.5344 30.0359 96.7769 29.3751 95.6536C28.7143 94.5302 28.5993 93.0507 29.0299 91.215C29.4573 89.3933 30.2167 88.1263 31.3082 87.414C32.3996 86.7017 33.7797 86.5413 35.4485 86.9328L39.3492 87.8479C41.0041 88.2362 42.1689 88.9936 42.8436 90.1202C43.5044 91.2436 43.6211 92.7161 43.1937 94.5379ZM41.0034 94.024C41.235 93.0367 41.1523 92.2323 40.7552 91.611C40.3442 90.9864 39.6381 90.5566 38.6368 90.3217L34.9864 89.4653C33.9851 89.2304 33.1685 89.3029 32.5365 89.6828C31.8906 90.0595 31.4518 90.7415 31.2202 91.7289C30.9886 92.7162 31.0766 93.5292 31.4843 94.1677C31.8814 94.789 32.5806 95.2172 33.5819 95.4521L37.2323 96.3085C38.2336 96.5434 39.0572 96.4725 39.7031 96.0958C40.3383 95.702 40.7718 95.0114 41.0034 94.024Z" fill="white"/>
<path d="M49.3866 77.9396C48.5415 79.5125 47.5058 80.5046 46.2795 80.9159C45.0532 81.3273 43.6662 81.1172 42.1184 80.2856L34.4177 76.1483C34.2667 76.0672 34.2284 75.9574 34.3027 75.819L35.2864 73.9882C35.3269 73.9127 35.3762 73.8662 35.4342 73.8487C35.4923 73.8312 35.559 73.8428 35.6345 73.8833L43.2976 78.0004C44.1658 78.4669 44.9539 78.6147 45.6619 78.4437C46.3573 78.2661 46.9383 77.7431 47.4048 76.8749C47.8712 76.0067 47.9866 75.2336 47.7509 74.5556C47.5026 73.8709 46.9443 73.2953 46.0761 72.8288L38.4131 68.7117C38.2621 68.6306 38.2238 68.5209 38.2981 68.3824L39.2818 66.5516C39.3629 66.4006 39.4789 66.3657 39.6299 66.4468L47.3685 70.6045C48.8658 71.4089 49.7844 72.4457 50.1242 73.7146C50.464 74.9836 50.2181 76.3919 49.3866 77.9396Z" fill="white"/>
<path d="M53.4482 70.5508C53.3503 70.6737 53.2343 70.6818 53.1002 70.575L42.5255 62.1511C42.3914 62.0443 42.3733 61.9295 42.4712 61.8066L44.9543 58.6894C46.1113 57.237 47.2685 56.4148 48.4259 56.2228C49.581 56.0107 50.7451 56.3719 51.9182 57.3064C53.069 58.2231 53.6713 59.2781 53.7251 60.4715C53.7677 61.6559 53.2283 62.952 52.1069 64.3598L51.0656 65.667L54.7022 68.5639C54.8363 68.6707 54.8499 68.7911 54.7431 68.9252L53.4482 70.5508ZM49.3562 64.3053L50.3708 63.0316C50.976 62.2719 51.2802 61.592 51.2834 60.9919C51.2866 60.3918 50.9698 59.8381 50.333 59.3308C49.6626 58.7968 49.0354 58.5984 48.4512 58.7357C47.867 58.873 47.2679 59.3271 46.6538 60.098L45.6525 61.3549L49.3562 64.3053Z" fill="white"/>
<path d="M76.0287 50.4438C75.1194 50.9541 74.2243 51.2272 73.3435 51.263C72.4557 51.2863 71.6326 51.0603 70.8744 50.5849C70.1162 50.1096 69.4574 49.3737 68.8981 48.3772L66.9579 44.9207C66.119 43.4259 65.9152 42.0415 66.3467 40.7674C66.7836 39.4738 67.7681 38.397 69.3002 37.5371C70.3963 36.9218 71.4159 36.5788 72.3591 36.5081C73.3146 36.4304 74.1416 36.605 74.8399 37.0321C75.5438 37.4397 76.0633 38.0735 76.3987 38.9336C76.4701 39.0901 76.4373 39.2068 76.3003 39.2837L74.4775 40.2823C74.328 40.3662 74.2176 40.3299 74.1461 40.1734C73.9193 39.711 73.6251 39.3765 73.2635 39.17C72.9073 38.944 72.497 38.855 72.0324 38.9028C71.5678 38.9506 71.0428 39.1388 70.4574 39.4674C69.5481 39.9778 68.9889 40.5865 68.7797 41.2936C68.5635 41.9883 68.7141 42.7965 69.2315 43.7182L71.1087 47.0627C71.6331 47.9969 72.2418 48.5561 72.935 48.7404C73.6405 48.9177 74.4417 48.7546 75.3386 48.2512C76.2105 47.7618 76.765 47.1885 77.0022 46.5312C77.2323 45.8614 77.1307 45.1404 76.6972 44.3682L76.3616 43.7703L73.8392 45.1861C73.6898 45.27 73.5731 45.2372 73.4892 45.0877L72.7865 43.8359C72.7096 43.6988 72.7459 43.5884 72.8954 43.5045L77.3422 41.0085C77.4045 40.9736 77.4648 40.9643 77.5231 40.9807C77.5815 40.9971 77.6281 41.0364 77.6631 41.0987L79.5927 44.5365C79.8305 44.96 80.0779 45.3863 80.335 45.8153C80.6047 46.2372 80.8755 46.6176 81.1475 46.9563C81.2144 47.0171 81.2369 47.0863 81.215 47.1641C81.1986 47.2225 81.1593 47.2691 81.097 47.3041L79.6396 48.1221C79.5774 48.157 79.5206 48.1725 79.4692 48.1686C79.4109 48.1522 79.3518 48.1199 79.2919 48.0716C79.1831 47.9361 79.0568 47.7695 78.913 47.5717C78.7817 47.3669 78.6539 47.1684 78.5296 46.9761L78.4922 46.9971C78.4622 47.4398 78.3517 47.8704 78.1607 48.2888C77.9822 48.7003 77.7161 49.0871 77.3625 49.4494C77.0089 49.8117 76.5643 50.1431 76.0287 50.4438Z" fill="white"/>
<path d="M88.0805 45.0283C86.2893 45.6171 84.8054 45.6312 83.6288 45.0707C82.4477 44.4966 81.5918 43.4022 81.0609 41.7874L79.8098 37.9811C79.2745 36.3527 79.3141 34.9639 79.9287 33.8146C80.5433 32.6653 81.7462 31.7963 83.5374 31.2075C85.3151 30.6231 86.7922 30.6112 87.9688 31.1717C89.1454 31.7322 90.0014 32.8267 90.5366 34.455L91.7878 38.2613C92.3186 39.8761 92.279 41.265 91.6688 42.4278C91.0543 43.5771 89.8581 44.4439 88.0805 45.0283ZM87.378 42.891C88.3414 42.5743 88.9849 42.0846 89.3084 41.422C89.6274 40.7458 89.6263 39.9191 89.3051 38.9421L88.1342 35.3801C87.8131 34.403 87.3257 33.7438 86.6722 33.4023C86.0141 33.0472 85.2034 33.028 84.24 33.3447C83.2765 33.6614 82.6285 34.1601 82.2959 34.8408C81.9724 35.5035 81.9713 36.3233 82.2925 37.3003L83.4634 40.8624C83.7845 41.8394 84.2741 42.5054 84.9321 42.8605C85.5992 43.1976 86.4145 43.2077 87.378 42.891Z" fill="white"/>
<path d="M106.183 41.5559C104.4 41.6454 103.015 41.2716 102.029 40.4344C101.043 39.5971 100.506 38.3012 100.418 36.5464L99.9797 27.8156C99.9711 27.6444 100.045 27.5548 100.202 27.547L102.278 27.4428C102.363 27.4385 102.429 27.4566 102.474 27.4973C102.519 27.5379 102.543 27.6011 102.548 27.6867L102.984 36.3747C103.033 37.3591 103.314 38.1101 103.826 38.6279C104.338 39.1314 105.086 39.3584 106.07 39.309C107.055 39.2596 107.776 38.9588 108.235 38.4066C108.692 37.8401 108.897 37.0647 108.847 36.0803L108.411 27.3923C108.402 27.2211 108.476 27.1315 108.633 27.1237L110.709 27.0194C110.88 27.0109 110.97 27.0922 110.979 27.2633L111.419 36.037C111.505 37.7347 111.092 39.0569 110.181 40.0036C109.27 40.9504 107.938 41.4678 106.183 41.5559Z" fill="white"/>
<path d="M114.355 41.1855C114.199 41.1655 114.132 41.0706 114.153 40.9005L115.868 27.4898C115.89 27.3198 115.979 27.2448 116.134 27.2647L120.087 27.7701C121.929 28.0056 123.233 28.5682 123.997 29.458C124.778 30.3354 125.073 31.518 124.883 33.0057C124.696 34.4651 124.107 35.5273 123.115 36.1925C122.124 36.8435 120.736 37.0549 118.951 36.8266L117.293 36.6147L116.704 41.2266C116.682 41.3966 116.586 41.4708 116.416 41.449L114.355 41.1855ZM117.571 34.4469L119.186 34.6534C120.149 34.7766 120.888 34.6838 121.403 34.3752C121.918 34.0666 122.227 33.5085 122.33 32.7009C122.439 31.8508 122.283 31.2116 121.862 30.7835C121.442 30.3553 120.743 30.0787 119.765 29.9537L118.171 29.7499L117.571 34.4469Z" fill="white"/>
<path d="M143.862 50.3875C142.959 49.8671 142.266 49.2376 141.785 48.4989C141.311 47.7479 141.085 46.925 141.105 46.0303C141.126 45.1357 141.422 44.1933 141.992 43.203L143.97 39.7681C144.826 38.2828 145.911 37.3997 147.227 37.1189C148.562 36.8329 149.991 37.1283 151.513 38.0051C152.602 38.6325 153.419 39.3333 153.962 40.1076C154.517 40.8891 154.79 41.689 154.78 42.5076C154.79 43.3208 154.511 44.0915 153.943 44.8195C153.845 44.9609 153.728 44.9924 153.592 44.914L151.802 43.8581C151.653 43.7726 151.628 43.6591 151.726 43.5177C152.007 43.0864 152.144 42.6625 152.137 42.2461C152.149 41.8245 152.015 41.4263 151.737 41.0515C151.458 40.6767 151.028 40.3218 150.446 39.9868C149.542 39.4663 148.733 39.2971 148.019 39.4789C147.311 39.6484 146.694 40.1911 146.166 41.107L144.252 44.4305C143.717 45.3589 143.548 46.168 143.744 46.8578C143.953 47.5548 144.502 48.16 145.394 48.6732C146.26 49.1723 147.036 49.3556 147.723 49.2233C148.416 49.0786 148.983 48.6225 149.425 47.8551L149.768 47.2609L147.261 45.8173C147.112 45.7318 147.081 45.6148 147.167 45.4662L147.883 44.2222C147.961 44.0861 148.075 44.0608 148.223 44.1463L152.642 46.6913C152.704 46.727 152.743 46.7741 152.759 46.8326C152.775 46.8911 152.765 46.9513 152.729 47.0132L150.761 50.4295C150.519 50.8504 150.279 51.281 150.042 51.7213C149.817 52.1688 149.629 52.596 149.477 53.003C149.459 53.0915 149.411 53.1463 149.333 53.1673C149.274 53.1831 149.214 53.1731 149.152 53.1375L147.704 52.3034C147.642 52.2677 147.6 52.2268 147.577 52.1807C147.561 52.1222 147.559 52.0548 147.57 51.9787C147.63 51.8159 147.709 51.6222 147.806 51.3975C147.914 51.1799 148.02 50.9686 148.121 50.7634L148.084 50.742C147.688 50.9426 147.262 51.0679 146.805 51.1177C146.36 51.1747 145.891 51.1438 145.399 51.0252C144.907 50.9066 144.395 50.6941 143.862 50.3875Z" fill="white"/>
<path d="M154.482 57.8469C153.056 56.614 152.28 55.349 152.155 54.0516C152.04 52.7435 152.538 51.4464 153.649 50.1604L156.269 47.129C157.39 45.8321 158.601 45.1514 159.903 45.087C161.204 45.0226 162.569 45.6069 163.995 46.8398C165.411 48.0633 166.181 49.3237 166.306 50.621C166.431 51.9183 165.933 53.2154 164.812 54.5123L162.192 57.5437C161.081 58.8298 159.869 59.5104 158.558 59.5857C157.257 59.6501 155.898 59.0705 154.482 57.8469ZM155.953 56.1448C156.721 56.8079 157.472 57.1077 158.206 57.0441C158.95 56.9697 159.658 56.5434 160.331 55.7653L162.783 52.9284C163.455 52.1502 163.77 51.3931 163.726 50.657C163.692 49.9101 163.291 49.205 162.524 48.5419C161.757 47.8788 160.996 47.5797 160.241 47.6448C159.506 47.7084 158.803 48.1293 158.13 48.9074L155.678 51.7443C155.006 52.5225 154.687 53.285 154.721 54.0319C154.775 54.7774 155.186 55.4817 155.953 56.1448Z" fill="white"/>
<path d="M166.551 71.2501C165.548 69.7725 165.149 68.3949 165.353 67.1176C165.557 65.8403 166.385 64.7085 167.839 63.7223L175.074 58.8153C175.216 58.7191 175.331 58.736 175.419 58.866L176.586 60.5861C176.634 60.657 176.652 60.7222 176.641 60.7817C176.629 60.8413 176.588 60.8951 176.517 60.9432L169.318 65.8261C168.502 66.3794 168.006 67.0093 167.83 67.7159C167.665 68.4145 167.859 69.1716 168.412 69.9873C168.966 70.803 169.597 71.2635 170.307 71.3687C171.029 71.466 171.798 71.238 172.614 70.6847L179.813 65.8018C179.955 65.7056 180.07 65.7225 180.158 65.8525L181.324 67.5725C181.421 67.7144 181.398 67.8334 181.256 67.9296L173.986 72.8607C172.579 73.8148 171.235 74.1484 169.953 73.8615C168.671 73.5746 167.537 72.7042 166.551 71.2501Z" fill="white"/>
<path d="M171.264 78.3613C171.201 78.2175 171.248 78.111 171.404 78.0419L183.776 72.59C183.933 72.5208 184.043 72.5582 184.107 72.702L185.714 76.3488C186.462 78.0481 186.653 79.4548 186.286 80.5689C185.937 81.6904 185.076 82.5535 183.704 83.1583C182.357 83.7516 181.143 83.7949 180.062 83.2882C178.993 82.7758 178.096 81.6961 177.37 80.0491L176.696 78.5198L172.441 80.3947C172.284 80.4638 172.171 80.42 172.102 80.2631L171.264 78.3613ZM178.696 77.6385L179.352 79.1286C179.744 80.0175 180.205 80.6027 180.735 80.8843C181.265 81.1658 181.902 81.1425 182.647 80.8142C183.432 80.4685 183.899 80.0052 184.048 79.4241C184.198 78.843 184.074 78.1015 183.677 77.1995L183.029 75.729L178.696 77.6385Z" fill="white"/>
<circle cx="59.6991" cy="53.0336" r="3.06087" fill="#00BF58"/>
<circle cx="133.16" cy="37.7292" r="3.06087" fill="#00BF58"/>
<circle cx="185.195" cy="97.4162" r="3.06087" fill="#00BF58"/>
<circle cx="156.882" cy="170.877" r="3.06087" fill="#00BF58"/>
<circle cx="81.89" cy="181.59" r="3.06087" fill="#00BF58"/>
<circle cx="34.4466" cy="122.668" r="3.06087" fill="#00BF58"/>
</svg>