<svg width="56" height="56" viewBox="0 0 56 56" fill="none" xmlns="http://www.w3.org/2000/svg">
<g clip-path="url(#clip0_17_1401)">
<path d="M30.0005 0.0485131C33.9259 -0.0939189 37.8228 0.00151128 41.5902 1.34892C50.7713 4.63767 56.3717 13.2519 55.6667 22.9459C55.4163 26.4305 54.4371 29.8238 52.7924 32.9062C50.673 36.9313 48.7673 41.0789 46.4741 45.0001C42.5601 51.6944 36.6022 55.3563 28.8567 55.936C23.6993 56.322 18.9762 54.9689 14.8329 51.8425C11.5754 49.3827 8.40206 46.8061 5.646 43.7794C2.63499 40.4736 0.642368 36.6464 0.136735 32.1456C-0.14495 29.5918 0.0164756 27.0086 0.613887 24.5098C1.39299 21.1911 1.9969 17.7984 3.1506 14.6079C5.97788 6.77413 11.8204 2.28754 19.8707 0.69942C22.386 0.202332 25.0082 0.236516 27.5834 0.0584757C28.3853 0.0029272 29.1943 0.0485131 30.0005 0.0485131ZM54.409 21.4874C54.3734 20.7296 54.3663 19.9676 54.2908 19.2085C54.2163 18.5013 54.1046 17.7986 53.9561 17.1033C52.0133 7.81104 44.0556 1.74771 34.7278 1.36742C32.2181 1.26487 29.6985 1.27769 27.1874 1.37597C24.8245 1.46855 22.4217 1.5184 20.1157 1.98131C12.4699 3.5153 6.92647 7.77544 4.30572 15.2602C3.21042 18.3937 2.57375 21.7053 1.8502 24.9627C0.317627 31.8621 1.92284 38.0024 6.83532 43.0729C9.36776 45.6851 12.2292 47.9897 15.0351 50.3213C16.2446 51.3159 17.5744 52.1543 18.9933 52.8167C28.3767 57.2236 40.0006 53.6186 45.1709 44.5927C47.6293 40.2998 49.7714 35.8246 52.0347 31.422C53.6513 28.3127 54.4005 24.9841 54.409 21.4874Z" fill="white"/>
<path d="M26.3371 4.13489C29.3809 4.24598 32.4076 4.41975 35.3659 5.20598C39.8766 6.37927 43.8228 9.11896 46.4988 12.935C49.1748 16.7511 50.406 21.3946 49.9723 26.0352C49.6894 29.013 48.8517 31.9115 47.5025 34.5811C45.5711 38.4923 43.3905 42.254 40.2171 45.2949C35.8914 49.4397 30.6485 51.2172 24.692 50.8398C19.0659 50.4837 14.5081 47.9598 10.7579 43.8435C8.67553 41.5646 6.70854 39.1931 5.37823 36.3644C3.27593 31.8935 2.823 27.2758 4.16755 22.5115C5.23437 18.7342 6.49347 15.0252 8.95897 11.886C12.4642 7.4208 17.099 4.9553 22.7265 4.35424C23.92 4.2289 25.1307 4.2061 26.3371 4.13489ZM26.2972 4.99803L26.2716 5.12195C25.0666 5.20029 23.8502 5.23019 22.6567 5.36693C17.1915 5.9922 12.7633 8.47337 9.45464 12.8802C7.56172 15.4013 6.52481 18.3339 5.53776 21.2837C3.877 26.2403 3.98383 31.1115 6.24992 35.8801C7.51472 38.5522 9.35779 40.7997 11.3148 42.9747C15.8641 48.031 21.456 50.5065 28.3012 49.7801C33.275 49.2517 37.4397 47.0895 40.7384 43.3094C43.5087 40.1331 45.5711 36.5154 47.276 32.6882C48.8428 29.1659 49.4225 25.4684 48.8755 21.6412C47.7489 13.7676 42.0388 7.60881 34.1922 5.97369C31.5985 5.4353 28.9294 5.31138 26.2972 4.99803Z" fill="white"/>
<path d="M6.24564 27.3585C6.24564 16.8185 14.8229 8.21988 25.3529 8.26261C36.6335 8.30676 44.6496 17.6703 44.4388 27.7331C44.2137 38.1491 35.514 46.5868 25.0225 46.4415C14.7588 46.2991 6.2371 37.7517 6.24564 27.3585ZM25.3543 8.90641C22.9291 8.90528 20.5275 9.38232 18.2869 10.3102C16.0462 11.2381 14.0105 12.5987 12.2962 14.3141C10.5818 16.0295 9.22253 18.066 8.29601 20.3072C7.36949 22.5485 6.89394 24.9504 6.89656 27.3756C6.89656 37.4085 15.1576 45.7251 25.0524 45.8148C35.175 45.9074 43.5685 37.8799 43.7936 27.7502C44.0172 17.5492 35.7832 8.89928 25.35 8.90641H25.3543Z" fill="white"/>
<path d="M24.3345 42.8238C22.0556 42.8793 19.9191 42.2469 17.9108 41.173C11.8874 37.9483 8.69689 31.2625 9.90899 24.4343C11.0627 17.9337 16.5435 12.7065 23.1708 11.785C25.297 11.4867 27.4617 11.6286 29.5307 12.2018C31.5997 12.7751 33.5288 13.7674 35.1983 15.1173C36.8678 16.4672 38.242 18.1458 39.2357 20.0489C40.2294 21.9521 40.8214 24.0391 40.9748 26.1806C41.2469 29.8339 40.5248 33.248 38.0037 36.044C35.2078 39.1476 31.6413 40.4038 27.5093 39.9965C23.5312 39.6034 20.3749 37.8287 18.3937 34.2551C16.4124 30.6814 16.8939 26.0738 19.4619 23.2878C22.6894 19.7797 28.4736 20.3038 30.9747 24.3646C31.3379 24.9528 31.553 25.6593 31.7111 26.3401C31.8863 27.095 31.6498 27.3158 30.8565 27.3371C28.532 27.3799 26.208 27.4178 23.8844 27.4511C23.215 27.4596 22.6125 27.602 22.1653 28.1404C21.718 28.6788 21.5799 29.3283 21.8562 30.002C22.1411 30.6971 22.6737 31.1515 23.4229 31.1415C26.6476 31.113 29.8737 31.0888 33.0969 30.9691C34.6409 30.9122 35.5838 29.8582 35.6607 28.2629C35.8544 24.1637 34.0669 21.0402 30.6756 18.8852C24.7276 15.0994 17.0748 17.7144 14.2959 24.4273C11.02 32.3721 16.2016 40.7628 23.648 42.6586L24.3345 42.8238Z" fill="white"/>
</g>
<defs>
<clipPath id="clip0_17_1401">
<rect width="55.7265" height="56" fill="white"/>
</clipPath>
</defs>
</svg>
