<svg width="94" height="57" viewBox="0 0 94 57" fill="none" xmlns="http://www.w3.org/2000/svg">
<g clip-path="url(#clip0_17_1249)">
<path d="M62.0463 31.1174C62.0463 26.991 60.4071 23.0336 57.4892 20.1157C54.5714 17.1979 50.614 15.5587 46.4876 15.5587V31.1174H62.0463Z" fill="white"/>
<path d="M30.9289 0C30.9289 4.12642 32.5681 8.08383 35.4859 11.0017C38.4038 13.9195 42.3612 15.5587 46.4876 15.5587V0H30.9289Z" fill="white"/>
<path d="M70.941 15.5587L76.9504 7.77934L70.941 0H62.0463C57.9198 0 53.9624 1.63921 51.0446 4.55703C48.1268 7.47485 46.4876 11.4323 46.4876 15.5587H70.941Z" fill="white"/>
<path d="M22.0342 15.5587L16.0224 23.3381L22.0342 31.1174H30.9289C35.0553 31.1174 39.0127 29.4782 41.9305 26.5604C44.8484 23.6425 46.4876 19.6851 46.4876 15.5587H22.0342Z" fill="white"/>
<path d="M2.67797 42.1341V43.3606H7.8768V45.0667H2.67797V47.2928H0.147095V40.2909H8.1391V42.1341H2.67797Z" fill="white"/>
<path d="M9.12924 47.2928V40.2909H11.6601V45.3503H17.1331V47.2928H9.12924Z" fill="white"/>
<path d="M20.6423 42.9494H25.8411V44.4689H20.6423V45.5961H26.1649V47.2928H18.1114V40.2909H26.0656V41.9451H20.6305L20.6423 42.9494Z" fill="white"/>
<path d="M36.2341 40.2909V44.2326C36.2702 44.9274 36.0848 45.6158 35.7047 46.1987C35.3285 46.702 34.7956 47.0661 34.19 47.2337C32.5712 47.6402 30.877 47.6402 29.2582 47.2337C28.653 47.0663 28.1198 46.7042 27.7411 46.2034C27.3882 45.7213 27.2117 45.0644 27.2117 44.2326V40.2909H29.7426V44.164C29.7248 44.3744 29.7626 44.5858 29.8522 44.777C29.9418 44.9681 30.08 45.1325 30.253 45.2534C30.7116 45.4728 31.2134 45.5867 31.7217 45.5867C32.23 45.5867 32.7319 45.4728 33.1904 45.2534C33.3642 45.1331 33.5032 44.969 33.5932 44.7777C33.6833 44.5864 33.7212 44.3747 33.7032 44.164V40.2909H36.2341Z" fill="white"/>
<path d="M46.7239 47.2928H43.7937L42.52 45.1849H39.9418V47.2928H37.4109V40.2909H43.7251C44.7318 40.2909 45.4549 40.4839 45.8945 40.8699C46.334 41.2558 46.553 41.8442 46.5514 42.6351C46.5856 43.1216 46.4466 43.6046 46.1591 43.9986C45.8648 44.3236 45.4723 44.5435 45.0414 44.6248V44.7146L46.7239 47.2928ZM43.5597 43.3488C43.6803 43.2079 43.7467 43.0285 43.7467 42.843C43.7467 42.6576 43.6803 42.4782 43.5597 42.3373C43.3883 42.2168 43.1802 42.1599 42.9713 42.1766H39.9418V43.5094H42.9713C43.1802 43.5262 43.3883 43.4693 43.5597 43.3488Z" fill="white"/>
<path d="M59.461 41.1109C60.1069 41.6576 60.4299 42.5516 60.4299 43.793C60.4299 45.0336 60.1085 45.9198 59.461 46.4728C58.8135 47.0257 57.8234 47.2928 56.4882 47.2928H51.228V40.2909H56.493C57.821 40.2909 58.8104 40.5642 59.461 41.1109ZM53.7565 42.1436V45.4519H55.8266C56.3146 45.486 56.799 45.3471 57.1948 45.0596C57.5099 44.7981 57.6674 44.3799 57.6674 43.8048C57.6674 43.2298 57.5099 42.8107 57.1948 42.5477C56.799 42.2602 56.3146 42.1213 55.8266 42.1554L53.7565 42.1436Z" fill="white"/>
<path d="M63.9557 42.9494H69.1427V44.4689H63.9557V45.5961H69.4759V47.2928H61.4271V40.2909H69.379V41.9451H63.9557V42.9494Z" fill="white"/>
<path d="M74.2139 47.2928V40.2909H76.7353V45.3503H82.2083V47.2928H74.2139Z" fill="white"/>
<path d="M89.8836 46.2719H85.9514L85.4505 47.2928H82.6762L86.2445 40.2909H89.619L93.1494 47.2928H90.3728L89.8836 46.2719ZM89.0589 44.587L87.9412 42.2925H87.8821L86.7643 44.587H89.0589ZM88.9715 39.6836H86.8825L87.7167 38.2019H90.914L88.9715 39.6836Z" fill="white"/>
<path d="M10.0816 52.1514H15.2686V53.6709H10.0816V54.7981H15.6018V56.4948H7.55069V49.4929H15.5049V51.1471H10.0816V52.1514Z" fill="white"/>
<path d="M25.7324 49.4929V56.4948H22.7904L19.1134 52.3074H19.0543V56.4948H16.651V49.4929H19.6333L23.2606 53.6213H23.3292V49.4929H25.7324Z" fill="white"/>
<path d="M32.3255 51.003C31.5629 50.7657 30.7479 50.7542 29.9789 50.9699C29.8814 50.9972 29.7953 51.0551 29.7331 51.1351C29.671 51.2151 29.6363 51.3129 29.6339 51.4141C29.6306 51.4855 29.6483 51.5562 29.6848 51.6176C29.7214 51.6789 29.7752 51.7282 29.8395 51.7592C30.0653 51.8509 30.305 51.9036 30.5484 51.9151L33.4031 52.1514C34.2664 52.2223 34.9147 52.4279 35.3479 52.7682C35.7811 53.1085 35.9986 53.6221 36.0001 54.3089C36.0174 54.5811 35.9799 54.8539 35.8898 55.1112C35.7997 55.3686 35.6588 55.6052 35.4755 55.8071C35.0477 56.1999 34.5117 56.4551 33.9371 56.5397C33.0513 56.6897 32.1533 56.7569 31.255 56.7406C30.3833 56.7585 29.5122 56.6856 28.6556 56.5232C28.0815 56.4244 27.5504 56.1552 27.1314 55.7504C26.75 55.3132 26.5453 54.7496 26.5572 54.1695H29.4992C29.5203 54.3328 29.5811 54.4884 29.6763 54.6227C29.7714 54.757 29.8981 54.8659 30.0451 54.9399C30.4573 55.1028 30.8999 55.1745 31.3424 55.1502C31.7725 55.1737 32.2032 55.1193 32.6138 54.9895C32.724 54.9577 32.821 54.8914 32.8908 54.8004C32.9605 54.7094 32.9993 54.5985 33.0014 54.4838C33.0057 54.3998 32.9857 54.3163 32.9438 54.2434C32.9019 54.1705 32.8398 54.1112 32.765 54.0726C32.5533 53.972 32.3234 53.9149 32.0892 53.9048L29.3433 53.6402C28.4847 53.5535 27.8364 53.3527 27.3984 53.0376C26.9613 52.7233 26.7415 52.2247 26.7415 51.537C26.7283 51.2835 26.7681 51.0301 26.8584 50.7928C26.9488 50.5556 27.0876 50.3398 27.2661 50.1593C27.691 49.7886 28.2105 49.5431 28.7667 49.4504C29.5729 49.2994 30.3924 49.2305 31.2125 49.2448C32.029 49.2301 32.8449 49.3014 33.6465 49.4575C34.2092 49.5561 34.7336 49.8089 35.1612 50.1877C35.3465 50.3738 35.4926 50.5951 35.5908 50.8387C35.689 51.0822 35.7374 51.343 35.7331 51.6055H32.8218C32.7975 51.471 32.7392 51.345 32.6523 51.2395C32.5654 51.134 32.4529 51.0525 32.3255 51.003Z" fill="white"/>
<path d="M39.481 52.1514H44.668V53.6709H39.481V54.7981H45.0012V56.4948H36.9501V49.4929H44.9019V51.1471H39.481V52.1514Z" fill="white"/>
<path d="M57.0436 56.4948H54.5221V51.7284H54.4631L52.4639 56.4948H50.5498L48.5198 51.6693H48.4513V56.4948H46.0504V49.4929H49.933L51.4737 53.4251H51.5423L53.0523 49.4929H57.0436V56.4948Z" fill="white"/>
<path d="M66.9851 53.2739C67.2319 53.6109 67.3509 54.0247 67.3207 54.4413C67.3207 55.1266 67.1246 55.6409 66.7323 55.9844C66.34 56.327 65.6973 56.4995 64.8087 56.4995H58.2204V49.4929H64.6835C65.52 49.4929 66.1281 49.6505 66.5078 49.9655C66.6996 50.1298 66.8508 50.3363 66.9496 50.5687C67.0484 50.8011 67.0921 51.0533 67.0773 51.3054C67.0925 51.626 67.0011 51.9426 66.8174 52.2058C66.6312 52.4433 66.3694 52.6101 66.0754 52.6784V52.7469C66.4279 52.819 66.7473 53.004 66.9851 53.2739ZM64.1707 52.1207C64.2301 52.0634 64.276 51.9936 64.305 51.9163C64.334 51.8391 64.3455 51.7563 64.3385 51.6741C64.3448 51.5936 64.3331 51.5128 64.304 51.4376C64.275 51.3623 64.2294 51.2946 64.1707 51.2393C64.0204 51.132 63.8372 51.081 63.6532 51.0951H60.7489V52.2625H63.6532C63.8375 52.2759 64.0207 52.2241 64.1707 52.116V52.1207ZM64.3621 54.7792C64.4266 54.7146 64.4764 54.6368 64.5078 54.5511C64.5392 54.4654 64.5516 54.3739 64.5441 54.2829C64.5528 54.1915 64.5409 54.0993 64.5095 54.0131C64.478 53.9268 64.4276 53.8486 64.3621 53.7843C64.1927 53.6636 63.9856 53.6074 63.7784 53.626H60.7489V54.9281H63.7784C63.9851 54.9482 64.1921 54.8937 64.3621 54.7745V54.7792Z" fill="white"/>
<path d="M68.3203 56.4948V49.4929H70.8488V54.5523H76.3218V56.4948H68.3203Z" fill="white"/>
<path d="M79.8334 52.1514H85.0322V53.6709H79.8334V54.7981H85.3536V56.4948H77.3025V49.4929H85.2543V51.1471H79.8334V52.1514Z" fill="white"/>
</g>
<defs>
<clipPath id="clip0_17_1249">
<rect width="93" height="56.7405" fill="white" transform="translate(0.147095)"/>
</clipPath>
</defs>
</svg>
