<svg width="54" height="36" viewBox="0 0 54 36" fill="none" xmlns="http://www.w3.org/2000/svg">
<g clip-path="url(#clip0_17_1272)">
<path d="M20.7949 0H17.6925V10.5507C17.6925 11.7842 17.2024 12.9673 16.3301 13.8396C15.4579 14.7118 14.2748 15.2019 13.0412 15.2019C11.8077 15.2019 10.6246 14.7118 9.75232 13.8396C8.88005 12.9673 8.39001 11.7842 8.39001 10.5507V0H0.118494V9.43281C0.115404 11.99 0.87141 14.4905 2.29073 16.6177C3.71005 18.7448 5.72881 20.4027 8.09125 21.3815C10.4537 22.3603 13.0535 22.6158 15.5613 22.1157C18.0691 21.6156 20.372 20.3824 22.1783 18.5723C22.6101 18.1394 23.0115 17.6772 23.3794 17.1889C25.0051 19.3621 27.274 20.968 29.8641 21.7787C32.4542 22.5894 35.2338 22.5637 37.8084 21.7052C40.383 20.8467 42.6218 19.199 44.207 16.996C45.7921 14.7931 46.6431 12.1468 46.6391 9.43281V0H20.7949ZM29.0652 7.15127H38.37V10.547C38.37 11.7809 37.8799 12.9643 37.0074 13.8368C36.1349 14.7093 34.9515 15.1995 33.7176 15.1995C32.4837 15.1995 31.3004 14.7093 30.4279 13.8368C29.5554 12.9643 29.0652 11.7809 29.0652 10.547V7.15127Z" fill="white"/>
<path d="M53.1471 3.07825H47.978V10.0291H53.1471V3.07825Z" fill="white"/>
<path d="M5.62811 33.8853C5.53761 33.7005 5.40685 33.5384 5.24543 33.4108C5.09287 33.2848 4.90958 33.2014 4.71428 33.1694C4.97813 33.0892 5.21299 32.934 5.39029 32.7228C5.56599 32.5003 5.65672 32.2226 5.64621 31.9393C5.65023 31.6964 5.584 31.4574 5.45548 31.2512C5.31579 31.0375 5.1164 30.8696 4.88208 30.7683C4.59084 30.6411 4.2751 30.5797 3.95738 30.5885H2.04402V35.9145H4.03102C4.35054 35.9221 4.66771 35.8582 4.95933 35.7274C5.20519 35.6178 5.41461 35.4402 5.56292 35.2155C5.68495 35.0177 5.75493 34.7922 5.76633 34.56C5.77773 34.3278 5.73018 34.0965 5.62811 33.8877V33.8853ZM2.74297 31.1643H3.89703C4.23262 31.1643 4.49095 31.2403 4.6684 31.3937C4.7532 31.4761 4.82061 31.5747 4.86664 31.6837C4.91266 31.7927 4.93638 31.9097 4.93638 32.028C4.93638 32.1463 4.91266 32.2634 4.86664 32.3723C4.82061 32.4813 4.7532 32.5799 4.6684 32.6624C4.45198 32.8275 4.1832 32.909 3.91151 32.8918H2.74297V31.1643ZM4.78309 35.0997C4.55046 35.2741 4.26322 35.3597 3.97308 35.3411H2.73935V33.4676H3.94652C4.24084 33.4519 4.53095 33.5428 4.76377 33.7235C4.86543 33.8086 4.946 33.9161 4.9992 34.0376C5.05239 34.1591 5.07676 34.2912 5.07039 34.4236C5.07646 34.5507 5.05378 34.6775 5.00403 34.7945C4.95429 34.9116 4.87876 35.0159 4.78309 35.0997Z" fill="white"/>
<path d="M8.95144 35.3519V30.5908H8.25611V35.9168H10.8189V35.3519H8.95144Z" fill="white"/>
<path d="M15.4774 30.6222H14.6746L12.7504 35.9168H13.4844L13.9117 34.7326H16.2343L16.6628 35.9168H17.3956L15.4774 30.6222ZM14.1097 34.1676L15.0754 31.4781L16.0411 34.1676H14.1097Z" fill="white"/>
<path d="M23.1598 35.1032C22.858 35.2803 22.5125 35.3689 22.1627 35.3591C21.8119 35.3638 21.4663 35.2742 21.1619 35.0996C20.8647 34.925 20.6235 34.6691 20.4666 34.362C20.3005 34.0136 20.2143 33.6326 20.2143 33.2466C20.2143 32.8606 20.3005 32.4796 20.4666 32.1312C20.6235 31.8241 20.8647 31.5682 21.1619 31.3936C21.4657 31.2178 21.8117 31.128 22.1627 31.1341C22.513 31.1236 22.859 31.2137 23.1598 31.3936C23.4421 31.5712 23.6645 31.8294 23.7984 32.1348H24.6313C24.4532 31.6453 24.1206 31.227 23.6837 30.9433C23.2291 30.6567 22.7 30.5105 22.1627 30.5232C21.6898 30.5169 21.224 30.6383 20.8143 30.8745C20.4119 31.1058 20.0805 31.4426 19.8558 31.8487C19.6244 32.2792 19.5033 32.7603 19.5033 33.249C19.5033 33.7377 19.6244 34.2188 19.8558 34.6493C20.0819 35.0522 20.4132 35.386 20.8143 35.6151C21.226 35.8492 21.6927 35.9692 22.1663 35.9627C22.703 35.9749 23.2317 35.8301 23.6873 35.5463C24.1222 35.2651 24.4546 34.851 24.635 34.3656H23.802C23.6674 34.6707 23.4435 34.9279 23.1598 35.1032Z" fill="white"/>
<path d="M28.551 33.2587L30.9654 30.5908H30.0865L27.8859 33.0595V30.5908H27.1906V35.9168H27.8859V33.4868L30.0793 35.9168H30.9883L28.551 33.2587Z" fill="white"/>
<path d="M36.8757 33.8852C36.786 33.7002 36.6556 33.538 36.4942 33.4108C36.3416 33.2847 36.1584 33.2014 35.963 33.1693C36.2268 33.0888 36.4615 32.9337 36.6391 32.7227C36.8148 32.5002 36.9055 32.2225 36.895 31.9392C36.899 31.6963 36.8328 31.4573 36.7043 31.2511C36.5643 31.0377 36.365 30.8699 36.1308 30.7683C35.8395 30.6414 35.5238 30.58 35.2062 30.5884H33.2964V35.9144H35.2822C35.6017 35.9222 35.9189 35.8582 36.2105 35.7273C36.4564 35.6177 36.6658 35.4401 36.8141 35.2155C36.9361 35.0176 37.0061 34.7921 37.0175 34.5599C37.0289 34.3277 36.9814 34.0964 36.8793 33.8876L36.8757 33.8852ZM33.9966 31.1642H35.1494C35.4862 31.1642 35.7446 31.2403 35.922 31.3936C36.0065 31.4762 36.0736 31.5749 36.1195 31.6838C36.1653 31.7928 36.1889 31.9098 36.1889 32.0279C36.1889 32.1461 36.1653 32.2631 36.1195 32.3721C36.0736 32.481 36.0065 32.5797 35.922 32.6623C35.7056 32.8275 35.4368 32.9089 35.1651 32.8917H33.9966V31.1642ZM36.0367 35.0996C35.804 35.2738 35.5168 35.3594 35.2267 35.341H33.9966V33.4675H35.2037C35.4981 33.4518 35.7882 33.5427 36.021 33.7234C36.1223 33.8088 36.2025 33.9164 36.2555 34.0378C36.3085 34.1592 36.3327 34.2912 36.3264 34.4236C36.3316 34.5512 36.3078 34.6783 36.2568 34.7954C36.2057 34.9125 36.1289 35.0165 36.0319 35.0996H36.0367Z" fill="white"/>
<path d="M42.8089 30.5908V33.9612C42.8089 34.4345 42.693 34.7857 42.4612 35.0151C42.2307 35.2445 41.9096 35.3591 41.5027 35.3591C41.0959 35.3591 40.7664 35.2445 40.537 35.0151C40.3076 34.7857 40.1893 34.4345 40.1893 33.9612V30.5908H39.494V33.9504C39.4814 34.3401 39.5722 34.7262 39.7572 35.0694C39.9231 35.3619 40.1734 35.5975 40.4754 35.7454C40.7956 35.8918 41.1435 35.9676 41.4955 35.9676C41.8475 35.9676 42.1954 35.8918 42.5156 35.7454C42.8191 35.5975 43.0714 35.3621 43.2399 35.0694C43.4271 34.7269 43.5193 34.3405 43.5066 33.9504V30.5908H42.8089Z" fill="white"/>
<path d="M48.3619 33.0438V33.61H50.4865C50.4538 34.0885 50.2443 34.5377 49.8986 34.8702C49.5441 35.1886 49.0793 35.3558 48.6033 35.3362C48.2518 35.3411 47.9052 35.2528 47.599 35.0803C47.3011 34.91 47.0575 34.6589 46.8964 34.356C46.728 34.013 46.6405 33.636 46.6405 33.2538C46.6405 32.8717 46.728 32.4947 46.8964 32.1517C47.0549 31.8444 47.2989 31.5895 47.599 31.4177C47.9052 31.2452 48.2518 31.1569 48.6033 31.1618C48.9471 31.1548 49.286 31.2434 49.5823 31.4177C49.8635 31.5899 50.0867 31.8421 50.2233 32.1421H51.0563C50.8762 31.6545 50.5423 31.2388 50.105 30.9578C49.6573 30.6709 49.135 30.5222 48.6033 30.5305C48.1298 30.5245 47.6632 30.6445 47.2513 30.8781C46.8471 31.1056 46.5131 31.4397 46.2856 31.8439C46.0526 32.2739 45.9306 32.7552 45.9306 33.2442C45.9306 33.7332 46.0526 34.2145 46.2856 34.6445C46.5141 35.0479 46.8479 35.3817 47.2513 35.6102C47.6634 35.8433 48.1299 35.9633 48.6033 35.9579C49.0487 35.9634 49.488 35.8545 49.8793 35.6416C50.2549 35.4354 50.5729 35.1382 50.804 34.7773C51.0376 34.4144 51.1794 34.0001 51.2168 33.5701V33.0354L48.3619 33.0438Z" fill="white"/>
</g>
<defs>
<clipPath id="clip0_17_1272">
<rect width="53.0285" height="35.97" fill="white" transform="translate(0.118591)"/>
</clipPath>
</defs>
</svg>
