<svg width="81" height="56" viewBox="0 0 81 56" fill="none" xmlns="http://www.w3.org/2000/svg">
<g clip-path="url(#clip0_17_1407)">
<path fill-rule="evenodd" clip-rule="evenodd" d="M45.4118 23.8035C44.9586 24.1253 44.4303 24.3251 43.8776 24.3838C43.3249 24.4424 42.7664 24.3578 42.2558 24.1382C42.0615 24.0535 41.8876 23.9283 41.7456 23.7711C41.535 23.52 36.2031 17.7777 36.2031 17.7777L36.1869 17.7588C37.0156 17.8927 37.8653 17.7923 38.6401 17.4689C39.4148 17.1454 40.0837 16.6119 40.5712 15.9284C41.0149 15.2681 41.2534 14.4914 41.2567 13.6959C41.2601 12.9004 41.0282 12.1217 40.5901 11.4577C39.5372 10.035 37.4854 9.5679 35.7657 9.78388C32.796 10.1861 30.6363 12.7158 29.9775 15.3615C29.2945 18.3743 29.7859 21.2198 30.8549 23.8979C31.1073 24.4917 31.4378 25.0492 31.8376 25.5556C28.6979 24.2516 25.9253 21.8408 24.4701 18.6065C23.6526 16.8037 23.2577 14.8379 23.3158 12.8592C23.3738 10.8805 23.8831 8.94128 24.8049 7.18946C26.3113 4.46006 28.9786 1.93043 32.275 0.858649C35.7306 -0.491204 40.3741 -0.22123 43.746 1.59567C47.8334 3.53946 50.9192 8.37733 50.9381 12.6969C51.0107 14.8628 50.5436 17.0129 49.579 18.9535C48.6143 20.8941 47.1823 22.5645 45.4118 23.8142" fill="white"/>
<path fill-rule="evenodd" clip-rule="evenodd" d="M33.9407 25.4961C32.4154 23.9222 31.187 21.8785 32.1184 19.7539C32.9418 18.134 33.6788 16.471 34.0298 14.5947C34.1702 16.5547 35.4148 18.296 36.0114 20.1723C36.2678 21.0876 36.2252 22.0609 35.8899 22.9503C35.4677 23.9566 34.847 24.8675 34.0649 25.6284L33.9407 25.4961Z" fill="white"/>
<path fill-rule="evenodd" clip-rule="evenodd" d="M14.6972 43.1954H10.6476C9.74774 41.8456 8.93783 40.6811 8.21791 39.702C7.49798 38.7229 6.70967 37.7114 5.85296 36.6676H4.31143V41.2382C4.30865 41.4517 4.3481 41.6636 4.42752 41.8618C4.47842 41.9603 4.54902 42.0473 4.63493 42.1175C4.72084 42.1876 4.82024 42.2393 4.92696 42.2694C5.14472 42.3376 5.3692 42.3819 5.59649 42.4017C5.91506 42.4413 6.18503 42.4656 6.40641 42.4746V43.1954H0V42.4746C0.170081 42.4584 0.418452 42.4368 0.739717 42.4017C0.969607 42.3881 1.19662 42.3436 1.41464 42.2694C1.60811 42.1987 1.7712 42.0633 1.8763 41.8861C1.98047 41.6865 2.03072 41.4631 2.02208 41.2382V30.8146C2.02643 30.6 1.98978 30.3865 1.91409 30.1856C1.867 30.0832 1.79777 29.9926 1.7114 29.9202C1.62503 29.8478 1.52367 29.7956 1.41464 29.7671C1.18913 29.6935 0.957986 29.6384 0.723519 29.6024C0.484291 29.5569 0.242761 29.5245 0 29.5052V28.7844H6.96524C7.56958 28.7807 8.17251 28.8431 8.76324 28.9707C9.29912 29.0878 9.81244 29.2912 10.2832 29.5727C10.7144 29.8365 11.0756 30.2005 11.3361 30.6337C11.6108 31.1147 11.7481 31.662 11.7329 32.2157C11.7415 32.7192 11.6497 33.2194 11.463 33.6871C11.2868 34.1093 11.0194 34.4872 10.68 34.794C10.3348 35.1002 9.94639 35.354 9.52726 35.5472C9.05233 35.7714 8.55807 35.9521 8.05053 36.0871C8.79564 37.0293 9.40038 37.8203 9.90522 38.4656C10.4101 39.1108 11.0013 39.8883 11.7194 40.8062C11.9621 41.1419 12.247 41.445 12.5671 41.7079C12.8004 41.8887 13.0508 42.046 13.315 42.1777C13.5348 42.2774 13.7674 42.3465 14.0061 42.3828C14.2347 42.4231 14.4655 42.4502 14.6972 42.4638V43.1954ZM9.10341 32.4533C9.123 32.0715 9.06305 31.6899 8.92735 31.3325C8.79164 30.9751 8.58315 30.6498 8.31509 30.3772C7.79405 29.867 7.04893 29.6105 6.09593 29.6105H4.28713V35.7928H5.66938C6.56528 35.8199 7.43658 35.4975 8.09912 34.8938C8.42765 34.5832 8.68528 34.2053 8.85441 33.786C9.02353 33.3667 9.10018 32.9158 9.07911 32.4641L9.10341 32.4533ZM24.319 40.8386C23.9024 41.6138 23.2958 42.2706 22.556 42.7473C21.797 43.2275 20.9137 43.4743 20.0156 43.4573C19.254 43.4747 18.4974 43.3292 17.7965 43.0308C17.1925 42.7714 16.6566 42.3759 16.2306 41.8753C15.8116 41.3742 15.4976 40.794 15.3073 40.1691C15.1048 39.5004 15.0037 38.8051 15.0077 38.1065C15.0085 37.456 15.1171 36.8101 15.3289 36.1951C15.5415 35.5781 15.8654 35.0053 16.2846 34.5051C16.6967 34.0157 17.2084 33.62 17.7857 33.3442C18.414 33.0408 19.1046 32.8882 19.8023 32.8988C20.4742 32.8815 21.1427 33 21.7677 33.247C22.2805 33.4499 22.737 33.773 23.0987 34.1892C23.4307 34.5851 23.6788 35.0443 23.8276 35.5391C23.99 36.082 24.0701 36.6462 24.0652 37.2129V37.8851H17.1215C17.1147 38.4857 17.1809 39.085 17.3186 39.6696C17.4351 40.1764 17.6467 40.6564 17.9422 41.0843C18.2202 41.4781 18.5911 41.7972 19.0221 42.013C19.5196 42.2509 20.0664 42.3675 20.6177 42.3531C21.1911 42.3678 21.757 42.2209 22.251 41.9293C22.8074 41.5371 23.2611 41.0167 23.5738 40.412L24.3163 40.8494L24.319 40.8386ZM21.9729 37.0239C21.9715 36.6151 21.9372 36.207 21.8703 35.8036C21.8183 35.4292 21.7091 35.065 21.5464 34.7238C21.3879 34.4188 21.1571 34.1574 20.8741 33.9624C20.5481 33.7532 20.1651 33.6504 19.778 33.6682C19.4216 33.6633 19.0689 33.7407 18.7472 33.8943C18.4256 34.0478 18.1437 34.2735 17.9233 34.5537C17.432 35.1476 17.162 35.9728 17.1134 37.0293L21.9729 37.0239ZM30.2367 43.1954H25.2989V42.5502L25.8038 42.5016C25.9534 42.4917 26.1017 42.4673 26.2465 42.4287C26.4224 42.382 26.5751 42.2725 26.6758 42.121C26.7799 41.9489 26.8297 41.7494 26.8189 41.5486L26.6596 30.8578C26.6398 30.6178 26.5982 30.3802 26.5354 30.1478C26.5193 30.0658 26.4872 29.9878 26.4409 29.9183C26.4147 29.8787 26.3849 29.8416 26.3518 29.8076C26.1737 29.6564 26.395 29.8643 26.2303 29.7239C26.1197 29.6321 26.2735 29.6888 25.9604 29.624C25.6472 29.5592 25.0911 29.705 24.8805 29.6915L24.8643 28.9869L28.5467 28.7952L28.7222 28.9383L28.7357 41.4325C28.728 41.6283 28.7738 41.8224 28.868 41.9941C28.9704 42.1514 29.1224 42.2702 29.2999 42.3315C29.4429 42.3955 29.5922 42.4443 29.7454 42.4773C29.909 42.5134 30.075 42.5377 30.2421 42.5502V43.1954H30.2367ZM36.5837 43.1954H31.5542V42.5313L32.0536 42.4908C32.2059 42.4819 32.3565 42.4537 32.5018 42.4071C32.6827 42.3619 32.8393 42.2488 32.9391 42.0913C33.0419 41.9126 33.0925 41.7087 33.0849 41.5027V35.3663C33.0862 35.1588 33.0322 34.9547 32.9283 34.7751C32.825 34.5937 32.6785 34.4407 32.5018 34.3296C32.3212 34.2286 32.125 34.1583 31.9213 34.1217C31.6932 34.0685 31.4612 34.0333 31.2275 34.0164V33.3631L34.8991 33.139L35.0449 33.2794V41.3785C35.0379 41.5821 35.0865 41.7836 35.1853 41.9617C35.2921 42.1234 35.4513 42.2435 35.6361 42.3018C35.7838 42.3615 35.9353 42.4111 36.0897 42.4503C36.252 42.4889 36.4173 42.5142 36.5837 42.5259V43.1954ZM35.2555 29.2353C35.26 29.6075 35.1174 29.9665 34.8586 30.2342C34.7367 30.3718 34.5865 30.4814 34.4183 30.5555C34.2501 30.6296 34.0678 30.6664 33.884 30.6634C33.7086 30.6636 33.5351 30.6274 33.3743 30.5573C33.2136 30.4871 33.0691 30.3845 32.9499 30.2558C32.826 30.1342 32.7273 29.9893 32.6597 29.8295C32.592 29.6696 32.5567 29.4979 32.5558 29.3244C32.554 29.1452 32.588 28.9674 32.6556 28.8015C32.7233 28.6355 32.8233 28.4847 32.9499 28.3579C33.0681 28.2275 33.2123 28.1234 33.3732 28.0523C33.5341 27.9811 33.7081 27.9445 33.884 27.9448C34.066 27.9379 34.2474 27.9686 34.417 28.035C34.5866 28.1014 34.7406 28.2022 34.8694 28.3309C34.9931 28.4459 35.0921 28.585 35.1603 28.7395C35.2285 28.8941 35.2646 29.0609 35.2663 29.2299L35.2555 29.2353ZM47.7983 43.0038C47.4635 43.1172 47.1747 43.2116 46.9236 43.2737C46.6441 43.3459 46.3564 43.3813 46.0678 43.379C45.5974 43.4036 45.1319 43.2737 44.7422 43.0092C44.4015 42.7431 44.1754 42.3567 44.1105 41.9293H44.0457C43.6214 42.3868 43.1185 42.7644 42.5609 43.0443C41.9629 43.3152 41.3111 43.4463 40.6549 43.4276C39.9434 43.4564 39.2481 43.2099 38.7138 42.7392C38.4622 42.5122 38.2635 42.2329 38.1315 41.9209C37.9995 41.6088 37.9375 41.2717 37.9498 40.9331C37.9455 40.5803 38.0031 40.2294 38.1199 39.8964C38.2356 39.5912 38.4099 39.3115 38.6328 39.073C38.8341 38.8541 39.0715 38.6715 39.3347 38.5331C39.5951 38.3859 39.8658 38.2578 40.1446 38.1497C40.465 38.0363 41.1111 37.823 42.083 37.5099C42.7581 37.3126 43.4184 37.0682 44.0592 36.7782V35.774C44.0507 35.6045 44.0308 35.4359 43.9998 35.2691C43.9604 35.0186 43.8763 34.7772 43.7514 34.5564C43.6013 34.2961 43.3946 34.0729 43.1467 33.9031C42.8181 33.6993 42.4335 33.6048 42.0479 33.6331C41.7383 33.6292 41.4306 33.6832 41.1408 33.7924C40.9228 33.8593 40.7213 33.9715 40.5496 34.1217C40.56 34.3247 40.5935 34.5257 40.6495 34.7211C40.7156 34.9594 40.7501 35.2054 40.7521 35.4527C40.7469 35.5786 40.7142 35.7018 40.6564 35.8137C40.5986 35.9256 40.517 36.0236 40.4173 36.1006C40.1545 36.3115 39.8222 36.4165 39.4859 36.3949C39.3361 36.4061 39.1858 36.3791 39.0494 36.3163C38.9129 36.2535 38.7946 36.157 38.7057 36.0358C38.5394 35.7987 38.4516 35.5155 38.4546 35.2259C38.4621 34.8969 38.5844 34.5808 38.8002 34.3323C39.0536 34.0292 39.3578 33.7725 39.6992 33.5737C40.0634 33.364 40.4525 33.2007 40.8574 33.0877C41.2888 32.9605 41.7358 32.8942 42.1856 32.8907C42.7082 32.8867 43.2301 32.9264 43.746 33.0095C44.1803 33.0832 44.5921 33.2549 44.9501 33.5116C45.317 33.765 45.6037 34.1182 45.7762 34.5294C45.9826 35.0578 46.0791 35.6227 46.0597 36.1897C46.0597 37.1616 46.0597 38.0174 46.0246 38.7652C45.9895 39.513 45.9949 40.3311 45.9949 41.2193C45.9918 41.4398 46.0507 41.6569 46.165 41.8456C46.2745 42.0147 46.4262 42.1524 46.605 42.2452C46.7643 42.314 46.9364 42.348 47.1099 42.345C47.342 42.345 47.5769 42.345 47.8172 42.345V42.993L47.7983 43.0038ZM44.0889 37.6421C43.4869 37.8122 42.955 37.9769 42.5015 38.1416C42.0591 38.2977 41.6354 38.5023 41.238 38.7517C40.9041 38.9603 40.6172 39.2362 40.3957 39.5616C40.1855 39.8959 40.0784 40.2846 40.0879 40.6793C40.069 40.9077 40.1009 41.1375 40.1811 41.3522C40.2614 41.5669 40.3881 41.7612 40.5523 41.9212C40.8822 42.1901 41.2986 42.3302 41.724 42.3153C42.192 42.3235 42.6533 42.2031 43.0576 41.9671C43.4234 41.7462 43.75 41.4661 44.0241 41.1383L44.0889 37.6287V37.6421ZM60.4302 43.1954H55.3008V42.5205L55.8407 42.48C56.0061 42.4695 56.1699 42.4415 56.3294 42.3963C56.5094 42.3475 56.665 42.2341 56.7667 42.0778C56.8708 41.8977 56.9214 41.6916 56.9125 41.4838V36.3355C56.9459 35.739 56.7531 35.1519 56.3726 34.6914C56.2133 34.5081 56.0162 34.3615 55.7948 34.2618C55.5734 34.162 55.333 34.1115 55.0902 34.1136C54.7385 34.1101 54.3888 34.1668 54.0562 34.281C53.7648 34.3827 53.4872 34.5205 53.2301 34.6914C53.0177 34.8283 52.829 34.9988 52.6713 35.1962C52.5631 35.3365 52.4639 35.4835 52.3743 35.6363V41.3947C52.3645 41.5945 52.4163 41.7924 52.5228 41.9617C52.6337 42.1196 52.79 42.2401 52.9709 42.3072C53.1249 42.3757 53.2861 42.4264 53.4515 42.4584C53.6298 42.494 53.8101 42.5183 53.9914 42.5313V43.1954H48.862V42.5205L49.3668 42.48C49.5205 42.4679 49.6725 42.4398 49.8204 42.3963C50.0008 42.347 50.1572 42.2338 50.2604 42.0778C50.3636 41.8974 50.4132 41.6914 50.4035 41.4838V35.3015C50.4065 35.0801 50.3526 34.8617 50.2469 34.6671C50.1468 34.4762 50.0001 34.3137 49.8204 34.1946C49.6715 34.1083 49.509 34.048 49.3398 34.0164C49.1438 33.9776 48.9454 33.9524 48.7459 33.9409V33.2821L52.2339 33.0581L52.3824 33.1984V34.6104H52.4337C52.6038 34.4511 52.8171 34.2513 53.0708 34.0272C53.294 33.8258 53.5323 33.6416 53.7836 33.4765C54.0765 33.3 54.3915 33.1629 54.7203 33.0688C55.1183 32.9573 55.53 32.9027 55.9433 32.9069C56.9476 32.9069 57.6954 33.2092 58.1841 33.8059C58.6727 34.4025 58.9076 35.2016 58.9076 36.1951V41.4028C58.8992 41.6038 58.9448 41.8033 59.0399 41.9806C59.1409 42.1403 59.2947 42.2597 59.4745 42.318C59.6167 42.3785 59.764 42.4264 59.9146 42.4611C60.0847 42.4943 60.2571 42.515 60.4302 42.5232V43.1954ZM66.5694 43.4654C65.0494 43.4654 63.8696 42.9849 63.003 42.0238C62.1364 41.0627 61.718 39.7749 61.718 38.1578C61.7124 37.4818 61.8295 36.8104 62.0635 36.1762C62.2959 35.5645 62.636 34.9994 63.0678 34.5078C63.5047 34.013 64.0423 33.6172 64.6445 33.3469C65.2901 33.0464 65.9949 32.8942 66.707 32.9015C67.5973 32.8622 68.4765 33.1102 69.2151 33.6088C69.5243 33.8214 69.7755 34.1078 69.9462 34.442C70.1168 34.7763 70.2014 35.1477 70.1924 35.5229C70.1979 35.841 70.1096 36.1536 69.9386 36.4219C69.8445 36.5555 69.7169 36.6621 69.5685 36.7308C69.4202 36.7995 69.2564 36.828 69.0936 36.8133C68.743 36.8356 68.3967 36.7269 68.1217 36.5083C68.0151 36.4286 67.9276 36.3263 67.8655 36.2086C67.8034 36.0909 67.7682 35.9609 67.7626 35.8279C67.7649 35.5107 67.8075 35.195 67.8895 34.8885C67.9557 34.6574 68.0053 34.4219 68.038 34.1838C67.9108 33.9741 67.7062 33.8228 67.4684 33.7627C67.2047 33.6898 66.932 33.6544 66.6584 33.6574C66.3233 33.6563 65.9919 33.7272 65.6866 33.8653C65.3319 34.0448 65.0255 34.3068 64.793 34.6293C64.4951 35.043 64.278 35.5092 64.1531 36.0034C63.9782 36.6748 63.8956 37.3669 63.9074 38.0606C63.9074 39.3205 64.1999 40.3482 64.7849 41.1437C65.0401 41.5174 65.3841 41.8221 65.786 42.0303C66.1879 42.2386 66.6351 42.3439 67.0877 42.3369C67.6999 42.3586 68.3039 42.1918 68.8182 41.8591C69.3415 41.4752 69.7806 40.9882 70.1087 40.4282L70.789 40.8548C70.3404 41.6295 69.7045 42.2793 68.9397 42.7446C68.2326 43.2019 67.4113 43.4516 66.5694 43.4654ZM80.9237 40.8467C80.5064 41.6214 79.8999 42.278 79.1608 42.7554C78.4017 43.2356 77.5184 43.4824 76.6204 43.4654C75.8587 43.483 75.1021 43.3376 74.4012 43.0389C73.7968 42.7788 73.2602 42.3835 72.8327 41.8834C72.4143 41.3823 72.1012 40.802 71.9121 40.1772C71.7086 39.5087 71.6067 38.8134 71.6097 38.1146C71.6102 37.4638 71.7197 36.8178 71.9337 36.2032C72.1454 35.5812 72.4704 35.0036 72.8921 34.4997C73.3057 34.0109 73.8182 33.6152 74.3958 33.3388C75.0208 33.0368 75.7076 32.8843 76.4017 32.8934C77.0753 32.8757 77.7456 32.9942 78.3725 33.2416C78.8848 33.4438 79.3406 33.7671 79.7007 34.1838C80.0348 34.5783 80.283 35.038 80.4296 35.5337C80.593 36.0765 80.674 36.6407 80.6699 37.2075V37.8797H73.7263C73.7195 38.4803 73.7856 39.0796 73.9234 39.6642C74.0399 40.171 74.2515 40.651 74.547 41.0789C74.8253 41.4724 75.1962 41.7913 75.6269 42.0076C76.1254 42.2451 76.673 42.3617 77.2251 42.3477C77.7985 42.3624 78.3645 42.2155 78.8584 41.9239C79.4154 41.5279 79.8691 41.0038 80.1813 40.3959L80.9237 40.8332V40.8467ZM78.5749 37.032C78.5732 36.6233 78.5398 36.2153 78.4751 35.8117C78.4231 35.4373 78.3138 35.0731 78.1511 34.7319C77.9951 34.421 77.7652 34.1531 77.4816 33.9517C77.155 33.7436 76.7724 33.6409 76.3855 33.6574C76.0274 33.6533 75.6733 33.7323 75.351 33.8883C75.0287 34.0443 74.747 34.273 74.5281 34.5564C74.034 35.1503 73.7695 35.9737 73.7182 37.032H78.5749Z" fill="white"/>
<path d="M2.96968 55.8841H0V55.5871L0.36176 55.5601C0.474944 55.558 0.587412 55.5417 0.696521 55.5115C0.783035 55.4843 0.859888 55.4327 0.917898 55.363C0.969189 55.2828 0.992887 55.188 0.985391 55.093V50.7978C0.988456 50.713 0.970852 50.6287 0.934096 50.5521C0.877325 50.4704 0.792962 50.4119 0.696521 50.3875C0.581545 50.3489 0.464347 50.3174 0.345562 50.293C0.231542 50.2688 0.116135 50.2516 0 50.2417V49.9447H2.96968V50.2417C2.85487 50.246 2.74041 50.2569 2.62682 50.2741C2.50928 50.2883 2.39289 50.3108 2.27855 50.3416C2.18199 50.3625 2.09759 50.4207 2.04368 50.5035C2.00388 50.5812 1.9835 50.6674 1.98429 50.7546V55.0525C1.98254 55.1392 2.00599 55.2246 2.05178 55.2982C2.10766 55.3773 2.18699 55.4368 2.27855 55.4683C2.38317 55.499 2.48955 55.5234 2.59712 55.5412C2.72 55.5652 2.84456 55.5796 2.96968 55.5844V55.8841Z" fill="white"/>
<path d="M8.90903 55.8841H6.67637V55.6142L6.90854 55.5953C6.98058 55.592 7.05208 55.5812 7.12182 55.5629C7.19959 55.5434 7.26767 55.4964 7.3135 55.4306C7.35747 55.3574 7.37906 55.2729 7.3756 55.1876V53.0656C7.39088 52.8184 7.30847 52.5751 7.14612 52.388C7.07549 52.3113 6.98941 52.2505 6.89354 52.2095C6.79767 52.1686 6.69421 52.1485 6.58998 52.1504C6.4379 52.1481 6.28648 52.1709 6.14183 52.2179C6.01483 52.2598 5.89337 52.3169 5.78007 52.388C5.68836 52.4437 5.6063 52.5139 5.5371 52.5959C5.49048 52.6518 5.4472 52.7104 5.40751 52.7714V55.1444C5.40299 55.2277 5.42573 55.3101 5.4723 55.3793C5.52104 55.4456 5.58885 55.4955 5.66668 55.5224C5.73347 55.5507 5.80319 55.5715 5.87456 55.5845C5.95225 55.5986 6.03066 55.6086 6.10943 55.6142V55.8841H3.87677V55.6142L4.09545 55.5953C4.16209 55.5913 4.22813 55.5804 4.29253 55.5629C4.37094 55.5448 4.43949 55.4975 4.4842 55.4306C4.53037 55.3582 4.553 55.2733 4.549 55.1876V52.6445C4.55099 52.5497 4.5267 52.4563 4.47881 52.3745C4.43513 52.2943 4.37082 52.2272 4.29253 52.1801C4.22754 52.145 4.15737 52.1204 4.08465 52.1072C4 52.0906 3.91431 52.0798 3.82818 52.0748V51.8049L5.34272 51.7104L5.40751 51.7698V52.3502H5.4291L5.69907 52.1099C5.79727 52.0261 5.90199 51.9503 6.01224 51.8832C6.14036 51.8101 6.27738 51.7538 6.4199 51.7158C6.59597 51.6688 6.77763 51.6461 6.95984 51.6483C7.13911 51.6342 7.31928 51.66 7.48736 51.724C7.65543 51.7879 7.80721 51.8884 7.93173 52.0181C8.15353 52.2972 8.26584 52.6476 8.2476 53.0035V55.1498C8.2434 55.2328 8.26308 55.3152 8.3043 55.3874C8.34925 55.4545 8.41599 55.5041 8.49327 55.5278C8.55573 55.5512 8.6198 55.5701 8.68496 55.5845C8.75872 55.5999 8.83369 55.609 8.90903 55.6115V55.8814V55.8841Z" fill="white"/>
<path d="M14.6972 55.8058L13.1071 55.8976L13.0396 55.8382V55.4548H13.0018C12.8305 55.6233 12.629 55.758 12.4079 55.8517C12.1788 55.9553 11.9303 56.0086 11.6789 56.0083C11.4204 56.0075 11.1649 55.9533 10.9284 55.849C10.6905 55.7475 10.4763 55.5977 10.2994 55.4089C10.1125 55.2073 9.96594 54.9718 9.86743 54.7151C9.75777 54.4292 9.70371 54.125 9.70815 53.8188C9.70713 53.5268 9.76497 53.2376 9.87822 52.9684C9.98855 52.7066 10.148 52.4683 10.348 52.2665C10.5471 52.0737 10.7819 51.9215 11.0391 51.8183C11.3036 51.7088 11.587 51.6519 11.8733 51.651C12.0842 51.6507 12.2944 51.6752 12.4996 51.7238C12.6863 51.7647 12.8675 51.8273 13.0396 51.9101V50.4766C13.0411 50.3661 13.019 50.2566 12.9748 50.1553C12.9383 50.0656 12.8752 49.9893 12.7939 49.9366C12.6866 49.8754 12.5682 49.836 12.4456 49.8206C12.2999 49.799 12.1433 49.7801 11.9732 49.7693V49.4993L13.8333 49.4021L13.9035 49.4669V55.0283C13.9009 55.1161 13.9223 55.2029 13.9656 55.2794C14.0115 55.3513 14.0746 55.4106 14.1492 55.4521C14.2281 55.4915 14.3148 55.5127 14.4029 55.5142C14.5136 55.5142 14.6162 55.5304 14.708 55.5331V55.8031L14.6972 55.8058ZM13.0288 55.0823V52.6687C12.9989 52.5859 12.959 52.507 12.91 52.4339C12.8508 52.348 12.78 52.2707 12.6994 52.2044C12.6051 52.1295 12.4994 52.0703 12.3863 52.0289C12.2517 51.9823 12.1101 51.9594 11.9678 51.9614C11.7893 51.9594 11.6134 52.0041 11.4576 52.091C11.2942 52.1834 11.1532 52.3106 11.0445 52.4636C10.9187 52.6442 10.8272 52.8465 10.7745 53.0602C10.7053 53.3245 10.6717 53.5969 10.6746 53.8701C10.6732 54.0857 10.6986 54.3006 10.7502 54.5099C10.7979 54.7041 10.8822 54.8873 10.9986 55.0499C11.1058 55.2066 11.2481 55.3361 11.4144 55.4278C11.5973 55.5268 11.803 55.5762 12.011 55.5709C12.225 55.5781 12.4369 55.5268 12.6238 55.4224C12.7735 55.3342 12.9107 55.2261 13.0315 55.1012" fill="white"/>
<path d="M20.2478 55.8058L18.763 55.8976L18.6955 55.8382V55.3145H18.6685L18.4174 55.5412C18.3188 55.6239 18.2121 55.6962 18.0988 55.7572C17.9705 55.8267 17.8358 55.8837 17.6966 55.9273C17.5203 55.9724 17.3385 55.9924 17.1566 55.9867C16.9858 55.9986 16.8144 55.9727 16.6548 55.9106C16.4951 55.8485 16.3512 55.7519 16.2333 55.6276C16.0074 55.3304 15.8989 54.9604 15.9283 54.5882V52.6147C15.9313 52.5261 15.9098 52.4383 15.8662 52.361C15.8197 52.2881 15.7569 52.227 15.6826 52.1828C15.6178 52.1472 15.5476 52.1225 15.4747 52.1099C15.3856 52.0929 15.2954 52.0821 15.2047 52.0775V51.8075L16.722 51.7076L16.7922 51.767V54.6341C16.7829 54.7552 16.7977 54.877 16.8357 54.9924C16.8737 55.1077 16.9341 55.2144 17.0135 55.3063C17.0827 55.3798 17.1664 55.438 17.2594 55.477C17.3525 55.5161 17.4526 55.5352 17.5535 55.5331C17.7078 55.5357 17.8613 55.5111 18.007 55.4602C18.1248 55.4209 18.2365 55.3655 18.3391 55.2956C18.4177 55.2405 18.4909 55.1781 18.5578 55.1093C18.6136 55.0542 18.6625 54.9925 18.7036 54.9257V52.5877C18.7063 52.5013 18.6838 52.4159 18.6388 52.3421C18.5937 52.2691 18.5328 52.2073 18.4606 52.1612C18.3838 52.1214 18.2987 52.1001 18.2122 52.0991L17.8451 52.0802V51.8102L19.5 51.7103L19.5675 51.7697V55.0445C19.5647 55.1301 19.5872 55.2146 19.6323 55.2875C19.6794 55.3574 19.7411 55.4163 19.8131 55.4602C19.8748 55.4921 19.9414 55.5131 20.0102 55.5223C20.0885 55.5223 20.1722 55.5358 20.2802 55.5385V55.8085L20.2478 55.8058Z" fill="white"/>
<path d="M24.0463 53.8593C24.168 53.9532 24.2684 54.0719 24.3405 54.2076C24.4115 54.3576 24.4458 54.5223 24.4404 54.6881C24.443 54.8708 24.4013 55.0514 24.3191 55.2145C24.2368 55.3776 24.1164 55.5184 23.968 55.6249C23.6109 55.8806 23.1783 56.009 22.7396 55.9894C22.4898 55.9922 22.2417 55.9483 22.008 55.8598C21.8384 55.8013 21.6769 55.7215 21.5275 55.6222L21.4384 55.8922H21.0901L21.0442 54.456H21.3628C21.3981 54.5891 21.4508 54.7171 21.5194 54.8366C21.5992 54.98 21.6972 55.1125 21.8109 55.2308C21.9379 55.3561 22.0836 55.4609 22.2429 55.5413C22.42 55.625 22.6139 55.6674 22.8098 55.6654C23.051 55.68 23.2905 55.6166 23.4928 55.4846C23.5721 55.423 23.6353 55.3433 23.6771 55.2521C23.7189 55.1609 23.7381 55.061 23.7331 54.9608C23.7361 54.855 23.7099 54.7504 23.6575 54.6584C23.6007 54.5678 23.5241 54.4912 23.4334 54.4344C23.3154 54.3626 23.1895 54.3046 23.0582 54.2616C22.9097 54.2103 22.7477 54.159 22.5641 54.1104C22.3806 54.0618 22.2591 54.0159 22.0809 53.9484C21.9196 53.8879 21.7671 53.8062 21.6273 53.7055C21.4932 53.6101 21.3794 53.4889 21.2926 53.3491C21.2044 53.1958 21.1605 53.021 21.1657 52.8442C21.1646 52.6789 21.2016 52.5154 21.2736 52.3666C21.3457 52.2177 21.451 52.0874 21.5814 51.9857C21.8984 51.7396 22.2929 51.6151 22.6937 51.6348C22.8756 51.6361 23.0567 51.6578 23.2337 51.6996C23.3911 51.7323 23.5441 51.783 23.6899 51.8508L23.7952 51.6321H24.1273L24.1975 52.9576H23.8789C23.8223 52.6773 23.6741 52.4238 23.4577 52.2368C23.2407 52.0522 22.9622 51.9559 22.6775 51.9668C22.4652 51.9548 22.255 52.0147 22.0809 52.1369C22.0141 52.184 21.9595 52.2462 21.9215 52.3185C21.8834 52.3907 21.8631 52.471 21.8622 52.5527C21.8585 52.6617 21.8836 52.7697 21.9351 52.8658C21.9878 52.9541 22.0621 53.0275 22.1511 53.0791C22.2612 53.1437 22.378 53.1962 22.4993 53.2357C22.6397 53.2843 22.8125 53.341 23.0204 53.4004C23.2148 53.4581 23.4059 53.5266 23.5927 53.6056C23.7524 53.6757 23.9021 53.7665 24.0382 53.8755" fill="white"/>
<path d="M28.1714 55.7005C27.9717 55.776 27.7827 55.8381 27.6045 55.8921C27.3904 55.948 27.1697 55.9743 26.9485 55.9704C26.802 55.9857 26.654 55.9695 26.5143 55.9229C26.3747 55.8764 26.2466 55.8005 26.1386 55.7005C25.971 55.4928 25.8881 55.2296 25.9064 54.9634V52.1746H25.083V51.7724H25.9172V50.4846H26.7595V51.767H28.0769V52.1692H26.7784V54.4748C26.7773 54.6191 26.7845 54.7633 26.8 54.9067C26.8097 55.0138 26.8438 55.1173 26.8999 55.2091C26.951 55.294 27.0289 55.3595 27.1212 55.3954C27.2484 55.4411 27.3831 55.4622 27.5181 55.4575C27.5964 55.4575 27.7071 55.4575 27.8556 55.4386C27.963 55.4321 28.0696 55.4158 28.1741 55.39V55.695L28.1714 55.7005Z" fill="white"/>
<path d="M32.3398 52.2881C32.3417 52.4227 32.3021 52.5547 32.2264 52.666C32.1857 52.7213 32.1316 52.7653 32.0693 52.7941C32.007 52.8229 31.9385 52.8355 31.87 52.8307C31.7281 52.8409 31.5875 52.7975 31.4759 52.7092C31.4344 52.6773 31.4005 52.6364 31.3766 52.5898C31.3528 52.5431 31.3397 52.4917 31.3382 52.4393C31.3378 52.3831 31.3432 52.327 31.3544 52.2719C31.3544 52.2206 31.376 52.172 31.3841 52.1207C31.2044 52.1315 31.0302 52.1862 30.8765 52.28C30.6784 52.3901 30.5091 52.5455 30.3825 52.7335V55.1336C30.3777 55.2173 30.3995 55.3004 30.4446 55.3712C30.4927 55.4387 30.5621 55.4882 30.6417 55.5115C30.738 55.5433 30.8376 55.5642 30.9386 55.5736C31.0601 55.5871 31.1654 55.5979 31.2545 55.6033V55.8733H28.8518V55.6033L29.0704 55.5844C29.1371 55.5805 29.2031 55.5696 29.2675 55.552C29.3459 55.534 29.4145 55.4866 29.4592 55.4197C29.5044 55.3471 29.5261 55.2622 29.5213 55.1768V52.6444C29.5205 52.5547 29.4973 52.4665 29.4538 52.388C29.411 52.3057 29.3466 52.2366 29.2675 52.1882C29.2025 52.153 29.1324 52.1284 29.0596 52.1153C28.9706 52.0979 28.8803 52.087 28.7897 52.0829V51.8129L30.3069 51.7185L30.3717 51.7778V52.3583H30.3933C30.5717 52.1396 30.7944 51.9611 31.0466 51.8345C31.2431 51.7264 31.4623 51.6663 31.6864 51.6591C31.861 51.6516 32.0315 51.7126 32.1616 51.8291C32.2222 51.8892 32.2697 51.9614 32.3008 52.0409C32.332 52.1204 32.3462 52.2055 32.3425 52.2908" fill="white"/>
<path d="M35.1691 55.8841H32.9661V55.6141L33.1848 55.5952C33.2514 55.5913 33.3175 55.5804 33.3819 55.5628C33.4603 55.5448 33.5288 55.4975 33.5735 55.4306C33.6175 55.3574 33.6391 55.2729 33.6356 55.1876V52.6445C33.6366 52.5579 33.6132 52.4727 33.5681 52.3988C33.5218 52.3227 33.4579 52.2589 33.3819 52.2125C33.3016 52.1722 33.2163 52.1431 33.1281 52.1261C33.0275 52.1049 32.9256 52.0905 32.823 52.0829V51.813L34.4429 51.7185L34.5076 51.7779V55.1282C34.5041 55.2132 34.5247 55.2974 34.567 55.3712C34.616 55.4391 34.6863 55.4885 34.7668 55.5116C34.831 55.5368 34.8969 55.5575 34.9639 55.5736C35.035 55.5896 35.1072 55.6004 35.1799 55.606V55.876L35.1691 55.8841ZM34.5886 50.0824C34.5892 50.16 34.574 50.2369 34.5438 50.3084C34.5136 50.3799 34.4692 50.4445 34.4132 50.4982C34.3586 50.5562 34.2924 50.602 34.2189 50.6327C34.1454 50.6634 34.0662 50.6783 33.9866 50.6764C33.9107 50.6769 33.8355 50.6621 33.7654 50.6329C33.6954 50.6037 33.632 50.5606 33.5789 50.5063C33.5253 50.4566 33.4824 50.3965 33.4527 50.3297C33.423 50.2628 33.4071 50.1907 33.4062 50.1175C33.4057 50.0426 33.4208 49.9684 33.4505 49.8996C33.4803 49.8308 33.524 49.7689 33.5789 49.718C33.6318 49.6633 33.6952 49.6198 33.7652 49.5902C33.8352 49.5605 33.9105 49.5452 33.9866 49.5452C34.0658 49.5419 34.1448 49.5545 34.219 49.5823C34.2932 49.6102 34.3611 49.6526 34.4186 49.7072C34.4718 49.7541 34.5145 49.8119 34.5439 49.8766C34.5732 49.9413 34.5884 50.0114 34.5886 50.0824Z" fill="white"/>
<path d="M40.0042 54.9095C39.8191 55.2326 39.5554 55.5038 39.2375 55.6978C38.9039 55.896 38.5214 55.997 38.1334 55.9894C37.8035 55.9969 37.4756 55.9372 37.1696 55.8139C36.9094 55.7085 36.6767 55.545 36.4892 55.336C36.3084 55.1326 36.1722 54.8935 36.0897 54.6341C36.0014 54.3602 35.9568 54.0742 35.9574 53.7864C35.9584 53.5166 36.0059 53.249 36.0978 52.9954C36.1916 52.7393 36.3326 52.503 36.5135 52.2989C36.6959 52.0961 36.9184 51.9334 37.1669 51.821C37.4412 51.6958 37.74 51.6331 38.0416 51.6374C38.3333 51.6308 38.6237 51.6793 38.8974 51.7805C39.1171 51.8629 39.3141 51.9961 39.4724 52.1693C39.6165 52.3292 39.725 52.5178 39.791 52.7227C39.8617 52.9453 39.8963 53.1777 39.8936 53.4111V53.6811H36.878C36.8748 53.9284 36.9029 54.1752 36.9617 54.4154C37.0128 54.6255 37.1045 54.8236 37.2316 54.9986C37.3542 55.1632 37.5155 55.2949 37.7014 55.3819C37.9195 55.4793 38.1564 55.5273 38.3952 55.5223C38.6433 55.5285 38.8886 55.4679 39.1052 55.3468C39.3439 55.1886 39.5404 54.9745 39.6776 54.7232L40.0015 54.9014L40.0042 54.9095ZM38.9838 53.3383C38.9832 53.17 38.9688 53.002 38.9406 52.8361C38.9187 52.68 38.8712 52.5286 38.8002 52.388C38.7303 52.2611 38.6302 52.1535 38.5086 52.0748C38.3646 51.9885 38.1985 51.9462 38.0308 51.9533C37.8771 51.9497 37.7246 51.9806 37.5844 52.0436C37.4443 52.1067 37.32 52.2004 37.2208 52.3178C36.9916 52.6082 36.8687 52.9683 36.8726 53.3383H38.9838Z" fill="white"/>
<path d="M43.7676 53.8593C43.8891 53.9527 43.9887 54.0716 44.0592 54.2076C44.1302 54.3576 44.1644 54.5223 44.1591 54.6881C44.1621 54.8709 44.1207 55.0516 44.0384 55.2148C43.9561 55.378 43.8354 55.5187 43.6866 55.6249C43.3306 55.8806 42.8989 56.009 42.461 55.9894C42.2112 55.9922 41.963 55.9483 41.7294 55.8598C41.5598 55.8013 41.3983 55.7215 41.2488 55.6222L41.157 55.8922H40.8115L40.7656 54.456H41.0841C41.1183 54.5895 41.171 54.7177 41.2407 54.8366C41.3187 54.9812 41.4169 55.1139 41.5323 55.2308C41.6587 55.3567 41.8046 55.4615 41.9642 55.5413C42.1404 55.625 42.3334 55.6675 42.5285 55.6654C42.7705 55.6796 43.0107 55.6163 43.2142 55.4846C43.2934 55.423 43.3566 55.3433 43.3984 55.2521C43.4403 55.1609 43.4595 55.061 43.4545 54.9608C43.4561 54.8552 43.4301 54.7509 43.3789 54.6584C43.3213 54.5684 43.2449 54.4919 43.1548 54.4344C43.0365 54.3631 42.9106 54.3052 42.7795 54.2616C42.6311 54.2103 42.4664 54.159 42.2855 54.1104C42.1046 54.0618 41.9777 54.0159 41.8022 53.9484C41.6401 53.8879 41.4867 53.8062 41.346 53.7055C41.2126 53.61 41.0997 53.4889 41.0139 53.3491C40.9248 53.1961 40.8799 53.0213 40.8843 52.8442C40.8833 52.6789 40.9202 52.5154 40.9923 52.3666C41.0644 52.2177 41.1697 52.0874 41.3001 51.9857C41.6178 51.7392 42.0134 51.6147 42.4151 51.6348C42.5969 51.6361 42.778 51.6578 42.955 51.6996C43.1114 51.7327 43.2636 51.7834 43.4086 51.8508L43.5139 51.6321H43.8486L43.9161 52.9576H43.5976C43.5447 52.681 43.4036 52.4291 43.1953 52.2395C42.9769 52.0554 42.6978 51.9592 42.4124 51.9695C42.2001 51.9579 41.99 52.0178 41.8157 52.1396C41.7498 52.1873 41.6959 52.2497 41.6584 52.3219C41.6209 52.3941 41.6008 52.474 41.5998 52.5554C41.596 52.6644 41.6212 52.7724 41.6727 52.8685C41.7243 52.9567 41.7978 53.0302 41.8859 53.0818C41.9963 53.1459 42.113 53.1984 42.2342 53.2384C42.3746 53.287 42.5474 53.3437 42.7552 53.4031C42.9506 53.4608 43.1425 53.5293 43.3303 53.6083C43.4899 53.6784 43.6397 53.7692 43.7757 53.8782" fill="white"/>
<path d="M52.5147 54.1158L52.3743 55.8841H47.2449V55.5871L47.5661 55.5574C47.666 55.5513 47.7648 55.5332 47.8604 55.5034C47.943 55.4743 48.0134 55.4182 48.0602 55.3441C48.1058 55.2617 48.1273 55.1682 48.1223 55.0741V50.8221C48.1247 50.7353 48.1062 50.6492 48.0683 50.571C48.0228 50.4891 47.9488 50.4267 47.8604 50.3956C47.7634 50.3548 47.6632 50.3222 47.5607 50.2984C47.4573 50.2701 47.3516 50.2511 47.2449 50.2417V49.9447H50.0121V50.2417C49.8997 50.2475 49.7878 50.261 49.6773 50.2822C49.5423 50.3092 49.4424 50.3308 49.3803 50.3497C49.3342 50.3617 49.2912 50.3833 49.254 50.4131C49.2168 50.4429 49.1862 50.4801 49.1643 50.5224C49.1249 50.6069 49.1055 50.6993 49.1077 50.7924V54.7799C49.1037 54.9236 49.1137 55.0673 49.1374 55.2091C49.1532 55.3022 49.2032 55.386 49.2777 55.444C49.3728 55.5034 49.4816 55.5369 49.5936 55.5412C49.7892 55.5599 49.9857 55.568 50.1821 55.5655H50.5385C50.6627 55.5655 50.7788 55.5493 50.8922 55.5331C50.9926 55.5164 51.0918 55.4929 51.1891 55.4629C51.2632 55.4416 51.3315 55.4037 51.3889 55.3522C51.5559 55.1659 51.705 54.9643 51.8344 54.7502C51.9689 54.5494 52.0855 54.3371 52.1826 54.1158H52.5147Z" fill="white"/>
<path d="M55.2846 55.8841H53.0816V55.6142L53.3003 55.5953C53.3669 55.5913 53.433 55.5804 53.4974 55.5629C53.5758 55.5448 53.6443 55.4975 53.6891 55.4306C53.733 55.3574 53.7546 55.2729 53.7511 55.1876V52.6445C53.7521 52.5579 53.7288 52.4728 53.6837 52.3988C53.6366 52.3233 53.5729 52.2596 53.4974 52.2125C53.4172 52.1722 53.3318 52.1431 53.2436 52.1261C53.143 52.1051 53.0411 52.0907 52.9385 52.083V51.813L54.5584 51.7185L54.6232 51.7779V55.1282C54.6196 55.2132 54.6402 55.2974 54.6825 55.3712C54.7311 55.4383 54.8003 55.4876 54.8796 55.5116C54.9449 55.5364 55.0116 55.5572 55.0794 55.5737C55.1505 55.5896 55.2227 55.6004 55.2954 55.6061V55.876L55.2846 55.8841ZM54.7041 50.0825C54.702 50.2336 54.641 50.3779 54.5341 50.4847C54.4795 50.5427 54.4133 50.5886 54.3398 50.6193C54.2663 50.65 54.1871 50.6648 54.1075 50.6629C54.0316 50.6637 53.9563 50.6491 53.8862 50.6198C53.8161 50.5906 53.7527 50.5474 53.6999 50.4928C53.6457 50.4433 53.6023 50.3833 53.5721 50.3165C53.5419 50.2497 53.5257 50.1774 53.5244 50.1041C53.5242 50.0289 53.5397 49.9546 53.57 49.8858C53.6002 49.817 53.6444 49.7552 53.6999 49.7045C53.7525 49.6496 53.8159 49.6059 53.8859 49.5762C53.956 49.5465 54.0314 49.5314 54.1075 49.5317C54.1867 49.5286 54.2657 49.5412 54.3399 49.5691C54.414 49.5969 54.4819 49.6393 54.5395 49.6937C54.5922 49.7411 54.6346 49.7989 54.6638 49.8635C54.6931 49.9281 54.7087 49.9981 54.7095 50.069" fill="white"/>
<path d="M63.8777 55.8841H61.6532V55.6141L61.8692 55.5952C61.934 55.5913 61.9983 55.5804 62.0608 55.5628C62.1393 55.5447 62.2078 55.4974 62.2525 55.4305C62.2977 55.3579 62.3194 55.273 62.3146 55.1876V53.0494C62.3303 52.8043 62.251 52.5626 62.0932 52.3745C62.0249 52.2994 61.9415 52.2396 61.8484 52.1991C61.7554 52.1586 61.6548 52.1384 61.5533 52.1396C61.4096 52.1376 61.2665 52.1585 61.1294 52.2017C60.9998 52.2415 60.877 52.3007 60.765 52.3772C60.6815 52.4322 60.6061 52.4985 60.5409 52.5742C60.4906 52.631 60.4446 52.6915 60.4032 52.7551V55.1336C60.4003 55.217 60.4189 55.2997 60.4572 55.3738C60.5014 55.4429 60.5682 55.4944 60.6462 55.5196C60.72 55.543 60.7848 55.5619 60.8406 55.5763C60.9146 55.5903 60.9894 55.5993 61.0646 55.6033V55.8733H58.8806V55.6033L59.0885 55.5844C59.1497 55.5798 59.2103 55.569 59.2693 55.552C59.3478 55.5339 59.4163 55.4866 59.461 55.4197C59.5062 55.3471 59.5279 55.2622 59.5231 55.1768V53.0494C59.5388 52.8056 59.4606 52.565 59.3044 52.3772C59.2361 52.3021 59.1527 52.2423 59.0596 52.2018C58.9666 52.1614 58.866 52.1411 58.7645 52.1423C58.6208 52.1403 58.4777 52.1612 58.3406 52.2044C58.2111 52.2478 58.0877 52.3077 57.9735 52.3826C57.8889 52.4404 57.8134 52.5104 57.7494 52.5904L57.6117 52.7632V55.1282C57.6076 55.2131 57.6302 55.2971 57.6765 55.3684C57.7243 55.4363 57.7924 55.4873 57.8709 55.5142C57.9342 55.5418 58.0003 55.5626 58.068 55.5763C58.1428 55.5912 58.2186 55.6012 58.2948 55.606V55.876H56.081V55.606L56.2997 55.5871C56.3663 55.5831 56.4323 55.5723 56.4967 55.5547C56.5752 55.5366 56.6437 55.4893 56.6884 55.4224C56.7336 55.3498 56.7553 55.2649 56.7505 55.1795V52.6147C56.7522 52.5289 56.7287 52.4444 56.683 52.3718C56.635 52.2985 56.5714 52.2368 56.4967 52.1909C56.4287 52.1543 56.3561 52.1271 56.2808 52.1099C56.1922 52.0881 56.1018 52.0745 56.0108 52.0694V51.7994L57.5361 51.7049L57.6009 51.7643V52.3529H57.6333L57.9033 52.1072C58.0004 52.0224 58.1042 51.9457 58.2138 51.8777C58.3397 51.8022 58.4762 51.7458 58.6187 51.7103C58.7896 51.6649 58.9657 51.6423 59.1425 51.6428C59.413 51.6366 59.6792 51.7119 59.9065 51.8588C60.1048 51.9842 60.2639 52.1629 60.3654 52.3745C60.4761 52.2746 60.5733 52.1909 60.6597 52.118C60.7634 52.0282 60.8755 51.9486 60.9945 51.8804C61.1227 51.8018 61.2619 51.7427 61.4075 51.7049C61.5836 51.6581 61.7652 51.6354 61.9475 51.6374C62.1154 51.6286 62.2833 51.6545 62.4408 51.7135C62.5983 51.7725 62.7419 51.8633 62.8627 51.9803C63.1097 52.274 63.231 52.6533 63.2001 53.0359V55.1309C63.1959 55.2144 63.2146 55.2975 63.2541 55.3711C63.2976 55.4408 63.3647 55.4925 63.4431 55.5169C63.5119 55.5405 63.5823 55.5595 63.6537 55.5736C63.7239 55.5736 63.8022 55.5952 63.8885 55.6006V55.8706L63.8777 55.8841Z" fill="white"/>
<path d="M66.8501 55.884H64.6445V55.6141L64.8658 55.5952C64.9316 55.5914 64.9968 55.5806 65.0602 55.5628C65.1386 55.5447 65.2072 55.4974 65.2519 55.4305C65.2981 55.3581 65.3207 55.2733 65.3167 55.1875V52.6444C65.3164 52.558 65.2931 52.4732 65.2492 52.3987C65.2011 52.3232 65.1365 52.2595 65.0602 52.2124C64.9804 52.1713 64.8948 52.1422 64.8064 52.126C64.7058 52.1048 64.6039 52.0904 64.5014 52.0829V51.8129L66.1212 51.7184L66.186 51.7778V55.1281C66.1833 55.2134 66.2048 55.2976 66.2481 55.3711C66.296 55.4388 66.3655 55.4883 66.4452 55.5115C66.5103 55.5367 66.577 55.5574 66.6449 55.5736C66.7161 55.5895 66.7883 55.6003 66.8609 55.606V55.8759L66.8501 55.884ZM66.267 50.0824C66.2675 50.1597 66.2524 50.2364 66.2228 50.3078C66.1931 50.3792 66.1494 50.4439 66.0942 50.4981C66.0391 50.5562 65.9724 50.6021 65.8985 50.6327C65.8245 50.6634 65.745 50.6783 65.665 50.6763C65.5891 50.6767 65.5139 50.6618 65.4439 50.6326C65.3739 50.6034 65.3104 50.5604 65.2573 50.5062C65.2037 50.4565 65.1607 50.3964 65.131 50.3296C65.1013 50.2628 65.0855 50.1906 65.0845 50.1175C65.084 50.0425 65.0991 49.9683 65.1289 49.8995C65.1586 49.8307 65.2023 49.7689 65.2573 49.7179C65.3103 49.6634 65.3736 49.62 65.4437 49.5903C65.5137 49.5606 65.5889 49.5453 65.665 49.5451C65.7445 49.542 65.8239 49.5548 65.8985 49.5826C65.9731 49.6104 66.0415 49.6527 66.0996 49.7071C66.152 49.7546 66.1939 49.8125 66.2227 49.8771C66.2516 49.9417 66.2666 50.0116 66.267 50.0824Z" fill="white"/>
<path d="M70.4623 55.7005C70.2626 55.776 70.0736 55.8381 69.8954 55.8921C69.6804 55.9482 69.4588 55.9746 69.2367 55.9704C69.0902 55.9859 68.9422 55.9697 68.8025 55.9232C68.6628 55.8766 68.5346 55.8007 68.4268 55.7005C68.2585 55.4931 68.1746 55.2299 68.1919 54.9634V52.1746H67.382V51.7724H68.2216V50.4846H69.0639V51.767H70.3705V52.1692H69.072V54.4748C69.0709 54.6191 69.0781 54.7633 69.0936 54.9067C69.1033 55.0138 69.1374 55.1173 69.1935 55.2091C69.2443 55.2933 69.321 55.3586 69.4121 55.3954C69.5402 55.4411 69.6758 55.4621 69.8117 55.4575C69.8873 55.4575 70.0007 55.4575 70.1492 55.4386C70.2566 55.4321 70.3632 55.4158 70.4677 55.39V55.695L70.4623 55.7005Z" fill="white"/>
<path d="M75.1787 54.9095C74.9936 55.2326 74.7299 55.5038 74.412 55.6978C74.0783 55.896 73.6959 55.997 73.3078 55.9893C72.978 55.9969 72.65 55.9372 72.344 55.8139C72.0846 55.7108 71.852 55.5502 71.6637 55.3441C71.483 55.1401 71.346 54.9012 71.2614 54.6422C71.1741 54.3682 71.1303 54.0821 71.1319 53.7945C71.1319 53.522 71.1794 53.2516 71.2722 52.9954C71.3661 52.7392 71.5071 52.503 71.688 52.2988C71.8748 52.0997 72.101 51.9416 72.3521 51.8345C72.6265 51.7093 72.9253 51.6465 73.2268 51.6509C73.5177 51.644 73.8072 51.6926 74.0799 51.794C74.3008 51.8756 74.4989 52.0089 74.6577 52.1828C74.8017 52.3427 74.9103 52.5313 74.9762 52.7362C75.0456 52.959 75.0802 53.1912 75.0788 53.4246V53.6946H72.0498C72.0474 53.942 72.0765 54.1888 72.1361 54.4289C72.1873 54.639 72.279 54.8371 72.4061 55.012C72.5338 55.1768 72.7009 55.3068 72.8921 55.39C73.1099 55.4881 73.347 55.536 73.5859 55.5304C73.834 55.5363 74.0791 55.4757 74.2959 55.3549C74.5346 55.1967 74.731 54.9826 74.8682 54.7313L75.1922 54.9095H75.1787ZM74.1582 53.3382C74.1577 53.1699 74.1432 53.002 74.115 52.8361C74.0931 52.68 74.0457 52.5286 73.9746 52.3879C73.904 52.2617 73.804 52.1542 73.6831 52.0748C73.5391 51.9884 73.373 51.9462 73.2052 51.9533C73.0515 51.9493 72.8989 51.9799 72.7587 52.043C72.6184 52.1061 72.4943 52.2 72.3953 52.3177C72.1651 52.6078 72.0413 52.9679 72.0444 53.3382H74.1582Z" fill="white"/>
<path d="M80.9237 55.8058L79.3336 55.8976L79.2634 55.8382V55.4548H79.2283C79.0573 55.6237 78.8557 55.7584 78.6343 55.8517C78.4062 55.955 78.1586 56.0083 77.9081 56.0083C77.6488 56.0074 77.3924 55.9532 77.1549 55.849C76.917 55.7475 76.7028 55.5976 76.5259 55.4089C76.339 55.2073 76.1924 54.9718 76.0939 54.7151C75.9856 54.4288 75.9316 54.1249 75.9346 53.8188C75.9336 53.5268 75.9915 53.2376 76.1047 52.9684C76.2151 52.7059 76.3755 52.4675 76.5772 52.2665C76.7749 52.0732 77.0088 51.9209 77.2656 51.8183C77.5301 51.7088 77.8135 51.6519 78.0998 51.6509C78.3107 51.6507 78.5209 51.6752 78.7261 51.7238C78.9127 51.7647 79.0939 51.8272 79.2661 51.9101V50.4766C79.2675 50.3661 79.2455 50.2566 79.2013 50.1553C79.1648 50.0664 79.1028 49.9903 79.0231 49.9366C78.9146 49.8758 78.7955 49.8364 78.6721 49.8205C78.5264 49.7989 78.3698 49.78 78.1997 49.7692V49.4993L80.049 49.4048L80.1192 49.4696V55.031C80.116 55.1192 80.1385 55.2064 80.184 55.282C80.2282 55.3544 80.2905 55.414 80.3649 55.4548C80.4438 55.4942 80.5305 55.5154 80.6186 55.5169C80.7293 55.5169 80.8319 55.5331 80.9237 55.5358V55.8058ZM79.2553 55.0742V52.6606C79.2254 52.5778 79.1855 52.4989 79.1365 52.4258C79.0781 52.3392 79.0071 52.2619 78.9259 52.1963C78.8316 52.1214 78.7258 52.0622 78.6127 52.0208C78.4782 51.9742 78.3366 51.9513 78.1943 51.9533C78.0158 51.9513 77.8399 51.9959 77.684 52.0829C77.5207 52.1753 77.3797 52.3025 77.271 52.4554C77.1452 52.6361 77.0537 52.8384 77.001 53.0521C76.9318 53.3164 76.8982 53.5888 76.9011 53.862C76.8997 54.0776 76.9251 54.2925 76.9767 54.5018C77.0244 54.696 77.1087 54.8792 77.2251 55.0418C77.3322 55.1985 77.4746 55.328 77.6408 55.4197C77.8238 55.5187 78.0295 55.5681 78.2375 55.5628C78.4515 55.57 78.6633 55.5186 78.8503 55.4143C79.0002 55.32 79.1365 55.2056 79.2553 55.0742Z" fill="white"/>
</g>
<defs>
<clipPath id="clip0_17_1407">
<rect width="80.9237" height="56" fill="white"/>
</clipPath>
</defs>
</svg>
