<svg width="68" height="47" viewBox="0 0 68 47" fill="none" xmlns="http://www.w3.org/2000/svg">
<g clip-path="url(#clip0_17_1324)">
<path d="M3.02018 44.7866V46.3937C3.01467 46.4645 2.98266 46.5306 2.93054 46.5788C2.87842 46.627 2.81002 46.6538 2.73901 46.6538C2.668 46.6538 2.59962 46.627 2.5475 46.5788C2.49538 46.5306 2.46337 46.4645 2.45786 46.3937V45.9384H1.19562V46.3988C1.19473 46.4731 1.16467 46.5442 1.11193 46.5966C1.05919 46.649 0.987968 46.6786 0.913604 46.6791C0.839261 46.6791 0.76797 46.6496 0.715402 46.597C0.662834 46.5444 0.633301 46.4731 0.633301 46.3988V44.7917C0.633301 44.1274 1.20411 43.7146 1.82249 43.7146C2.44087 43.7146 3.02018 44.1223 3.02018 44.7866ZM2.45786 45.4168V44.79C2.45786 44.3517 2.13847 44.1886 1.82418 44.1886C1.5099 44.1886 1.19562 44.3585 1.19562 44.79V45.4168H2.45786Z" fill="white"/>
<path d="M5.1862 45.7022L5.40875 46.307C5.42102 46.3411 5.42635 46.3773 5.42442 46.4135C5.4225 46.4497 5.41336 46.4852 5.39753 46.5178C5.3817 46.5504 5.3595 46.5795 5.33225 46.6034C5.30501 46.6273 5.27325 46.6455 5.23886 46.657C5.20452 46.6693 5.16807 46.6747 5.13164 46.6728C5.0952 46.6709 5.05951 46.6618 5.02663 46.646C4.99375 46.6302 4.96434 46.608 4.94011 46.5807C4.91588 46.5534 4.89732 46.5216 4.8855 46.4871L4.67314 45.9112C4.6169 45.9194 4.56011 45.9234 4.50326 45.9231H4.01739V46.3733C4.0119 46.4436 3.98007 46.5093 3.92827 46.5572C3.87647 46.6051 3.8085 46.6318 3.73793 46.6318C3.66736 46.6318 3.59939 46.6051 3.54759 46.5572C3.49578 46.5093 3.46396 46.4436 3.45847 46.3733V44.0407C3.45847 43.9506 3.49427 43.8642 3.55799 43.8005C3.62171 43.7368 3.70812 43.701 3.79823 43.701H4.47777C4.62731 43.6996 4.77565 43.7278 4.91427 43.7839C5.0529 43.84 5.17909 43.9229 5.28562 44.0278C5.39214 44.1328 5.47692 44.2577 5.53507 44.3955C5.59322 44.5333 5.6236 44.6812 5.62449 44.8307C5.62344 44.9999 5.58335 45.1666 5.50732 45.3177C5.4313 45.4689 5.32141 45.6005 5.1862 45.7022ZM5.10126 44.8188C5.09991 44.6626 5.03679 44.5133 4.9257 44.4035C4.81461 44.2936 4.66457 44.2323 4.50836 44.2327H4.02248V45.4066H4.50836C4.66486 45.4071 4.81516 45.3454 4.9263 45.2353C5.03744 45.1251 5.10036 44.9753 5.10126 44.8188Z" fill="white"/>
<path d="M7.97572 43.9813C7.97572 44.057 7.94565 44.1296 7.89213 44.1831C7.8386 44.2367 7.76601 44.2667 7.69032 44.2667H7.10421V46.3784C7.10421 46.4541 7.07414 46.5267 7.02062 46.5802C6.9671 46.6337 6.8945 46.6638 6.81881 46.6638C6.74311 46.6638 6.67052 46.6337 6.617 46.5802C6.56347 46.5267 6.5334 46.4541 6.5334 46.3784V44.2667H5.9473C5.87161 44.2667 5.79901 44.2367 5.74549 44.1831C5.69197 44.1296 5.6619 44.057 5.6619 43.9813C5.6619 43.9056 5.69197 43.833 5.74549 43.7795C5.79901 43.726 5.87161 43.6959 5.9473 43.6959H7.69032C7.7278 43.6959 7.76491 43.7033 7.79953 43.7176C7.83416 43.732 7.86562 43.753 7.89213 43.7795C7.91863 43.806 7.93966 43.8375 7.954 43.8721C7.96834 43.9067 7.97572 43.9438 7.97572 43.9813Z" fill="white"/>
<path d="M8.87102 44.0051V46.3835C8.87102 46.4619 8.83988 46.537 8.78444 46.5925C8.729 46.6479 8.65382 46.6791 8.57542 46.6791C8.49703 46.6791 8.42183 46.6479 8.3664 46.5925C8.31096 46.537 8.27982 46.4619 8.27982 46.3835V44.0051C8.27982 43.9267 8.31096 43.8515 8.3664 43.7961C8.42183 43.7406 8.49703 43.7095 8.57542 43.7095C8.65382 43.7095 8.729 43.7406 8.78444 43.7961C8.83988 43.8515 8.87102 43.9267 8.87102 44.0051Z" fill="white"/>
<path d="M11.3224 45.8314C11.3224 46.4056 10.7261 46.6808 10.3031 46.6808C10.1254 46.6822 9.94965 46.6443 9.78839 46.5697C9.62713 46.4951 9.48439 46.3857 9.37046 46.2493C9.34255 46.2102 9.32588 46.1642 9.32225 46.1163C9.31863 46.0683 9.32818 46.0203 9.34988 45.9775C9.37158 45.9346 9.40459 45.8985 9.44535 45.873C9.48611 45.8476 9.53307 45.8338 9.58111 45.8331C9.62228 45.8322 9.66301 45.8416 9.69954 45.8606C9.73607 45.8797 9.7672 45.9076 9.79007 45.9418C9.85292 46.0163 9.93084 46.0766 10.0187 46.1187C10.1065 46.1609 10.2023 46.184 10.2997 46.1864C10.5053 46.1864 10.7516 46.0896 10.7516 45.8246C10.7516 45.6071 10.6055 45.4678 10.2607 45.3591L10.1315 45.3166C9.66096 45.1654 9.32969 44.9225 9.32969 44.4672C9.32969 44.0119 9.77818 43.6874 10.2912 43.6874C10.4384 43.6832 10.5848 43.7098 10.7211 43.7653C10.8574 43.8209 10.9806 43.9043 11.0829 44.0102C11.1108 44.0469 11.1281 44.0905 11.1331 44.1362C11.138 44.182 11.1304 44.2283 11.111 44.2701C11.0916 44.3118 11.0612 44.3475 11.023 44.3733C10.9848 44.399 10.9403 44.4139 10.8943 44.4162C10.8556 44.4185 10.817 44.411 10.7819 44.3943C10.7469 44.3777 10.7166 44.3525 10.6939 44.3211C10.6401 44.271 10.5767 44.2324 10.5074 44.2079C10.4381 44.1833 10.3645 44.1733 10.2912 44.1784C10.0772 44.1784 9.90559 44.2905 9.90559 44.4672C9.90559 44.6439 9.99223 44.7102 10.2691 44.807L10.4 44.8495C11.0744 45.089 11.3224 45.4169 11.3224 45.8314Z" fill="white"/>
<path d="M14.0015 44.0001V46.3937C14.0012 46.4549 13.9812 46.5144 13.9446 46.5633C13.9079 46.6123 13.8564 46.6482 13.7978 46.6657C13.7392 46.6832 13.6765 46.6814 13.6189 46.6606C13.5614 46.6398 13.5121 46.601 13.4783 46.55L12.1939 44.8512V46.3954C12.1939 46.4711 12.1639 46.5437 12.1104 46.5972C12.0568 46.6508 11.9842 46.6808 11.9085 46.6808C11.8328 46.6808 11.7602 46.6508 11.7067 46.5972C11.6532 46.5437 11.6231 46.4711 11.6231 46.3954V44.0001C11.6231 43.9244 11.6532 43.8518 11.7067 43.7982C11.7602 43.7447 11.8328 43.7146 11.9085 43.7146C11.9525 43.7146 11.9958 43.7248 12.0351 43.7446C12.0743 43.7644 12.1084 43.7931 12.1345 43.8285L13.4307 45.5426V44.0017C13.4277 43.9625 13.4328 43.9231 13.4457 43.886C13.4586 43.8488 13.4791 43.8147 13.5058 43.7859C13.5325 43.757 13.5649 43.734 13.601 43.7182C13.637 43.7025 13.6759 43.6943 13.7153 43.6943C13.7546 43.6943 13.7935 43.7025 13.8296 43.7182C13.8656 43.734 13.898 43.757 13.9247 43.7859C13.9514 43.8147 13.9719 43.8488 13.9848 43.886C13.9977 43.9231 14.0029 43.9625 13.9998 44.0017L14.0015 44.0001Z" fill="white"/>
<path d="M16.7893 44.7815V46.3887C16.7893 46.463 16.7598 46.5343 16.7072 46.5869C16.6546 46.6394 16.5833 46.669 16.509 46.669C16.4347 46.669 16.3634 46.6394 16.3108 46.5869C16.2582 46.5343 16.2287 46.463 16.2287 46.3887V45.9266H14.9648V46.3887C14.9592 46.4594 14.9272 46.5256 14.8751 46.5738C14.823 46.622 14.7546 46.6488 14.6836 46.6488C14.6126 46.6488 14.5442 46.622 14.4921 46.5738C14.44 46.5256 14.4079 46.4594 14.4024 46.3887V44.7815C14.4024 44.1173 14.9732 43.7045 15.5916 43.7045C16.21 43.7045 16.7893 44.1173 16.7893 44.7815ZM16.2287 45.4118V44.7849C16.2287 44.3466 15.9093 44.1835 15.595 44.1835C15.2807 44.1835 14.9648 44.3534 14.9648 44.7849V45.4118H16.2287Z" fill="white"/>
<path d="M19.1864 46.3869C19.1859 46.4623 19.1557 46.5345 19.1022 46.5876C19.0487 46.6408 18.9764 46.6706 18.901 46.6706H17.4026C17.3272 46.6702 17.255 46.6399 17.2019 46.5864C17.1487 46.533 17.1189 46.4606 17.1189 46.3852V43.9933C17.1244 43.9216 17.1568 43.8547 17.2096 43.8058C17.2623 43.757 17.3316 43.7299 17.4035 43.7299C17.4753 43.7299 17.5446 43.757 17.5973 43.8058C17.6501 43.8547 17.6825 43.9216 17.688 43.9933V46.1083H18.901C18.9755 46.1083 19.0471 46.1374 19.1004 46.1895C19.1538 46.2416 19.1846 46.3124 19.1864 46.3869Z" fill="white"/>
<path d="M21.7907 45.1892C21.7848 45.3082 21.8024 45.4272 21.8427 45.5393C21.8829 45.6515 21.9449 45.7545 22.0251 45.8426C22.1053 45.9307 22.2021 46.0021 22.31 46.0527C22.4179 46.1032 22.5347 46.1319 22.6537 46.1371C22.7881 46.1319 22.9187 46.0915 23.0326 46.0199C23.0783 45.9893 23.1322 45.9734 23.1872 45.9741C23.2629 45.9741 23.3355 46.0041 23.389 46.0576C23.4425 46.1112 23.4726 46.1838 23.4726 46.2595C23.4717 46.3074 23.459 46.3543 23.4356 46.3961C23.4121 46.4379 23.3788 46.4732 23.3384 46.499C23.1269 46.6223 22.8866 46.6874 22.6418 46.6876C22.2534 46.6745 21.8852 46.511 21.6151 46.2316C21.3449 45.9521 21.1939 45.5787 21.1939 45.19C21.1939 44.8014 21.3449 44.4279 21.6151 44.1485C21.8852 43.8691 22.2534 43.7056 22.6418 43.6925C22.8864 43.6943 23.1263 43.7593 23.3384 43.8811C23.3788 43.9068 23.4121 43.9422 23.4356 43.984C23.459 44.0258 23.4717 44.0727 23.4726 44.1206C23.473 44.1584 23.466 44.1958 23.4518 44.2309C23.4377 44.2659 23.4167 44.2978 23.3902 44.3246C23.3636 44.3515 23.332 44.3728 23.2972 44.3874C23.2623 44.4019 23.2249 44.4094 23.1872 44.4094C23.1331 44.4096 23.0802 44.3929 23.036 44.3618C22.9204 44.2915 22.7889 44.2512 22.6537 44.2446C22.4146 44.257 22.1899 44.363 22.0284 44.5398C21.8669 44.7166 21.7815 44.9499 21.7907 45.1892Z" fill="white"/>
<path d="M26.6341 45.1789C26.6271 45.4666 26.5354 45.7458 26.3705 45.9816C26.2055 46.2174 25.9747 46.3993 25.7069 46.5046C25.4391 46.6098 25.1462 46.6338 24.8648 46.5734C24.5835 46.513 24.3262 46.3709 24.1252 46.165C23.9242 45.9591 23.7884 45.6985 23.7348 45.4157C23.6812 45.133 23.7121 44.8408 23.8238 44.5756C23.9355 44.3104 24.1229 44.084 24.3626 43.9248C24.6023 43.7656 24.8837 43.6806 25.1714 43.6805C25.5635 43.6872 25.937 43.8484 26.2109 44.129C26.4848 44.4095 26.6369 44.7868 26.6341 45.1789ZM26.026 45.1789C26.026 44.6132 25.6369 44.231 25.1765 44.231C24.7161 44.231 24.3271 44.6132 24.3271 45.1789C24.3271 45.7446 24.7297 46.1269 25.1765 46.1269C25.6233 46.1269 26.026 45.7446 26.026 45.1789Z" fill="white"/>
<path d="M29.0788 43.9542C29.0788 44.022 29.052 44.0869 29.0042 44.135C28.9565 44.1831 28.8917 44.2103 28.8239 44.2107H27.6721V45.4135H28.5963C28.6588 45.4207 28.7165 45.4507 28.7583 45.4977C28.8002 45.5447 28.8233 45.6054 28.8233 45.6683C28.8233 45.7313 28.8002 45.792 28.7583 45.839C28.7165 45.886 28.6588 45.9159 28.5963 45.9232H27.6721V46.3768C27.6726 46.454 27.6425 46.5282 27.5883 46.5833C27.5342 46.6384 27.4605 46.6698 27.3833 46.6707C27.3051 46.6707 27.2299 46.6398 27.1743 46.5848C27.1186 46.5298 27.0869 46.455 27.086 46.3768V44.0256C27.0846 43.9834 27.0919 43.9414 27.1073 43.9021C27.1227 43.8628 27.1461 43.8271 27.1758 43.7972C27.2056 43.7673 27.2412 43.7438 27.2804 43.7281C27.3195 43.7125 27.3615 43.705 27.4037 43.7062H28.8307C28.896 43.7079 28.9581 43.7346 29.0042 43.7807C29.0504 43.8269 29.0771 43.889 29.0788 43.9542Z" fill="white"/>
<path d="M31.452 43.9541C31.4516 44.022 31.4244 44.087 31.3764 44.135C31.3284 44.183 31.2634 44.2102 31.1955 44.2107H30.0386V45.4134H30.9611C31.0236 45.4207 31.0813 45.4506 31.1231 45.4976C31.165 45.5446 31.1881 45.6053 31.1881 45.6683C31.1881 45.7312 31.165 45.7919 31.1231 45.8389C31.0813 45.8859 31.0236 45.9159 30.9611 45.9231H30.0386V46.3767C30.0386 46.4541 30.0081 46.5283 29.9537 46.5833C29.8993 46.6383 29.8255 46.6697 29.7481 46.6706C29.6698 46.6706 29.5947 46.6397 29.5391 46.5847C29.4834 46.5297 29.4517 46.455 29.4508 46.3767V44.0255C29.4494 43.9832 29.4567 43.941 29.4722 43.9016C29.4878 43.8622 29.5112 43.8264 29.5412 43.7965C29.5711 43.7665 29.6069 43.7431 29.6463 43.7275C29.6857 43.712 29.7279 43.7047 29.7702 43.7061H31.1955C31.2621 43.7061 31.3261 43.7319 31.374 43.7782C31.4218 43.8245 31.4498 43.8876 31.452 43.9541Z" fill="white"/>
<path d="M32.417 43.9966V46.3665C32.417 46.4449 32.3859 46.5201 32.3304 46.5756C32.275 46.631 32.1998 46.6621 32.1214 46.6621C32.043 46.6621 31.9678 46.631 31.9124 46.5756C31.857 46.5201 31.8258 46.4449 31.8258 46.3665V43.9966C31.8258 43.9182 31.857 43.8431 31.9124 43.7876C31.9678 43.7322 32.043 43.701 32.1214 43.701C32.1998 43.701 32.275 43.7322 32.3304 43.7876C32.3859 43.8431 32.417 43.9182 32.417 43.9966Z" fill="white"/>
<path d="M34.9058 46.4158C34.9058 46.4837 34.8791 46.5489 34.8314 46.5972C34.7837 46.6456 34.7189 46.6732 34.651 46.6741H33.1781C33.1355 46.6753 33.0932 46.6677 33.0537 46.6519C33.0142 46.636 32.9783 46.6122 32.9484 46.582C32.9184 46.5517 32.895 46.5156 32.8796 46.4759C32.8642 46.4362 32.8571 46.3938 32.8587 46.3513V44.029C32.8571 43.9864 32.8642 43.944 32.8796 43.9043C32.895 43.8646 32.9184 43.8285 32.9484 43.7983C32.9783 43.768 33.0142 43.7442 33.0537 43.7284C33.0932 43.7125 33.1355 43.705 33.1781 43.7062H34.6085C34.6761 43.7062 34.7409 43.733 34.7887 43.7808C34.8365 43.8286 34.8634 43.8934 34.8634 43.961C34.8634 44.0286 34.8365 44.0934 34.7887 44.1412C34.7409 44.189 34.6761 44.2158 34.6085 44.2158H33.4482V45.0143H34.2637C34.3307 45.0138 34.3952 45.0398 34.4432 45.0865C34.4912 45.1333 34.5188 45.197 34.5202 45.264C34.5202 45.3322 34.4932 45.3976 34.4452 45.446C34.3971 45.4944 34.3319 45.5218 34.2637 45.5222H33.4482V46.1661H34.6374C34.6715 46.1645 34.7056 46.1697 34.7377 46.1815C34.7697 46.1933 34.7991 46.2113 34.8241 46.2345C34.8491 46.2578 34.8692 46.2858 34.8833 46.3169C34.8973 46.3481 34.905 46.3817 34.9058 46.4158Z" fill="white"/>
<path d="M37.3556 45.8314C37.3556 46.4056 36.761 46.6808 36.3362 46.6808C36.1589 46.682 35.9834 46.6439 35.8224 46.5693C35.6615 46.4947 35.519 46.3854 35.4053 46.2493C35.3724 46.2057 35.3546 46.1527 35.3543 46.0981C35.3547 46.0285 35.3823 45.9619 35.4312 45.9124C35.4801 45.8629 35.5464 45.8344 35.6159 45.8331C35.6571 45.8321 35.6978 45.8416 35.7344 45.8606C35.7709 45.8796 35.802 45.9076 35.8249 45.9418C35.8873 46.0168 35.9651 46.0774 36.0531 46.1196C36.141 46.1618 36.237 46.1846 36.3345 46.1864C36.5401 46.1864 36.7881 46.0896 36.7881 45.8246C36.7881 45.6071 36.642 45.4678 36.2972 45.3591L36.1681 45.3166C35.6975 45.1654 35.3662 44.9225 35.3662 44.4672C35.3662 44.0119 35.8147 43.6874 36.3261 43.6874C36.4734 43.6833 36.6201 43.7098 36.7567 43.7654C36.8932 43.821 37.0168 43.9044 37.1194 44.0102C37.1569 44.0586 37.1751 44.1191 37.1704 44.1801C37.1699 44.2314 37.1535 44.2812 37.1233 44.3227C37.0932 44.3642 37.0508 44.3952 37.0022 44.4115C36.9536 44.4277 36.9011 44.4284 36.8521 44.4135C36.803 44.3985 36.7599 44.3686 36.7287 44.3279C36.6751 44.2775 36.6117 44.2388 36.5424 44.2142C36.4731 44.1896 36.3994 44.1797 36.3261 44.1852C36.112 44.1852 35.9404 44.2973 35.9404 44.474C35.9404 44.6507 36.0288 44.7169 36.3057 44.8138L36.4365 44.8562C37.1126 45.089 37.3556 45.4169 37.3556 45.8314Z" fill="white"/>
<path d="M41.7437 44.7866V46.3937C41.7381 46.4645 41.7061 46.5306 41.654 46.5788C41.6019 46.627 41.5335 46.6538 41.4625 46.6538C41.3915 46.6538 41.3231 46.627 41.271 46.5788C41.2189 46.5306 41.1868 46.4645 41.1813 46.3937V45.9384H39.9191V46.3988C39.9182 46.4731 39.8882 46.5442 39.8354 46.5966C39.7827 46.649 39.7114 46.6786 39.6371 46.6791C39.5627 46.6791 39.4914 46.6496 39.4389 46.597C39.3863 46.5444 39.3568 46.4731 39.3568 46.3988V44.7917C39.3568 44.1274 39.9276 43.7146 40.546 43.7146C41.1644 43.7146 41.7437 44.1223 41.7437 44.7866ZM41.1813 45.4168V44.79C41.1813 44.3517 40.8619 44.1886 40.5477 44.1886C40.2334 44.1886 39.9191 44.3585 39.9191 44.79V45.4168H41.1813Z" fill="white"/>
<path d="M44.5655 43.9932V46.3886C44.566 46.4502 44.5465 46.5104 44.5098 46.5599C44.4731 46.6095 44.4213 46.6458 44.3622 46.6632C44.303 46.6807 44.2398 46.6784 44.1821 46.6568C44.1243 46.6351 44.0752 46.5952 44.0422 46.5432L42.7579 44.8443V46.3886C42.7579 46.4643 42.7278 46.5368 42.6743 46.5904C42.6208 46.6439 42.5482 46.674 42.4725 46.674C42.3968 46.674 42.3242 46.6439 42.2707 46.5904C42.2171 46.5368 42.1871 46.4643 42.1871 46.3886V43.9932C42.1875 43.9178 42.2178 43.8456 42.2713 43.7925C42.3247 43.7393 42.3971 43.7095 42.4725 43.7095C42.5165 43.7091 42.5599 43.7193 42.5992 43.7391C42.6385 43.7589 42.6725 43.7877 42.6984 43.8233L43.9946 45.5374V43.9949C44.0002 43.9232 44.0326 43.8563 44.0853 43.8074C44.1381 43.7586 44.2073 43.7315 44.2792 43.7315C44.3511 43.7315 44.4203 43.7586 44.4731 43.8074C44.5258 43.8563 44.5582 43.9232 44.5638 43.9949L44.5655 43.9932Z" fill="white"/>
<path d="M47.4959 45.174C47.496 45.5677 47.3412 45.9457 47.065 46.2264C46.7888 46.507 46.4134 46.6678 46.0196 46.6741H45.3265C45.284 46.6753 45.2416 46.6677 45.2021 46.6519C45.1626 46.636 45.1267 46.6122 45.0968 46.582C45.0669 46.5517 45.0434 46.5156 45.028 46.4759C45.0126 46.4362 45.0055 46.3938 45.0071 46.3513V44.029C45.0055 43.9864 45.0126 43.944 45.028 43.9043C45.0434 43.8646 45.0669 43.8285 45.0968 43.7983C45.1267 43.768 45.1626 43.7442 45.2021 43.7284C45.2416 43.7125 45.284 43.705 45.3265 43.7062H46.0196C46.4084 43.7105 46.7801 43.8663 47.0557 44.1404C47.3314 44.4145 47.4893 44.7853 47.4959 45.174ZM46.9132 45.174C46.9132 44.6354 46.5514 44.1988 46.0196 44.1988H45.5864V46.1831H46.0196C46.5514 46.1831 46.9132 45.7465 46.9132 45.174Z" fill="white"/>
<path d="M51.9809 45.174C51.9814 45.5679 51.8267 45.9461 51.5504 46.2269C51.2741 46.5076 50.8984 46.6683 50.5046 46.6741H49.8131C49.7706 46.6753 49.7283 46.6677 49.6887 46.6519C49.6492 46.636 49.6134 46.6122 49.5834 46.582C49.5535 46.5517 49.5301 46.5156 49.5147 46.4759C49.4992 46.4362 49.4921 46.3938 49.4938 46.3513V44.029C49.4921 43.9864 49.4992 43.944 49.5147 43.9043C49.5301 43.8646 49.5535 43.8285 49.5834 43.7983C49.6134 43.768 49.6492 43.7442 49.6887 43.7284C49.7283 43.7125 49.7706 43.705 49.8131 43.7062H50.5046C50.8934 43.7101 51.2654 43.8658 51.5411 44.1399C51.8169 44.4141 51.9747 44.7852 51.9809 45.174ZM51.3982 45.174C51.3982 44.6354 51.038 44.1988 50.5046 44.1988H50.0731V46.1831H50.5046C51.038 46.1831 51.3982 45.7465 51.3982 45.174Z" fill="white"/>
<path d="M54.1452 45.7022L54.3678 46.307C54.3801 46.3411 54.3854 46.3773 54.3835 46.4135C54.3815 46.4497 54.3724 46.4852 54.3566 46.5178C54.3407 46.5504 54.3185 46.5795 54.2913 46.6034C54.264 46.6273 54.2323 46.6455 54.1979 46.657C54.1636 46.6693 54.1271 46.6747 54.0907 46.6728C54.0542 46.6709 54.0185 46.6618 53.9857 46.646C53.9528 46.6302 53.9234 46.608 53.8991 46.5807C53.8749 46.5534 53.8564 46.5216 53.8445 46.4871L53.6322 45.9112C53.5759 45.9194 53.5192 45.9234 53.4623 45.9231H52.9849V46.3733C52.9794 46.4436 52.9476 46.5093 52.8958 46.5572C52.844 46.6051 52.776 46.6318 52.7055 46.6318C52.6349 46.6318 52.5669 46.6051 52.5151 46.5572C52.4633 46.5093 52.4315 46.4436 52.426 46.3733V44.0407C52.426 43.9506 52.4618 43.8642 52.5255 43.8005C52.5892 43.7368 52.6757 43.701 52.7658 43.701H53.4453C53.5948 43.6996 53.7432 43.7278 53.8818 43.7839C54.0204 43.84 54.1466 43.9229 54.2531 44.0278C54.3597 44.1328 54.4444 44.2577 54.5026 44.3955C54.5608 44.5333 54.5911 44.6812 54.592 44.8307C54.59 45.0006 54.5486 45.1678 54.4711 45.319C54.3935 45.4702 54.282 45.6014 54.1452 45.7022ZM54.0603 44.8188C54.0589 44.6626 53.9958 44.5133 53.8847 44.4035C53.7736 44.2936 53.6236 44.2323 53.4674 44.2327H52.9849V45.4066H53.4708C53.6267 45.4062 53.7761 45.3441 53.8865 45.2341C53.9969 45.124 54.0594 44.9747 54.0603 44.8188Z" fill="white"/>
<path d="M55.6351 44.0051V46.3834C55.6294 46.4582 55.5958 46.528 55.5408 46.579C55.4858 46.63 55.4136 46.6583 55.3387 46.6583C55.2637 46.6583 55.1915 46.63 55.1365 46.579C55.0816 46.528 55.0479 46.4582 55.0422 46.3834V44.0051C55.0479 43.9303 55.0816 43.8605 55.1365 43.8095C55.1915 43.7585 55.2637 43.7302 55.3387 43.7302C55.4136 43.7302 55.4858 43.7585 55.5408 43.8095C55.5958 43.8605 55.6294 43.9303 55.6351 44.0051Z" fill="white"/>
<path d="M58.4552 43.9932V46.3886C58.4558 46.4502 58.4362 46.5104 58.3995 46.5599C58.3628 46.6095 58.311 46.6457 58.2519 46.6632C58.1928 46.6807 58.1295 46.6784 58.0718 46.6568C58.0141 46.6351 57.965 46.5952 57.932 46.5431L56.6459 44.8443V46.3886C56.649 46.4278 56.6438 46.4672 56.6309 46.5043C56.618 46.5415 56.5975 46.5756 56.5708 46.6044C56.5441 46.6333 56.5117 46.6563 56.4757 46.6721C56.4396 46.6878 56.4007 46.696 56.3614 46.696C56.322 46.696 56.2831 46.6878 56.2471 46.6721C56.211 46.6563 56.1786 46.6333 56.1519 46.6044C56.1252 46.5756 56.1047 46.5415 56.0918 46.5043C56.0789 46.4672 56.0738 46.4278 56.0768 46.3886V43.9932C56.0772 43.9339 56.0961 43.8763 56.1308 43.8283C56.1656 43.7803 56.2146 43.7444 56.2708 43.7257C56.327 43.707 56.3877 43.7063 56.4443 43.7238C56.5009 43.7413 56.5506 43.7761 56.5865 43.8233L57.8827 45.5374V43.9949C57.8827 43.9192 57.9127 43.8466 57.9663 43.7931C58.0198 43.7395 58.0924 43.7095 58.1681 43.7095C58.2438 43.7095 58.3164 43.7395 58.3699 43.7931C58.4234 43.8466 58.4535 43.9192 58.4535 43.9949L58.4552 43.9932Z" fill="white"/>
<path d="M61.2702 44.1801L60.4021 44.987L61.2141 46.2357C61.2341 46.2665 61.2478 46.3009 61.2545 46.337C61.2611 46.3731 61.2606 46.4101 61.253 46.446C61.2453 46.4819 61.2307 46.5159 61.2099 46.5461C61.1891 46.5764 61.1625 46.6022 61.1317 46.6222C61.1009 46.6421 61.0665 46.6559 61.0304 46.6625C60.9944 46.6692 60.9573 46.6687 60.9214 46.661C60.8855 46.6534 60.8515 46.6387 60.8213 46.6179C60.7911 46.5971 60.7652 46.5706 60.7453 46.5398L59.9876 45.3727L59.4558 45.867V46.3886C59.4503 46.4589 59.4185 46.5246 59.3667 46.5726C59.3149 46.6205 59.2469 46.6471 59.1764 46.6471C59.1058 46.6471 59.0378 46.6205 58.986 46.5726C58.9342 46.5246 58.9024 46.4589 58.8969 46.3886V43.9881C58.9024 43.9178 58.9342 43.8521 58.986 43.8041C59.0378 43.7562 59.1058 43.7296 59.1764 43.7296C59.2469 43.7296 59.3149 43.7562 59.3667 43.8041C59.4185 43.8521 59.4503 43.9178 59.4558 43.9881V45.106L60.8608 43.7995C60.8855 43.7724 60.9154 43.7505 60.9487 43.735C60.9819 43.7196 61.018 43.7109 61.0546 43.7094C61.0913 43.708 61.1279 43.7139 61.1623 43.7267C61.1967 43.7396 61.2282 43.7591 61.2549 43.7843C61.3094 43.8348 61.3416 43.9048 61.3444 43.979C61.3473 44.0532 61.3206 44.1255 61.2702 44.1801Z" fill="white"/>
<path d="M63.8252 45.8314C63.8252 46.4056 63.229 46.6808 62.8059 46.6808C62.6285 46.6822 62.453 46.6442 62.292 46.5696C62.131 46.495 61.9886 46.3856 61.875 46.2493C61.8421 46.2057 61.8242 46.1527 61.824 46.0981C61.824 46.0287 61.8512 45.962 61.8998 45.9125C61.9484 45.8629 62.0145 45.8344 62.0839 45.8331C62.1254 45.832 62.1664 45.8414 62.2032 45.8604C62.24 45.8794 62.2715 45.9074 62.2946 45.9418C62.357 46.0168 62.4348 46.0774 62.5228 46.1196C62.6107 46.1618 62.7067 46.1846 62.8042 46.1864C63.0098 46.1864 63.2578 46.0896 63.2578 45.8246C63.2578 45.6071 63.11 45.4678 62.7669 45.3591L62.6361 45.3166C62.1672 45.1654 61.8359 44.9225 61.8359 44.4672C61.8359 44.0119 62.2844 43.6874 62.7957 43.6874C62.9431 43.6833 63.0898 43.7098 63.2264 43.7654C63.3629 43.821 63.4865 43.9044 63.5891 44.0102C63.6261 44.0587 63.6437 44.1193 63.6384 44.1801C63.6393 44.2118 63.6338 44.2434 63.6222 44.2729C63.6107 44.3025 63.5933 44.3294 63.5711 44.3521C63.5489 44.3748 63.5223 44.3927 63.493 44.4049C63.4637 44.4171 63.4323 44.4233 63.4005 44.423C63.3615 44.4256 63.3225 44.4182 63.2872 44.4015C63.2518 44.3849 63.2213 44.3596 63.1984 44.3279C63.1446 44.2777 63.0812 44.2392 63.0119 44.2146C62.9426 44.1901 62.8691 44.1801 62.7957 44.1852C62.5817 44.1852 62.4101 44.2973 62.4101 44.474C62.4101 44.6507 62.4984 44.7169 62.7754 44.8138L62.9045 44.8562C63.5772 45.089 63.8252 45.4169 63.8252 45.8314Z" fill="white"/>
<path d="M1.40291 21.205C2.05234 21.3228 2.70806 21.4027 3.36677 21.4445C4.92291 21.5634 7.36585 21.5634 9.37728 20.7972C11.3174 20.0786 12.9211 18.7144 13.4953 16.3921C13.9506 14.6202 13.1844 13.0879 11.4567 12.0822C11.2895 11.9718 11.1133 11.8758 10.93 11.7951C11.7059 11.0357 12.2109 10.0425 12.3672 8.96818C12.583 7.24555 11.72 5.95273 9.92432 5.21034C7.91288 4.37111 4.14824 4.46794 2.4494 4.56308C2.21138 4.58487 1.98898 4.691 1.82233 4.86233C1.65567 5.03366 1.55572 5.25891 1.54051 5.49744C1.39611 8.53837 0.917039 18.7145 0.821903 20.5101C0.816392 20.6771 0.872594 20.8403 0.97977 20.9685C1.08695 21.0966 1.23758 21.1808 1.40291 21.205ZM5.2338 8.25127C5.49882 8.27505 5.78592 8.27505 6.04924 8.29883C6.76015 8.33083 7.46597 8.43499 8.15581 8.60972C8.20037 8.62489 8.24085 8.65009 8.27413 8.68338C8.30742 8.71666 8.33261 8.75713 8.34778 8.80169C8.36022 8.85174 8.36022 8.90406 8.34778 8.95411C8.33535 9.00415 8.31085 9.0504 8.27643 9.0888C8.25095 9.11258 8.20338 9.13636 8.1796 9.18393C7.79624 9.52598 7.36957 9.81614 6.91056 10.0469C6.32225 10.3368 5.71426 10.5849 5.0911 10.7893L5.2338 8.25127ZM4.89403 14.9073C5.8188 14.745 6.76176 14.7129 7.69542 14.8122C8.33687 14.8764 8.96169 15.0548 9.54038 15.3388C9.62333 15.391 9.68562 15.4703 9.71661 15.5632C9.74759 15.6562 9.74535 15.757 9.71026 15.8485C9.27875 16.8542 8.24925 17.2602 7.21975 17.4998C6.41004 17.6704 5.58382 17.7502 4.75642 17.7376L4.89403 14.9073Z" fill="white"/>
<path d="M15.0276 21.0367C15.9474 21.3922 16.9604 21.4263 17.9021 21.1336C18.0397 21.0974 18.1615 21.0166 18.2482 20.9037C18.3349 20.7909 18.3817 20.6524 18.3811 20.5101C18.4049 19.9597 18.4525 18.9064 18.5238 17.6374C18.7634 17.5167 19.3138 17.2296 20.0324 16.7981C21.8281 16.8474 23.1702 17.6849 24.5106 18.497C26.4982 19.7422 28.4621 21.0113 31.1361 21.2508C32.6832 21.3538 34.2357 21.1589 35.7093 20.6766C35.8634 20.6361 36.0154 20.5879 36.1646 20.5322C36.2979 20.4922 36.4144 20.4099 36.4966 20.2977C36.5788 20.1855 36.6221 20.0495 36.6199 19.9104C36.6675 18.6651 36.2598 17.7019 35.3747 17.0852C35.2901 17.0223 35.1916 16.9807 35.0875 16.9638C34.9834 16.947 34.8768 16.9554 34.7767 16.9884C34.5497 17.0681 34.3176 17.1323 34.0818 17.1804C32.5019 17.6119 31.2091 17.5388 30.0828 17.1804C28.4553 16.6537 27.1132 15.6242 25.6777 14.785C25.1364 14.4577 24.5765 14.1622 24.0009 13.8999C24.3306 13.5738 24.6425 13.2301 24.9353 12.8704C26.1805 11.3414 26.6103 9.66127 26.0123 8.10513C25.4381 6.64412 23.9533 5.59084 21.9657 5.08798C20.5522 4.72953 18.8534 4.63269 17.3686 4.63269C17.1529 4.63269 16.7214 4.63269 16.2898 4.65648C16.0238 4.66576 15.7708 4.77401 15.5804 4.96003C15.39 5.14605 15.2758 5.39645 15.2603 5.6622C15.2603 5.951 14.6624 18.8571 14.591 20.3657C14.591 20.5078 14.6322 20.6469 14.7097 20.766C14.7873 20.8851 14.8977 20.9792 15.0276 21.0367ZM18.9553 8.46529H19.0997C19.9068 8.51333 20.7053 8.65762 21.4781 8.8951C21.9334 9.0395 22.3632 9.13463 22.4838 9.4693C22.579 9.73262 22.3632 9.94838 22.1967 10.2117C21.7939 10.7751 21.3095 11.2755 20.7595 11.6965C20.1241 12.23 19.452 12.7182 18.7481 13.1575L18.9553 8.46529Z" fill="white"/>
<path d="M14.8085 23.1178C13.9203 22.9168 13.0024 22.884 12.1022 23.0209C11.9833 23.0376 11.8712 23.0867 11.7783 23.1628C11.6854 23.2389 11.6153 23.3391 11.5756 23.4525L7.91285 30.7796L5.03841 23.5714C4.99616 23.4604 4.92777 23.3612 4.83906 23.2822C4.75034 23.2033 4.6439 23.1469 4.52876 23.1178C3.6498 22.9171 2.74083 22.8842 1.84968 23.0209C1.69066 23.0386 1.54381 23.1145 1.43746 23.234C1.33111 23.3535 1.27279 23.5082 1.27376 23.6682C1.15485 26.1349 0.723341 36.4792 0.628205 38.7523C0.627967 38.8938 0.668548 39.0323 0.745084 39.1514C0.82162 39.2704 0.930859 39.3648 1.05971 39.4233C1.97897 39.779 2.99168 39.8125 3.93246 39.5184C4.07012 39.4829 4.192 39.4024 4.27877 39.2898C4.36555 39.1772 4.41227 39.0388 4.41154 38.8967C4.4591 37.9385 4.55424 35.5448 4.67486 32.9337C5.15393 34.1552 5.58374 35.1847 5.79949 35.713C5.84565 35.8527 5.92397 35.9796 6.02813 36.0834C6.1323 36.1873 6.25939 36.2652 6.39919 36.311C7.21053 36.6268 8.10455 36.6603 8.93725 36.4061C9.07766 36.3729 9.20869 36.3082 9.32051 36.217C9.43232 36.1257 9.52201 36.0104 9.58282 35.8795L11.139 32.791C11.02 35.4242 10.9249 37.7958 10.8756 38.7523C10.8754 38.8969 10.9187 39.0382 10.9999 39.1579C11.0811 39.2776 11.1964 39.3701 11.3309 39.4233C12.2415 39.7835 13.1997 39.7835 14.2054 39.5184C14.3382 39.4747 14.4547 39.392 14.5398 39.2811C14.625 39.1702 14.6748 39.0362 14.6827 38.8967C14.7796 36.5743 15.2111 26.2776 15.3062 23.8109C15.32 23.6549 15.2773 23.4992 15.186 23.372C15.0946 23.2448 14.9607 23.1546 14.8085 23.1178Z" fill="white"/>
<path d="M20.221 23.1179C19.3328 22.9175 18.415 22.8846 17.5147 23.0211C17.356 23.0391 17.2096 23.1152 17.1036 23.2346C16.9976 23.3541 16.9395 23.5086 16.9405 23.6683C16.8199 26.135 16.3884 36.4793 16.2933 38.7524C16.293 38.8939 16.3336 39.0324 16.4102 39.1515C16.4867 39.2705 16.5959 39.3649 16.7248 39.4234C17.644 39.7791 18.6567 39.8127 19.5975 39.5185C19.7352 39.483 19.8571 39.4025 19.9438 39.2899C20.0306 39.1773 20.0773 39.0389 20.0766 38.8968C20.1955 36.5744 20.627 26.2777 20.7239 23.811C20.7323 23.6553 20.6869 23.5015 20.5953 23.3753C20.5038 23.2491 20.3716 23.1582 20.221 23.1179Z" fill="white"/>
<path d="M33.7965 23.094C32.909 22.8926 31.9915 22.8598 31.0919 22.9972C30.9372 23.0202 30.7961 23.0984 30.6946 23.2173C30.5931 23.3363 30.5381 23.488 30.5398 23.6444C30.4684 25.08 30.3002 29.2234 30.1337 32.8386C29.7022 32.12 29.2945 31.3776 28.9123 30.6301C27.6432 27.7573 26.5424 24.7402 26.0871 23.9502C26.0371 23.711 25.917 23.4922 25.7421 23.3215C25.5673 23.1509 25.3455 23.0362 25.1052 22.9921C24.3729 22.8845 23.6289 22.8845 22.8967 22.9921C22.738 23.0101 22.5915 23.0862 22.4855 23.2057C22.3795 23.3252 22.3214 23.4796 22.3225 23.6393C22.2018 26.1044 21.772 36.4486 21.6752 38.7234C21.6733 38.8663 21.7131 39.0067 21.7898 39.1274C21.8664 39.2481 21.9765 39.3438 22.1067 39.4029C23.026 39.7586 24.0387 39.7922 24.9795 39.4981C25.1173 39.4628 25.2393 39.3824 25.3261 39.2697C25.4129 39.157 25.4596 39.0185 25.4585 38.8763C25.5061 37.8943 25.6284 35.4276 25.7219 32.7468C26.9094 35.0373 28.3469 37.1893 30.008 39.1634C30.0845 39.2741 30.1939 39.3579 30.3206 39.4029C31.2399 39.7586 32.2526 39.7922 33.1934 39.4981C33.3287 39.4583 33.4479 39.3767 33.5339 39.265C33.62 39.1533 33.6685 39.0172 33.6724 38.8763C33.7676 36.554 34.1991 26.2573 34.318 23.7905C34.3234 23.6324 34.2746 23.4772 34.1798 23.3505C34.0849 23.2239 33.9497 23.1334 33.7965 23.094Z" fill="white"/>
<path d="M46.6992 31.2587C45.5966 31.2349 42.9159 31.1618 41.8371 31.1143C41.695 31.1116 41.5558 31.1543 41.4397 31.2362C41.3236 31.3181 41.2367 31.4349 41.1915 31.5696C40.8327 32.4893 40.8069 33.5055 41.1185 34.4423C41.1617 34.5759 41.2444 34.6933 41.3557 34.7788C41.467 34.8644 41.6017 34.9141 41.742 34.9214C42.0528 34.9214 42.5081 34.9452 43.011 34.9452C42.8993 35.3245 42.6833 35.6647 42.3875 35.9271C42.0692 36.2019 41.6594 36.3474 41.2391 36.3348C40.1128 36.311 39.5148 35.5924 39.2514 34.636C39.0498 33.7318 39.0175 32.7981 39.1563 31.8822C39.3353 30.4079 39.8427 28.9926 40.6411 27.7404C41.0471 27.1424 41.4311 26.5902 41.9577 26.5665C42.5557 26.5189 42.8666 26.9062 43.0823 27.3089C43.4196 28.0157 43.6229 28.7789 43.682 29.5598C43.6976 29.6942 43.7506 29.8215 43.835 29.9273C43.9194 30.033 44.0318 30.1129 44.1594 30.1578C45.0784 30.3974 46.0435 30.3974 46.9625 30.1578C47.1168 30.1149 47.2516 30.0202 47.3444 29.8897C47.4372 29.7592 47.4823 29.6007 47.4722 29.4409C47.3753 28.4114 47.0406 26.1842 45.8905 24.6841C44.9816 23.4865 43.6633 22.6455 41.7012 22.7916C40.2877 22.8885 38.876 23.7498 37.7497 25.2584C36.2207 27.3174 35.2116 30.5978 35.2829 33.4468C35.4036 37.1112 37.1992 40.0332 41.1508 40.1521C42.2136 40.1796 43.2615 39.8968 44.1662 39.3384C45.1974 38.6911 46.0349 37.9487 46.5854 36.7765C47.0546 35.8158 47.3546 34.7813 47.4722 33.7186C47.5326 33.0684 47.4838 32.4126 47.3277 31.7785C47.2884 31.6381 47.2072 31.5131 47.0948 31.4202C46.9825 31.3273 46.8444 31.2709 46.6992 31.2587Z" fill="white"/>
<path d="M62.4594 35.8082C60.9033 35.832 52.3309 35.8796 52.3309 35.8796C52.3309 35.8796 52.8405 25.464 52.9051 23.8603C52.9053 23.7056 52.8535 23.5553 52.7579 23.4336C52.6624 23.3119 52.5288 23.2258 52.3785 23.1892C51.4904 22.9876 50.5722 22.9553 49.6722 23.0941C49.5203 23.1175 49.3808 23.1917 49.2765 23.3047C49.1722 23.4176 49.1093 23.5626 49.098 23.7159C49.0266 25.4878 48.4524 37.6991 48.4524 37.6991C48.4403 37.958 48.4807 38.2167 48.5712 38.4596C48.6617 38.7025 48.8005 38.9246 48.9791 39.1125C49.3481 39.4792 49.8468 39.6855 50.367 39.6867C50.367 39.6867 60.5924 39.6154 62.4594 39.6154C62.5973 39.6128 62.7311 39.5677 62.8424 39.4862C62.9537 39.4047 63.0371 39.2908 63.0812 39.1601C63.421 38.2019 63.4889 37.2455 63.0812 36.2397C63.0334 36.1133 62.9483 36.0044 62.8373 35.9274C62.7263 35.8503 62.5945 35.8088 62.4594 35.8082Z" fill="white"/>
<path d="M64.255 27.9782C64.1903 27.0966 63.9372 26.2392 63.5127 25.4639C62.8782 24.2255 61.7881 23.2816 60.4717 22.8307C59.7982 22.6302 59.0878 22.5863 58.3947 22.7023C57.7016 22.8183 57.0442 23.0912 56.4727 23.5C55.2036 24.3868 54.1503 25.9192 53.9346 28.0971C53.8234 29.0031 53.8885 29.9221 54.1265 30.8033C54.3823 31.7875 54.9042 32.6821 55.6351 33.389C56.7225 34.3726 58.1445 34.9037 59.6104 34.8738C60.7917 34.8336 61.9408 34.4782 62.9384 33.8443C63.0529 33.7779 63.1442 33.6779 63.1998 33.5578C63.2555 33.4378 63.2728 33.3035 63.2493 33.1732C63.0795 31.984 62.507 31.1346 61.5505 30.6351C61.4511 30.5823 61.3403 30.5547 61.2277 30.5547C61.1152 30.5547 61.0043 30.5823 60.9049 30.6351C60.4968 30.8941 60.0286 31.0428 59.5459 31.0667C59.1478 31.1166 58.7457 31.0132 58.421 30.7776C58.0964 30.5419 57.8736 30.1916 57.7977 29.7976C57.774 29.7501 57.774 29.7025 57.7502 29.6549L63.3292 29.6787C63.4569 29.6848 63.5843 29.662 63.702 29.612C63.8196 29.562 63.9245 29.4861 64.0087 29.3899C64.2007 29.1521 64.2245 28.9125 64.272 28.6237C64.2787 28.4084 64.2731 28.1928 64.255 27.9782ZM58.0288 27.3309C58.078 27.2358 58.1494 27.1406 58.1987 27.0438C58.5096 26.614 58.9648 26.349 59.3879 26.4696C59.675 26.5647 59.9621 26.8773 60.1778 27.2595C60.1778 27.2833 60.2016 27.3071 60.2254 27.3309H58.0288Z" fill="white"/>
<path d="M28.1206 13.3206C28.6501 14.1878 29.4076 14.893 30.3104 15.3592C31.6337 15.9942 33.151 16.0934 34.5457 15.6361C35.6614 15.2506 36.657 14.58 37.4337 13.691C37.5147 13.5892 37.5671 13.4678 37.5856 13.3391C37.6041 13.2105 37.588 13.0792 37.539 12.9588C37.0294 11.8613 36.2411 11.2242 35.1606 11.0255C35.0541 11.0021 34.9434 11.0064 34.839 11.0379C34.7347 11.0694 34.6401 11.1271 34.5643 11.2055C34.2386 11.5744 33.824 11.854 33.3599 12.0176C32.9263 12.1665 32.4542 12.1581 32.0263 11.9938C31.7419 11.8269 31.5073 11.587 31.3467 11.299C31.3094 11.2599 31.2958 11.214 31.2584 11.175L36.608 9.59164C36.7293 9.5579 36.8419 9.4986 36.9383 9.41772C37.0347 9.33685 37.1127 9.23628 37.167 9.12276C37.2553 8.86219 37.2553 8.57978 37.167 8.31921C37.1288 8.10674 37.0667 7.89929 36.9818 7.70083C36.673 6.87693 36.1917 6.12857 35.5701 5.50592C34.4301 4.37279 33.0218 3.86993 31.8989 3.85974C31.1928 3.86422 30.4969 4.02856 29.8634 4.34044C29.2299 4.65233 28.6753 5.10364 28.2412 5.66052C27.3035 6.8684 26.7361 8.63859 27.1574 10.7876C27.3124 11.6861 27.6395 12.5462 28.1206 13.3206ZM33.0592 6.78176C34.0581 6.48106 34.8073 7.71442 34.8073 7.71442L32.1792 8.50438C32.1792 8.50438 32.0602 7.08245 33.0592 6.78176ZM30.0012 7.70253C31.0002 7.40183 31.746 8.64029 31.746 8.64029L29.1195 9.43025C29.1195 9.43025 29.0006 8.00322 30.0012 7.70253Z" fill="white"/>
<path d="M39.0544 17.4539C38.3749 14.3348 38.205 8.87306 38.2984 5.22225C38.3073 5.07685 38.3611 4.9378 38.4524 4.82429C38.5437 4.71078 38.668 4.62842 38.8081 4.58858C39.7587 4.30576 40.7745 4.33134 41.7097 4.66163C41.8432 4.71686 41.9567 4.8115 42.035 4.93292C42.1133 5.05434 42.1528 5.19676 42.148 5.34117C42.0512 8.8272 42.148 14.0936 42.8547 16.8237C43.4442 15.8891 43.9269 14.8913 44.2936 13.849C44.9367 12.0492 45.426 10.1982 45.7563 8.31585C45.8056 8.09669 45.9517 7.75522 46.2439 7.68217C47.2131 7.48437 48.2153 7.51755 49.1693 7.77901C49.73 7.99816 49.6093 8.92403 49.6093 9.04635C49.6569 11.8987 49.8523 14.9719 50.3398 16.8237C50.9084 15.9105 51.3744 14.9374 51.7295 13.922C52.2001 12.6472 52.5833 11.3417 52.8762 10.0147C52.973 9.57639 53.1922 8.69808 53.3859 7.45453C53.4844 6.84634 53.5812 5.96804 53.6543 5.11522C53.6661 4.9693 53.7248 4.8311 53.8215 4.72121C53.9182 4.61131 54.0479 4.5356 54.1911 4.50533C55.1565 4.26871 56.1722 4.34546 57.091 4.72448C57.2219 4.78104 57.332 4.87674 57.4062 4.99843C57.4805 5.12011 57.5152 5.26181 57.5056 5.40402C57.458 5.98843 57.3595 6.91599 57.3119 7.33051C57.2864 7.59893 57.2388 7.84017 57.2134 8.06102C56.9942 9.45067 56.7513 10.402 56.6527 10.8658C55.873 14.2057 54.8486 16.8118 53.8242 18.497C53.1667 19.6183 52.4651 20.3657 51.8263 20.8125C51.2079 21.2694 50.4482 21.4938 49.6807 21.4462C49.0006 21.4007 48.3636 21.0968 47.9003 20.5968C47.4365 20.0871 46.9744 19.2071 46.6567 18.0128C45.9993 19.202 45.2977 20.0837 44.6334 20.6206C43.8044 21.2797 42.9516 21.4989 42.2194 21.4496C41.5335 21.3999 40.8905 21.0972 40.4152 20.6002C39.9038 20.0141 39.3636 18.9421 39.0544 17.4539Z" fill="white"/>
<path d="M67.9619 4.35244C67.9619 6.81916 66.0253 8.75755 63.5042 8.75755C61.0103 8.75755 59.0192 6.81916 59.0192 4.35244C59.0192 1.93668 61.0103 0 63.5042 0C66.0253 0 67.9619 1.93838 67.9619 4.35244ZM60.1337 4.35244C60.1337 6.28912 61.5675 7.82828 63.5313 7.82828C65.4408 7.82828 66.8475 6.28912 66.8475 4.37792C66.8475 2.44124 65.4409 0.876605 63.5042 0.876605C61.5675 0.876605 60.1337 2.44803 60.1337 4.35244ZM62.8144 6.63399H61.8053V2.27815C62.3572 2.18181 62.9169 2.13744 63.477 2.14564C64.3009 2.14564 64.6662 2.27815 64.9907 2.46503C65.1284 2.58222 65.2381 2.72885 65.3116 2.8941C65.3851 3.05935 65.4206 3.23899 65.4154 3.41978C65.4154 3.89715 65.0433 4.2692 64.5116 4.42889V4.48665C64.9363 4.64634 65.1758 4.96403 65.3084 5.54843C65.4409 6.21098 65.5207 6.476 65.6277 6.63569H64.5371C64.4046 6.476 64.3247 6.07847 64.1973 5.57391C64.1175 5.09653 63.8575 4.88418 63.2952 4.88418H62.8178L62.8144 6.63399ZM62.8399 4.16557H63.319C63.8762 4.16557 64.3264 3.98039 64.3264 3.5302C64.3264 3.13097 64.0342 2.86595 63.3972 2.86595C63.21 2.86253 63.0231 2.88019 62.8399 2.91861V4.16557Z" fill="white"/>
</g>
<defs>
<clipPath id="clip0_17_1324">
<rect width="67.3286" height="46.6877" fill="white" transform="translate(0.633301)"/>
</clipPath>
</defs>
</svg>
