<svg width="223" height="31" viewBox="0 0 223 31" fill="none" xmlns="http://www.w3.org/2000/svg">
<g clip-path="url(#clip0_17_1300)">
<path d="M26.4925 15.3494C23.8188 10.681 19.9585 6.80246 15.3028 4.10686C10.647 1.41126 5.36136 -0.00555377 -0.0184326 1.63607e-05V30.5235H15.3849C15.3849 30.2225 15.3849 29.9259 15.3849 29.6248C15.7399 15.3853 37.1913 15.3853 37.5417 29.6248C37.5417 29.9244 37.5417 30.224 37.5417 30.5235H52.945V1.63607e-05C47.5751 0.0047356 42.3016 1.42642 37.657 4.1215C33.0124 6.81658 29.1612 10.6896 26.4925 15.3494Z" fill="#FFFBFD"/>
<path d="M87.0637 9.3103V30.2539H84.3092V14.635L77.349 30.2539H75.4123L68.4206 14.608V30.2539H65.6662V9.3103H68.6318L76.3784 26.6233L84.1295 9.3103H87.0637Z" fill="#FFFBFD"/>
<path d="M93.5252 29.4676C92.2696 28.7677 91.2405 27.723 90.5596 26.457C89.8222 25.0648 89.4525 23.5073 89.4856 21.9322C89.4541 20.3634 89.8352 18.8139 90.591 17.4388C91.2893 16.174 92.3337 15.1344 93.6016 14.4417C94.9193 13.7539 96.3838 13.3947 97.8703 13.3947C99.3568 13.3947 100.821 13.7539 102.139 14.4417C103.403 15.1311 104.447 16.1639 105.15 17.4208C105.905 18.7959 106.287 20.3454 106.255 21.9142C106.297 23.5109 105.904 25.0889 105.118 26.4795C104.396 27.7493 103.333 28.792 102.049 29.49C100.729 30.2027 99.2491 30.5677 97.749 30.5505C96.2709 30.5626 94.8151 30.1894 93.5252 29.4676ZM100.535 27.4096C101.421 26.9282 102.151 26.2032 102.638 25.3202C103.199 24.2813 103.475 23.1123 103.438 21.9322C103.475 20.7536 103.204 19.5858 102.651 18.5442C102.181 17.6676 101.466 16.9465 100.593 16.4682C99.7411 16.0226 98.7937 15.7898 97.8321 15.7898C96.8704 15.7898 95.923 16.0226 95.0709 16.4682C94.2079 16.9441 93.5069 17.667 93.0578 18.5442C92.525 19.5921 92.2639 20.7571 92.2985 21.9322C92.2596 23.1162 92.5159 24.2913 93.0444 25.3516C93.4828 26.2259 94.1729 26.949 95.0259 27.4276C95.8607 27.8827 96.7982 28.1163 97.749 28.1061C98.7214 28.1118 99.6795 27.8723 100.535 27.4096Z" fill="#FFFBFD"/>
<path d="M111.687 29.4676C110.431 28.7691 109.401 27.7241 108.722 26.4571C107.982 25.0655 107.613 23.5076 107.648 21.9322C107.616 20.3635 107.997 18.8139 108.753 17.4389C109.45 16.1732 110.495 15.1332 111.764 14.4418C113.081 13.7532 114.546 13.3936 116.032 13.3936C117.519 13.3936 118.984 13.7532 120.301 14.4418C121.567 15.1305 122.612 16.1633 123.316 17.4209C124.072 18.7959 124.453 20.3455 124.422 21.9143C124.454 23.497 124.061 25.0595 123.285 26.4391C122.562 27.7101 121.497 28.7531 120.211 29.4496C118.893 30.1629 117.414 30.5279 115.916 30.5101C114.44 30.5354 112.982 30.1761 111.687 29.4676ZM118.692 27.4097C119.58 26.9286 120.311 26.2036 120.8 25.3202C121.321 24.2669 121.592 23.1075 121.592 21.9322C121.592 20.757 121.321 19.5976 120.8 18.5442C120.328 17.6688 119.613 16.948 118.742 16.4683C117.89 16.0226 116.942 15.7898 115.981 15.7898C115.019 15.7898 114.072 16.0226 113.22 16.4683C112.357 16.9441 111.656 17.6671 111.207 18.5442C110.671 19.5914 110.41 20.7569 110.447 21.9322C110.409 23.1157 110.664 24.2903 111.189 25.3517C111.629 26.2244 112.319 26.9469 113.17 27.4276C114.007 27.8828 114.945 28.1163 115.898 28.1061C116.872 28.1134 117.832 27.8738 118.688 27.4097H118.692Z" fill="#FFFBFD"/>
<path d="M126.835 17.4389C127.481 16.1997 128.462 15.1662 129.665 14.4553C130.892 13.7417 132.29 13.3751 133.709 13.3949C134.964 13.39 136.2 13.6989 137.304 14.2935C138.349 14.8302 139.228 15.641 139.847 16.6391V7.85901H142.633V30.254H139.847V27.1401C139.275 28.1556 138.438 28.9972 137.425 29.5755C136.285 30.2286 134.987 30.558 133.673 30.5281C132.258 30.5492 130.866 30.1713 129.656 29.4379C128.445 28.7044 127.466 27.6449 126.83 26.3807C126.126 24.9893 125.772 23.4467 125.801 21.8873C125.772 20.3419 126.127 18.8134 126.835 17.4389ZM139.097 18.6611C138.627 17.7747 137.919 17.0371 137.052 16.5312C136.19 16.0508 135.218 15.7986 134.231 15.7986C133.243 15.7986 132.272 16.0508 131.409 16.5312C130.544 17.0309 129.84 17.7666 129.378 18.6521C128.855 19.66 128.595 20.7837 128.623 21.9188C128.595 23.0697 128.854 24.2095 129.378 25.2349C129.839 26.128 130.543 26.8726 131.409 27.3827C132.262 27.8791 133.234 28.1353 134.222 28.1241C135.214 28.1336 136.192 27.8777 137.052 27.3827C137.923 26.8744 138.632 26.1297 139.097 25.2349C139.618 24.2199 139.877 23.0909 139.852 21.9502C139.882 20.8077 139.622 19.6763 139.097 18.6611Z" fill="#FFFBFD"/>
<path d="M150.915 14.1542C151.919 13.6024 153.054 13.3308 154.199 13.3678V16.2122H153.471C150.383 16.2122 148.84 17.8867 148.843 21.2357V30.254H146.098V13.6689H148.852V16.3649C149.309 15.4427 150.026 14.6743 150.915 14.1542Z" fill="#FFFBFD"/>
<path d="M159.178 29.4676C157.921 28.7691 156.892 27.7241 156.212 26.4571C155.473 25.0655 155.103 23.5076 155.138 21.9322C155.105 20.3638 155.485 18.8143 156.239 17.4389C156.94 16.1747 157.986 15.1354 159.254 14.4418C160.572 13.7532 162.036 13.3936 163.523 13.3936C165.01 13.3936 166.474 13.7532 167.792 14.4418C169.058 15.1305 170.103 16.1633 170.807 17.4209C171.559 18.7969 171.939 20.3461 171.908 21.9143C171.941 23.4966 171.55 25.0591 170.775 26.4391C170.05 27.7082 168.986 28.7506 167.702 29.4496C166.383 30.1629 164.905 30.5279 163.406 30.5101C161.93 30.5358 160.473 30.1765 159.178 29.4676ZM166.183 27.4097C167.069 26.9283 167.799 26.2032 168.286 25.3202C168.849 24.2818 169.126 23.1128 169.09 21.9322C169.128 20.7537 168.857 19.5858 168.304 18.5442C167.832 17.6688 167.117 16.948 166.246 16.4683C165.393 16.0226 164.445 15.7898 163.482 15.7898C162.52 15.7898 161.572 16.0226 160.719 16.4683C159.859 16.9478 159.159 17.6698 158.706 18.5442C158.175 19.5926 157.915 20.7575 157.951 21.9322C157.913 23.1157 158.168 24.2903 158.693 25.3517C159.133 26.2244 159.823 26.9469 160.674 27.4276C161.51 27.8833 162.449 28.117 163.402 28.1061C164.373 28.1119 165.329 27.8723 166.183 27.4097Z" fill="#FFFBFD"/>
<path d="M179.564 14.3474C180.699 13.7099 181.983 13.3858 183.285 13.4083C184.705 13.3843 186.104 13.7511 187.329 14.4688C188.526 15.1828 189.502 16.2158 190.146 17.4524C190.854 18.8313 191.208 20.3647 191.175 21.9143C191.204 23.4736 190.851 25.0163 190.146 26.4077C189.51 27.6718 188.531 28.7313 187.321 29.4648C186.11 30.1983 184.718 30.5761 183.303 30.5551C181.986 30.5839 180.686 30.2596 179.537 29.6159C178.522 29.056 177.678 28.2295 177.097 27.2254V30.281H174.343V7.85901H177.102V16.7559C177.691 15.7464 178.542 14.9145 179.564 14.3474ZM187.585 18.6476C187.119 17.7603 186.41 17.0244 185.54 16.5267C184.677 16.0415 183.7 15.792 182.71 15.8033C181.727 15.7968 180.761 16.0528 179.91 16.5447C179.038 17.0549 178.325 17.7988 177.852 18.6925C177.323 19.6939 177.057 20.8134 177.079 21.9457C177.054 23.0884 177.32 24.2187 177.852 25.2304C178.325 26.1241 179.038 26.8681 179.91 27.3782C180.769 27.8642 181.739 28.1196 182.725 28.1196C183.712 28.1196 184.682 27.8642 185.54 27.3782C186.411 26.8699 187.12 26.1252 187.585 25.2304C188.109 24.205 188.368 23.0653 188.34 21.9143C188.37 20.7747 188.11 19.6461 187.585 18.6341V18.6476Z" fill="#FFFBFD"/>
<path d="M208.618 22.9926H195.363C195.364 23.6918 195.505 24.3836 195.779 25.0269C196.053 25.6703 196.453 26.252 196.956 26.7375C197.459 27.2229 198.055 27.6023 198.707 27.8528C199.36 28.1034 200.056 28.2201 200.755 28.196C201.811 28.2363 202.852 27.9457 203.734 27.3647C204.526 26.8205 205.116 26.031 205.415 25.118H208.38C207.961 26.6793 207.023 28.0515 205.72 29.0093C204.281 30.0369 202.545 30.5627 200.778 30.5056C199.301 30.5296 197.844 30.1638 196.554 29.4451C195.313 28.7406 194.3 27.6961 193.633 26.4346C192.904 25.0396 192.54 23.4832 192.573 21.9097C192.542 20.3503 192.896 18.8073 193.602 17.4164C194.255 16.1625 195.261 15.127 196.495 14.4373C197.808 13.7222 199.283 13.3613 200.778 13.3903C202.236 13.3635 203.677 13.7181 204.956 14.4193C206.138 15.0792 207.109 16.0608 207.756 17.2501C208.425 18.5014 208.763 19.9025 208.74 21.3211C208.729 21.8801 208.689 22.438 208.618 22.9926ZM205.168 18.0499C204.716 17.3048 204.059 16.7057 203.276 16.3245C202.451 15.9259 201.545 15.7244 200.629 15.7358C199.315 15.7108 198.042 16.1937 197.075 17.0839C196.058 18.0512 195.456 19.3751 195.394 20.7774H205.86C205.893 19.8181 205.653 18.8691 205.168 18.0409V18.0499Z" fill="#FFFBFD"/>
<path d="M219.668 9.68776C220.584 10.2099 221.338 10.9749 221.847 11.8985C222.377 12.8613 222.648 13.945 222.633 15.0439C222.649 16.1528 222.378 17.2471 221.847 18.2207C221.344 19.1583 220.59 19.9366 219.668 20.4674C218.697 20.9951 217.609 21.2716 216.504 21.2716C215.399 21.2716 214.312 20.9951 213.341 20.4674C212.42 19.9353 211.666 19.1573 211.162 18.2207C210.631 17.2471 210.36 16.1528 210.375 15.0439C210.361 13.945 210.632 12.8613 211.162 11.8985C211.672 10.9759 212.426 10.2112 213.341 9.68776C214.313 9.16274 215.4 8.88782 216.504 8.88782C217.609 8.88782 218.696 9.16274 219.668 9.68776ZM220.045 18.6745C220.91 17.6768 221.387 16.4005 221.387 15.0798C221.387 13.7592 220.91 12.4828 220.045 11.4851C219.586 11.0204 219.036 10.6565 218.428 10.4167C217.821 10.1769 217.17 10.0663 216.518 10.0922C215.866 10.0627 215.214 10.1716 214.607 10.4117C214 10.6518 213.451 11.0176 212.995 11.4851C212.149 12.4917 211.684 13.7647 211.684 15.0798C211.684 16.395 212.149 17.6679 212.995 18.6745C213.45 19.1427 214 19.509 214.607 19.7491C215.214 19.9892 215.865 20.0977 216.518 20.0674C217.171 20.0927 217.823 19.9805 218.431 19.7383C219.038 19.496 219.588 19.129 220.045 18.661V18.6745ZM218.868 15.0304C218.602 15.3713 218.236 15.6197 217.821 15.7403L219.515 18.2521L217.61 18.2836L216.158 15.8617H215.642V18.2836H214.069V11.7637H216.976C217.574 11.7336 218.162 11.9274 218.625 12.3074C218.832 12.4931 218.995 12.7225 219.102 12.9789C219.21 13.2354 219.258 13.5125 219.245 13.7902C219.266 14.2272 219.141 14.6587 218.89 15.0169L218.868 15.0304ZM215.642 14.5811H216.882C217.084 14.5886 217.283 14.525 217.443 14.4013C217.519 14.3393 217.579 14.26 217.618 14.1702C217.657 14.0803 217.674 13.9824 217.668 13.8846C217.675 13.7893 217.658 13.6938 217.619 13.6068C217.58 13.5197 217.519 13.4437 217.443 13.3858C217.279 13.2722 217.082 13.214 216.882 13.2195H215.642V14.5811Z" fill="#FFFBFD"/>
</g>
<defs>
<clipPath id="clip0_17_1300">
<rect width="222.633" height="30.5325" fill="white"/>
</clipPath>
</defs>
</svg>
