<svg width="150" height="37" viewBox="0 0 150 37" fill="none" xmlns="http://www.w3.org/2000/svg">
<g clip-path="url(#clip0_17_1431)">
<path d="M15.7967 35.3306C7.30703 35.3306 0.400467 28.6546 0.400467 20.4636H0.687526C0.687526 28.5091 7.46517 35.0464 15.7967 35.0464C24.1282 35.0464 30.9059 28.5039 30.9059 20.4636H31.1912C31.1912 28.6614 24.2846 35.3306 15.7967 35.3306Z" fill="#F2F2F2"/>
<path d="M15.7967 23.7605C15.4529 23.7605 15.1229 23.7605 14.7894 23.7605C7.8141 23.6663 0.402191 22.4817 0.402191 20.4704C0.402191 18.4162 8.22836 17.1752 15.7967 17.1752C16.5135 17.1752 17.244 17.1855 17.966 17.2077V17.4918C17.2457 17.4696 16.5186 17.4593 15.8053 17.4593C6.76729 17.4593 0.696122 19.0171 0.696122 20.4704C0.696122 21.8244 6.08833 23.3599 14.8032 23.4763C15.1332 23.4763 15.4684 23.4763 15.8053 23.4763C17.4468 23.4763 19.0609 23.4232 20.6028 23.3171C26.6739 22.8994 30.9162 21.7269 30.9162 20.4635C30.9162 19.4365 27.994 18.4282 23.4871 17.8821L23.5215 17.5997C25.8317 17.8787 31.2015 18.7175 31.2015 20.4635C31.2015 22.2438 25.5034 23.2658 20.6234 23.6013C19.0661 23.7074 17.4451 23.7605 15.7967 23.7605Z" fill="#F2F2F2"/>
<path d="M14.92 23.6766L14.6639 23.5483L19.8206 13.3494C20.1431 12.7116 20.7064 12.2273 21.387 12.0026C22.0676 11.778 22.8099 11.8314 23.451 12.1511C23.8997 12.3742 24.2769 12.7178 24.5399 13.1431C24.803 13.5684 24.9414 14.0584 24.9395 14.5579C24.9402 14.978 24.8406 15.3922 24.649 15.7664L20.7317 23.5175L20.4773 23.3891L24.3946 15.6398C24.5655 15.3045 24.6545 14.9339 24.6542 14.5579C24.6559 14.111 24.532 13.6724 24.2966 13.2919C24.0612 12.9114 23.7236 12.604 23.322 12.4045C22.749 12.1184 22.0855 12.0702 21.4769 12.2704C20.8683 12.4706 20.3642 12.9029 20.075 13.4726L14.92 23.6766Z" fill="#F2F2F2"/>
<path d="M30.8852 35.327H0.708156C0.627009 35.327 0.549183 35.2949 0.491803 35.2378C0.434424 35.1806 0.402191 35.1031 0.402191 35.0223V15.5369C0.40856 11.4735 2.03274 7.57841 4.91859 4.70578C7.80443 1.83314 11.7164 0.217418 15.7967 0.212891C19.878 0.217874 23.7908 1.83469 26.6767 4.7087C29.5627 7.58272 31.1862 11.4793 31.1912 15.5438V35.0292C31.189 35.1086 31.1558 35.1841 31.0987 35.2397C31.0416 35.2953 30.9651 35.3266 30.8852 35.327ZM15.7984 0.490201C11.7926 0.494732 7.95218 2.08146 5.11965 4.90228C2.28711 7.72311 0.693795 11.5477 0.689245 15.5369V35.0223C0.689245 35.0278 0.69142 35.033 0.695288 35.0368C0.699157 35.0407 0.704406 35.0429 0.709877 35.0429H30.8852C30.8881 35.0431 30.891 35.0427 30.8937 35.0418C30.8964 35.0409 30.8988 35.0394 30.901 35.0375C30.9031 35.0355 30.9047 35.0332 30.9059 35.0306C30.907 35.028 30.9076 35.0252 30.9076 35.0223V15.5369C30.903 11.5474 29.3095 7.72255 26.4766 4.90168C23.6437 2.0808 19.8028 0.494279 15.7967 0.490201H15.7984Z" fill="#F2F2F2"/>
<path d="M9.24938 14.7255C11.0113 14.7255 12.4397 13.3031 12.4397 11.5484C12.4397 9.79377 11.0113 8.37134 9.24938 8.37134C7.48744 8.37134 6.0591 9.79377 6.0591 11.5484C6.0591 13.3031 7.48744 14.7255 9.24938 14.7255Z" fill="#F2F2F2"/>
<path d="M15.7967 8.37138C16.8125 8.37138 17.6359 7.55133 17.6359 6.53975C17.6359 5.52818 16.8125 4.70813 15.7967 4.70813C14.7809 4.70813 13.9575 5.52818 13.9575 6.53975C13.9575 7.55133 14.7809 8.37138 15.7967 8.37138Z" fill="#F2F2F2"/>
</g>
<path d="M53.454 36.145V36.2926H49.891V36.145C50.4305 36.145 50.6189 35.865 50.4865 35.5189L47.9416 28.9936H39.4974L37.3291 35.5087C37.2069 35.8701 37.4156 36.145 37.9602 36.145V36.2926H35.8733V36.145C36.1261 36.1661 36.3789 36.1046 36.5937 35.9697C36.8085 35.8347 36.9737 35.6337 37.0644 35.3967L43.9256 14.8385H44.2208L52.2171 35.3967C52.323 35.6322 52.4981 35.8299 52.719 35.9635C52.9399 36.0972 53.1962 36.1604 53.454 36.145ZM47.8194 28.6933L43.3912 17.3122L39.5992 28.6933H47.8194Z" fill="#F2F2F2"/>
<path d="M82.6091 34.5264L82.6753 34.6486C80.8804 35.6668 78.8641 36.2312 76.8015 36.2926C72.5208 36.2926 69.2327 34.2566 66.6216 31.9407C64.0105 29.6248 61.2314 26.749 58.8544 26.749H57.2154V35.4019C57.2154 35.8498 57.5157 36.1501 58.1112 36.1501V36.2977H54.5483V36.1501C55.1438 36.1501 55.439 35.8498 55.439 35.4019V15.7395C55.439 15.2916 55.1438 14.9964 54.5483 14.9964V14.8436H60.2134C65.4255 14.8436 68.2555 17.0781 68.2555 20.8039C68.2555 24.0208 65.5985 26.2757 61.5927 26.693C63.6745 27.3445 65.4102 28.8766 68.1791 31.1416C72.9993 35.0761 75.7631 35.9618 78.2928 35.7785C79.8038 35.6705 81.2749 35.2438 82.6091 34.5264ZM60.2134 26.4589C64.2344 26.4589 66.3213 24.2244 66.3213 20.7989C66.3213 17.0731 64.2344 15.1388 60.2134 15.1388H57.2307V26.4589H60.2134ZM82.7669 31.3757V31.5234H79.2039V31.3757C79.7384 31.3757 79.9369 31.1162 79.7994 30.7599L77.4326 24.652H72.0729L70.4441 29.5281C70.3373 29.9047 70.5256 30.1643 71.0702 30.1643V30.312H68.9884V30.1643C69.2403 30.1842 69.492 30.1228 69.7064 29.989C69.9208 29.8552 70.0866 29.6562 70.1795 29.4212L75.0709 14.8182H75.3661L81.5097 30.597C81.6105 30.8395 81.7841 31.0446 82.0066 31.1841C82.2291 31.3236 82.4894 31.3906 82.7516 31.3757H82.7669ZM77.3003 24.372L74.5568 17.3123L72.19 24.372H77.3003Z" fill="#F2F2F2"/>
<path d="M102.394 28.3981V28.5458C101.798 28.5458 101.498 28.846 101.498 29.2889V36.2926H101.35L99.7113 34.8573C98.1708 36.0254 96.2792 36.6355 94.3465 36.5878C88.3404 36.5878 83.7696 31.6557 83.7696 25.5682C83.7696 19.4806 88.3505 14.5434 94.3465 14.5434C96.4522 14.4779 98.5125 15.1634 100.159 16.4775L100.454 19.1599C100.01 17.8952 99.1835 16.7999 98.0892 16.0257C96.9949 15.2515 95.687 14.8366 94.3465 14.8385C89.4092 14.8385 85.8565 19.562 85.8565 25.5682C85.8565 31.5743 89.4194 36.2926 94.3465 36.2926C97.548 36.2926 99.7113 34.6384 99.7113 33.6306V28.6933H95.2423V28.3981H102.394Z" fill="#F2F2F2"/>
<path d="M120.595 36.145V36.2926H117.032V36.145C117.572 36.145 117.76 35.865 117.628 35.5189L115.083 28.9936H106.649L104.475 35.5087C104.358 35.8701 104.567 36.145 105.112 36.145V36.2926H103.025V36.145C103.278 36.1661 103.53 36.1046 103.745 35.9697C103.96 35.8347 104.125 35.6337 104.216 35.3967L111.067 14.8385H111.367L119.364 35.3967C119.469 35.6314 119.643 35.8285 119.863 35.962C120.083 36.0956 120.338 36.1594 120.595 36.145ZM114.956 28.6933L110.532 17.3122L106.74 28.6933H114.956Z" fill="#F2F2F2"/>
<path d="M132.572 14.8385V14.9861C131.976 14.9861 131.681 15.2864 131.681 15.7343V29.1412C131.635 33.8138 129.406 36.5827 125.426 36.5827C122.743 36.5827 120.361 35.0964 120.361 33.0197C120.361 32.8618 120.424 32.7103 120.536 32.5987C120.647 32.487 120.799 32.4242 120.957 32.4242C121.115 32.4242 121.266 32.487 121.378 32.5987C121.489 32.7103 121.552 32.8618 121.552 33.0197C121.552 34.959 123.054 36.2977 125.426 36.2977C129.452 36.2977 129.895 32.7347 129.895 29.1718V15.7649C129.895 15.317 129.599 15.0166 129.004 15.0166V14.8691L132.572 14.8385Z" fill="#F2F2F2"/>
<path d="M149.918 36.145V36.2926H146.355V36.145C146.89 36.145 147.083 35.865 146.946 35.5189L144.401 28.9936H135.967L133.793 35.5087C133.671 35.8701 133.88 36.145 134.425 36.145V36.2926H132.338V36.145C132.591 36.1656 132.844 36.1039 133.06 35.9691C133.275 35.8343 133.442 35.6336 133.534 35.3967L140.385 14.8385H140.68L148.676 35.4018C148.783 35.6372 148.96 35.8344 149.181 35.9672C149.403 36.0999 149.66 36.1619 149.918 36.145ZM144.284 28.6933L139.856 17.3122L136.064 28.6933H144.284Z" fill="#F2F2F2"/>
<defs>
<clipPath id="clip0_17_1431">
<rect width="31.5899" height="35.3379" fill="white"/>
</clipPath>
</defs>
</svg>
