<svg width="176" height="40" viewBox="0 0 176 40" fill="none" xmlns="http://www.w3.org/2000/svg">
<g clip-path="url(#clip0_17_1284)">
<path d="M25.8991 39.1161C25.369 39.115 24.8394 39.0828 24.313 39.0199L24.912 34.156C26.4994 34.3571 28.1105 34.0736 29.5338 33.3427C30.7276 32.7348 31.75 31.8373 32.5074 30.7323L36.5426 33.4948C35.3585 35.2251 33.7709 36.641 31.9171 37.6204C30.0632 38.5998 27.9988 39.1131 25.9022 39.1161H25.8991Z" fill="white"/>
<path d="M37.9145 25.8125C35.3619 25.8125 32.8666 25.0556 30.7442 23.6374C28.6218 22.2192 26.9675 20.2036 25.9907 17.8453C25.0138 15.487 24.7583 12.8919 25.2562 10.3884C25.7542 7.8848 26.9834 5.58512 28.7884 3.78015C30.5934 1.97518 32.8931 0.745985 35.3966 0.247995C37.9002 -0.249995 40.4952 0.00559411 42.8535 0.982437C45.2118 1.95928 47.2275 3.61351 48.6457 5.73593C50.0638 7.85835 50.8208 10.3536 50.8208 12.9063C50.8175 16.3282 49.4567 19.609 47.037 22.0287C44.6173 24.4484 41.3364 25.8092 37.9145 25.8125ZM37.9145 4.89804C36.3306 4.89804 34.7823 5.36772 33.4654 6.24767C32.1484 7.12762 31.122 8.37833 30.5159 9.84164C29.9098 11.3049 29.7512 12.9151 30.0602 14.4686C30.3692 16.022 31.1319 17.4489 32.2519 18.5689C33.3718 19.6889 34.7987 20.4516 36.3522 20.7606C37.9056 21.0696 39.5158 20.911 40.9791 20.3049C42.4424 19.6987 43.6931 18.6723 44.5731 17.3554C45.453 16.0384 45.9227 14.4901 45.9227 12.9063C45.9211 10.7829 45.0768 8.74688 43.5753 7.24541C42.0739 5.74394 40.0379 4.89969 37.9145 4.89804Z" fill="white"/>
<path d="M16.9907 25.8125C14.4381 25.8125 11.9428 25.0556 9.82041 23.6374C7.69799 22.2192 6.04376 20.2036 5.06692 17.8453C4.09007 15.487 3.8345 12.8919 4.33249 10.3884C4.83048 7.8848 6.05967 5.58512 7.86464 3.78015C9.66962 1.97518 11.9693 0.745985 14.4729 0.247995C16.9764 -0.249995 19.5714 0.00559411 21.9297 0.982437C24.288 1.95928 26.3037 3.61351 27.7219 5.73593C29.14 7.85835 29.897 10.3536 29.897 12.9063C29.8929 16.3279 28.5318 19.6083 26.1123 22.0278C23.6928 24.4473 20.4124 25.8084 16.9907 25.8125ZM16.9907 4.89804C15.4069 4.89804 13.8586 5.36772 12.5416 6.24767C11.2247 7.12762 10.1982 8.37833 9.59212 9.84164C8.986 11.3049 8.82741 12.9151 9.13641 14.4686C9.4454 16.022 10.2081 17.4489 11.3281 18.5689C12.448 19.6889 13.875 20.4516 15.4284 20.7606C16.9818 21.0696 18.592 20.911 20.0553 20.3049C21.5187 19.6987 22.7694 18.6723 23.6493 17.3554C24.5293 16.0384 24.9989 14.4901 24.9989 12.9063C24.9965 10.7831 24.152 8.74761 22.6507 7.24632C21.1494 5.74502 19.1139 4.90051 16.9907 4.89804Z" fill="white"/>
<path d="M53.9185 10.9539H48.35V15.8519H53.9185V10.9539Z" fill="white"/>
<path d="M6.53041 10.9539H0.961914V15.8519H6.53041V10.9539Z" fill="white"/>
<path d="M71.6141 6.73242V8.43029H67.2531V22.7271H65.1672V8.4396H60.7844V6.73242H71.6141Z" fill="white"/>
<path d="M77.8438 10.5285C78.6035 10.1118 79.4609 9.90606 80.3269 9.93257V12.0898H79.7744C77.434 12.0898 76.2638 13.3593 76.2638 15.8984V22.7271H74.178V10.1623H76.2638V12.2016C76.6159 11.5016 77.1651 10.92 77.8438 10.5285Z" fill="white"/>
<path d="M94.1457 17.227H84.0951C84.1727 18.4686 84.5949 19.4339 85.3678 20.1323C86.1375 20.8264 87.1437 21.1996 88.1799 21.1752C88.9792 21.2067 89.7686 20.9899 90.4396 20.5544C91.0353 20.1441 91.4819 19.5516 91.7122 18.8659H93.9626C93.6422 20.0491 92.9298 21.0887 91.9419 21.8146C90.8479 22.5986 89.525 22.9981 88.1799 22.9507C87.0609 22.9702 85.9567 22.6928 84.9798 22.1467C84.039 21.6127 83.2701 20.8212 82.7635 19.8653C82.2151 18.8122 81.9398 17.6382 81.9627 16.451C81.9365 15.266 82.2041 14.0929 82.7418 13.0366C83.2352 12.085 83.9972 11.2993 84.9332 10.777C85.9283 10.2355 87.0473 9.96266 88.1799 9.98545C89.2852 9.96433 90.3767 10.2329 91.346 10.7645C92.2438 11.2638 92.9803 12.009 93.4691 12.9125C93.9754 13.8609 94.2318 14.9228 94.214 15.9978C94.2123 16.4084 94.1895 16.8187 94.1457 17.227ZM91.5291 13.4774C91.1869 12.9121 90.689 12.4573 90.0951 12.1675C89.4694 11.8647 88.7819 11.7117 88.0868 11.7206C87.092 11.6984 86.1269 12.0608 85.3926 12.7325C84.6226 13.464 84.1654 14.465 84.1169 15.526H92.0568C92.0767 14.8071 91.8938 14.0972 91.5291 13.4774Z" fill="white"/>
<path d="M106.822 11.3201C107.772 12.245 108.247 13.5797 108.247 15.3241V22.7364H106.18V15.6221C106.18 14.3681 105.869 13.408 105.249 12.7417C104.915 12.4035 104.513 12.1399 104.07 11.9682C103.627 11.7965 103.153 11.7205 102.679 11.7453C102.193 11.7223 101.708 11.8022 101.255 11.9798C100.803 12.1574 100.393 12.4286 100.053 12.7758C99.3925 13.4649 99.0624 14.4674 99.0624 15.7835V22.7364H96.9734V10.1623H99.0624V11.9501C99.4756 11.3072 100.059 10.7914 100.748 10.4603C101.48 10.1026 102.286 9.92189 103.101 9.93258C104.628 9.93258 105.868 10.3951 106.822 11.3201Z" fill="white"/>
<path d="M111.652 13.018C112.142 12.079 112.885 11.2962 113.797 10.7583C114.726 10.216 115.785 9.93802 116.86 9.95441C117.813 9.94809 118.752 10.1807 119.592 10.6311C120.384 11.0374 121.051 11.6524 121.52 12.4096V5.75476H123.63V22.7365H121.52V20.3713C121.087 21.1428 120.451 21.7814 119.682 22.2181C118.819 22.7154 117.835 22.9656 116.839 22.9413C115.766 22.9569 114.711 22.6702 113.794 22.1142C112.877 21.5581 112.134 20.7551 111.652 19.7971C111.12 18.7455 110.852 17.5798 110.873 16.4013C110.848 15.2264 111.115 14.0636 111.652 13.018ZM120.945 13.9492C120.589 13.2756 120.052 12.7153 119.393 12.332C118.739 11.9667 118.002 11.7749 117.253 11.7749C116.504 11.7749 115.767 11.9667 115.113 12.332C114.453 12.7076 113.914 13.2645 113.561 13.9368C113.163 14.7029 112.966 15.5571 112.987 16.42C112.966 17.2928 113.163 18.157 113.561 18.9341C113.914 19.6127 114.452 20.1776 115.113 20.5637C115.762 20.9387 116.499 21.1327 117.248 21.1255C118.001 21.1318 118.741 20.9379 119.393 20.5637C120.055 20.1787 120.593 19.6135 120.945 18.9341C121.34 18.167 121.537 17.3136 121.52 16.451C121.544 15.5808 121.346 14.7187 120.945 13.9461V13.9492Z" fill="white"/>
<path d="M129.251 8.4396V13.7877H135.068V15.5073H129.251V21.0106H135.77V22.7333H127.163V6.73242H135.767V8.45202L129.251 8.4396Z" fill="white"/>
<path d="M149.765 10.1624L142.207 28.6557H140.035L142.518 22.5968L137.446 10.1624H139.765L143.71 20.3495L147.611 10.1624H149.765Z" fill="white"/>
<path d="M163.255 17.227H153.208C153.207 17.7569 153.314 18.2814 153.521 18.7694C153.727 19.2573 154.03 19.6986 154.411 20.0671C154.792 20.4355 155.243 20.7235 155.738 20.9138C156.232 21.1042 156.76 21.1931 157.289 21.1752C158.089 21.2072 158.878 20.9902 159.549 20.5544C160.146 20.1442 160.593 19.5518 160.825 18.8659H163.072C162.754 20.0494 162.043 21.0894 161.055 21.8146C159.959 22.5982 158.635 22.9976 157.289 22.9507C156.171 22.9698 155.066 22.6924 154.089 22.1467C153.149 21.6133 152.381 20.8216 151.876 19.8653C151.325 18.8129 151.049 17.6386 151.072 16.451C151.048 15.2661 151.315 14.0935 151.851 13.0366C152.346 12.0858 153.108 11.3003 154.043 10.777C155.038 10.2355 156.157 9.96266 157.289 9.98545C158.395 9.9636 159.487 10.2322 160.456 10.7645C161.353 11.2638 162.09 12.009 162.579 12.9125C163.086 13.8607 163.344 14.9225 163.327 15.9978C163.324 16.4085 163.3 16.8187 163.255 17.227ZM160.642 13.4774C160.298 12.9134 159.8 12.459 159.208 12.1675C158.582 11.8651 157.894 11.712 157.199 11.7206C156.204 11.6985 155.238 12.0609 154.502 12.7325C153.732 13.4635 153.276 14.4651 153.23 15.526H161.169C161.188 14.8073 161.005 14.0978 160.642 13.4774Z" fill="white"/>
<path d="M167.936 22.4478C167.222 22.1562 166.597 21.682 166.123 21.0727C165.681 20.4839 165.425 19.7755 165.391 19.0396H167.548C167.572 19.3471 167.664 19.6455 167.816 19.9137C167.968 20.1819 168.178 20.4133 168.43 20.5916C169.037 21.0131 169.767 21.2226 170.506 21.1876C171.174 21.2247 171.836 21.0391 172.387 20.6599C172.601 20.5104 172.776 20.3111 172.896 20.0791C173.016 19.8472 173.078 19.5895 173.076 19.3283C173.085 19.075 173.021 18.8245 172.891 18.6069C172.761 18.3894 172.571 18.2141 172.344 18.1022C171.62 17.75 170.857 17.4844 170.072 17.3107C169.293 17.1174 168.529 16.8674 167.787 16.5627C167.2 16.313 166.681 15.928 166.272 15.439C165.836 14.8811 165.616 14.1846 165.652 13.4773C165.649 12.8424 165.851 12.2235 166.226 11.7112C166.643 11.1468 167.207 10.7069 167.855 10.4386C168.616 10.1128 169.437 9.95196 170.264 9.96676C171.655 9.96676 172.779 10.3185 173.638 11.0221C174.064 11.3754 174.407 11.8172 174.645 12.3168C174.882 12.8164 175.008 13.3618 175.013 13.915H172.924C172.913 13.6099 172.836 13.3108 172.7 13.0378C172.563 12.7647 172.37 12.524 172.133 12.332C171.579 11.9084 170.892 11.696 170.196 11.7329C169.563 11.7002 168.936 11.8686 168.405 12.214C168.197 12.3524 168.028 12.5405 167.912 12.7612C167.796 12.9818 167.737 13.228 167.741 13.4773C167.734 13.6658 167.766 13.8537 167.835 14.0293C167.904 14.2049 168.008 14.3646 168.141 14.4985C168.43 14.779 168.773 14.9976 169.15 15.1411C169.703 15.35 170.266 15.5303 170.838 15.6811C171.587 15.8741 172.322 16.1156 173.039 16.4043C173.603 16.6388 174.103 17.0037 174.498 17.469C174.917 17.9976 175.137 18.6569 175.119 19.3314C175.126 19.9969 174.925 20.648 174.544 21.1938C174.135 21.7665 173.575 22.2153 172.927 22.4912C172.171 22.8162 171.354 22.976 170.531 22.9599C169.64 22.9683 168.757 22.794 167.936 22.4478Z" fill="white"/>
</g>
<defs>
<clipPath id="clip0_17_1284">
<rect width="174.157" height="39.116" fill="white" transform="translate(0.961914)"/>
</clipPath>
</defs>
</svg>
