<svg width="1072" height="392" viewBox="0 0 1072 392" fill="none" xmlns="http://www.w3.org/2000/svg">
<path d="M0.254382 0.657449C29.9624 0.374519 66.178 0.233054 108.901 0.233054C137.76 0.233054 161.951 8.29667 181.474 24.4239C200.996 40.2682 210.616 60.9224 210.333 86.3864C210.333 98.8355 207.645 109.87 202.269 119.49C197.176 128.826 190.527 136.183 182.322 141.558C174.4 146.934 165.346 150.471 155.161 152.169C175.249 154.998 191.801 164.052 204.816 179.33C217.831 194.326 224.197 212.15 223.914 232.805C223.631 254.025 216.133 270.576 201.42 282.46C186.991 294.343 170.298 300.426 151.341 300.709C140.307 300.709 130.262 299.011 121.209 295.616C112.155 292.221 104.657 287.977 98.7154 282.884C93.0567 277.791 88.1053 272.132 83.8613 265.908C79.9003 259.4 77.0709 253.459 75.3733 248.083C73.6757 242.707 72.6854 237.897 72.4025 233.653V293.918H0.254382V0.657449ZM72.4025 60.4979V130.948C78.6271 131.514 84.2857 131.797 89.3785 131.797C106.92 131.797 119.087 128.402 125.877 121.612C132.95 114.821 136.911 106.616 137.76 96.9964C138.609 86.8108 135.78 78.1813 129.272 71.108C122.765 64.0346 113.004 60.4979 99.9886 60.4979H72.4025ZM72.4025 167.871V214.555C77.4953 223.326 84.5687 230.117 93.6226 234.927C102.959 239.454 112.579 241.717 122.482 241.717C127.575 241.717 132.384 241.151 136.911 240.019C141.721 238.605 145.824 236.624 149.219 234.078C152.897 231.531 155.727 228.419 157.707 224.741C159.971 220.78 161.102 216.395 161.102 211.585C161.102 205.643 159.971 200.409 157.707 195.882C155.727 191.072 153.322 187.252 150.492 184.423C147.663 181.311 143.419 178.764 137.76 176.784C132.102 174.52 127.15 172.823 122.906 171.691C118.945 170.559 113.286 169.71 105.93 169.145C98.5739 168.579 92.9152 168.296 88.9541 168.296C85.276 168.013 79.7588 167.871 72.4025 167.871ZM252.242 0.657449H322.268V294.343H252.242V0.657449ZM472.775 56.2539C507.293 56.2539 536.859 68.2786 561.475 92.328C586.373 116.094 598.822 144.671 598.822 178.057C598.822 211.16 586.373 239.595 561.475 263.362C536.859 287.128 507.293 299.011 472.775 299.011C438.257 299.011 408.69 287.128 384.075 263.362C359.46 239.595 347.152 211.16 347.152 178.057C347.152 144.671 359.46 116.094 384.075 92.328C408.69 68.2786 438.257 56.2539 472.775 56.2539ZM472.775 120.763C458.062 120.763 445.33 126.563 434.579 138.163C423.827 149.481 418.452 162.637 418.452 177.633C418.452 192.911 423.686 206.492 434.154 218.375C444.623 229.975 457.496 235.775 472.775 235.775C487.77 235.775 500.502 229.834 510.971 217.951C521.722 206.067 527.098 192.628 527.098 177.633C527.098 162.637 521.722 149.481 510.971 138.163C500.502 126.563 487.77 120.763 472.775 120.763ZM699.285 56.2539C717.11 56.2539 730.691 63.4688 740.028 77.8984C749.648 92.0451 755.448 111.143 757.428 135.192V60.4979H827.455V273.547C827.455 292.504 824.342 309.621 818.118 324.9C812.176 340.178 804.112 352.486 793.927 361.823C783.741 371.442 772.141 378.657 759.126 383.467C746.111 388.56 732.247 391.106 717.535 391.106C683.583 391.106 653.309 379.789 626.713 357.154L658.543 312.592C671.558 321.08 686.553 325.324 703.53 325.324C718.808 325.324 731.54 320.797 741.726 311.743C752.194 302.689 757.428 288.543 757.428 269.303V220.497C756.863 228.419 755.306 236.766 752.76 245.537C750.497 254.025 747.101 262.513 742.574 271.001C738.047 279.489 731.823 286.562 723.901 292.221C715.979 297.597 706.925 300.284 696.739 300.284C692.495 300.284 688.11 299.719 683.583 298.587C679.339 297.738 674.953 296.323 670.426 294.343C665.899 292.362 661.514 289.816 657.27 286.704C653.026 283.308 648.923 279.489 644.962 275.245C641.001 270.718 637.323 265.484 633.928 259.542C630.533 253.6 627.562 247.093 625.015 240.019C622.752 232.663 620.913 224.458 619.498 215.404C618.083 206.35 617.376 196.589 617.376 186.121C617.093 148.207 624.874 117.226 640.718 93.1768C656.562 68.8445 676.085 56.5369 699.285 56.2539ZM757.428 163.203C757.428 151.886 754.316 142.973 748.092 136.466C741.867 129.958 734.652 126.704 726.447 126.704C713.998 126.704 704.237 132.222 697.163 143.256C690.373 154.291 687.119 167.164 687.402 181.877C687.402 194.609 689.949 205.643 695.041 214.98C700.417 224.034 708.622 229.268 719.657 230.683C730.408 231.814 739.179 229.692 745.97 224.317C753.043 218.658 756.863 210.736 757.428 200.55V163.203ZM969.121 57.1028C987.229 57.3857 1003.92 60.0736 1019.2 65.1664C1034.48 69.9762 1049.76 78.6057 1065.04 91.0548L1033.21 144.529C1019.34 128.968 1001.8 119.348 980.58 115.67C970.678 113.972 961.765 113.548 953.843 114.397C945.921 114.963 939.272 116.519 933.896 119.065C928.803 121.612 925.974 124.724 925.408 128.402C924.842 133.212 927.955 137.456 934.745 141.134C941.535 144.529 950.306 147.217 961.058 149.198C971.809 151.178 983.41 154.008 995.859 157.686C1008.59 161.081 1020.47 165.183 1031.51 169.993C1042.54 174.52 1051.74 181.452 1059.09 190.789C1066.73 200.126 1070.69 211.302 1070.98 224.317C1071.26 236.483 1068.43 247.376 1062.49 256.996C1056.83 266.332 1049.76 273.689 1041.27 279.064C1032.78 284.44 1023.16 288.826 1012.41 292.221C1001.66 295.616 991.756 297.738 982.702 298.587C973.931 299.719 965.726 300.143 958.087 299.86C947.053 299.294 935.735 297.738 924.135 295.192C912.535 292.645 900.086 288.543 886.788 282.884C873.49 277.225 861.465 270.293 850.714 262.088L880.846 203.097C895.559 229.409 922.296 242.566 961.058 242.566C987.937 242.566 1001.8 239.029 1002.65 231.956C1002.93 228.561 1000.24 225.448 994.586 222.619C989.21 219.79 981.854 217.243 972.517 214.98C963.463 212.433 953.419 209.604 942.384 206.492C931.633 203.38 920.881 199.418 910.13 194.609C899.661 189.799 890.324 184.282 882.119 178.057C873.914 171.549 867.831 163.203 863.87 153.017C860.192 142.549 859.626 130.948 862.172 118.216C866.417 98.1282 878.3 82.8497 897.822 72.3812C917.345 61.9126 941.111 56.8198 969.121 57.1028Z" fill="#6B34CD"/>
</svg>
