<svg width="1072" height="313" viewBox="0 0 1072 313" fill="none" xmlns="http://www.w3.org/2000/svg">
<path d="M0.979624 0.146379C53.117 0.146379 84.0459 0.146379 93.7664 0.146379C137.361 0.146379 170.352 10.7506 192.739 31.959C215.42 52.8728 227.055 80.5616 227.644 115.025C228.528 143.892 221.901 167.457 207.762 185.72C193.623 203.983 174.623 213.409 150.764 213.998C138.687 213.998 127.788 211.641 118.068 206.928C108.347 201.921 100.541 195.44 94.6501 187.487C89.0534 179.534 84.635 171.286 81.3948 162.744C78.1547 154.202 76.3873 146.101 76.0927 138.443V305.901H0.979624V0.146379ZM76.0927 62.4461V108.839C76.0927 115.614 77.271 121.506 79.6275 126.513C82.2785 131.521 85.5187 135.35 89.348 138.001C93.4719 140.358 97.1539 142.125 100.394 143.303C103.634 144.187 107.022 144.923 110.556 145.512C113.797 145.512 117.184 145.512 120.719 145.512C124.548 145.512 128.377 144.776 132.207 143.303C136.036 141.83 139.423 140.063 142.369 138.001C145.609 135.645 148.113 132.404 149.88 128.281C151.942 124.157 152.826 119.591 152.531 114.583C152.237 97.7934 145.462 84.98 132.207 76.1432C118.951 67.0118 100.247 62.4461 76.0927 62.4461ZM253.399 0.146379H326.303V305.901H253.399V0.146379ZM460.039 58.0277C492.736 58.0277 519.099 67.8955 539.129 87.6311C559.159 107.072 569.174 131.815 569.174 161.86V305.901H496.271V258.624C495.387 264.221 493.472 269.964 490.527 275.856C487.581 281.452 483.604 287.049 478.597 292.646C473.589 298.242 466.814 302.808 458.272 306.343C450.024 309.878 440.746 311.792 430.436 312.087C417.77 312.087 406.429 310.172 396.414 306.343C386.694 302.219 379.035 297.359 373.438 291.762C367.842 286.165 363.276 279.538 359.741 271.879C356.501 263.926 354.292 256.856 353.114 250.671C351.936 244.19 351.346 237.71 351.346 231.23C351.346 207.665 358.71 188.224 373.438 172.907C388.167 157.589 407.018 150.078 429.994 150.373C449.435 150.373 464.752 155.822 475.946 166.721C487.434 177.62 494.209 192.053 496.271 210.021V162.744C496.271 150.962 491.116 141.388 480.806 134.024C470.496 126.66 458.272 122.831 444.133 122.537C425.576 122.537 409.817 128.575 396.856 140.652L367.695 92.0495C400.685 69.3683 431.467 58.0277 460.039 58.0277ZM459.598 208.696C448.699 208.696 439.862 211.347 433.087 216.649C426.607 221.656 423.661 227.4 424.25 233.881C424.839 241.539 428.227 247.431 434.413 251.554C440.893 255.678 449.288 257.74 459.598 257.74C469.613 257.74 477.713 255.384 483.899 250.671C490.085 245.663 494.209 240.803 496.271 236.09V230.346C494.798 225.044 490.674 220.184 483.899 215.765C477.419 211.052 469.318 208.696 459.598 208.696ZM742.176 58.9113C792.252 58.9113 817.289 89.3984 817.289 150.373V305.901H744.385V165.395C744.385 159.209 743.944 154.055 743.06 149.931C742.471 145.807 740.998 142.125 738.641 138.885C736.58 135.645 733.487 133.435 729.363 132.257C725.533 131.079 720.526 130.932 714.34 131.815C707.86 132.699 701.379 136.086 694.899 141.978C688.419 147.869 683.117 154.938 678.993 163.186C674.869 171.434 672.512 179.24 671.923 186.604V305.901H599.019V62.4461H671.923V141.536C672.218 132.993 673.838 124.157 676.784 115.025C679.729 105.894 683.853 97.057 689.155 88.5147C694.457 79.6779 701.674 72.6084 710.805 67.3063C720.231 61.7097 730.688 58.9113 742.176 58.9113ZM965.22 58.9113C984.072 59.2059 1001.45 62.0042 1017.36 67.3063C1033.26 72.3139 1049.17 81.298 1065.08 94.2587L1031.94 149.931C1017.5 133.73 999.242 123.715 977.15 119.886C966.84 118.118 957.561 117.676 949.314 118.56C941.066 119.149 934.144 120.769 928.547 123.42C923.245 126.071 920.299 129.311 919.71 133.141C919.121 138.148 922.361 142.567 929.431 146.396C936.5 149.931 945.632 152.729 956.825 154.791C968.018 156.853 980.095 159.799 993.056 163.628C1006.31 167.163 1018.68 171.434 1030.17 176.441C1041.66 181.154 1051.23 188.371 1058.89 198.092C1066.84 207.812 1070.97 219.447 1071.26 232.997C1071.56 245.663 1068.61 257.004 1062.43 267.019C1056.53 276.739 1049.17 284.398 1040.33 289.995C1031.5 295.591 1021.48 300.157 1010.29 303.692C999.095 307.226 988.785 309.436 979.359 310.319C970.228 311.498 961.685 311.939 953.732 311.645C942.244 311.056 930.462 309.436 918.385 306.785C906.308 304.134 893.347 299.862 879.503 293.971C865.658 288.08 853.14 280.863 841.946 272.321L873.317 210.905C888.634 238.299 916.47 251.996 956.825 251.996C984.808 251.996 999.242 248.314 1000.13 240.95C1000.42 237.415 997.622 234.175 991.731 231.23C986.134 228.284 978.475 225.633 968.755 223.277C959.329 220.625 948.872 217.68 937.384 214.44C926.191 211.199 914.997 207.076 903.804 202.068C892.905 197.061 883.185 191.317 874.642 184.836C866.1 178.061 859.767 169.372 855.643 158.768C851.814 147.869 851.225 135.792 853.876 122.537C858.294 101.623 870.666 85.7164 890.991 74.8176C911.315 63.9189 936.058 58.6168 965.22 58.9113Z" fill="#00BF58"/>
</svg>
