<svg width="1069" height="298" viewBox="0 0 1069 298" fill="none" xmlns="http://www.w3.org/2000/svg">
<path d="M235.644 0.50484V0.926909L279.118 189.595L322.592 0.926909L396.877 0.50484L316.261 293.003C266.737 293.003 241.975 293.003 241.975 293.003L198.502 119.53L155.028 292.581C105.504 292.581 80.7427 292.581 80.7427 292.581C70.6129 256.001 56.2624 204.508 37.6911 138.101C19.4011 71.4135 6.87957 25.6887 0.126371 0.926909L74.4116 0.50484L117.885 189.595L161.359 0.926909L235.644 0.50484ZM513.749 56.2188C548.078 56.2188 577.482 68.1776 601.963 92.0952C626.725 115.731 639.105 144.151 639.105 177.354C639.105 210.276 626.725 238.555 601.963 262.191C577.482 285.828 548.078 297.646 513.749 297.646C479.42 297.646 450.016 285.828 425.535 262.191C401.055 238.555 388.815 210.276 388.815 177.354C388.815 144.151 401.055 115.731 425.535 92.0952C450.016 68.1776 479.42 56.2188 513.749 56.2188ZM513.749 120.374C499.117 120.374 486.455 126.143 475.762 137.679C465.07 148.935 459.723 162.019 459.723 176.932C459.723 192.127 464.929 205.633 475.34 217.452C485.751 228.988 498.554 234.757 513.749 234.757C528.662 234.757 541.325 228.848 551.736 217.029C562.428 205.211 567.775 191.846 567.775 176.932C567.775 162.019 562.428 148.935 551.736 137.679C541.325 126.143 528.662 120.374 513.749 120.374ZM821.294 56.6408L812.852 127.549C806.099 125.017 798.924 123.469 791.326 122.907C784.01 122.063 776.554 122.485 768.956 124.173C761.359 125.58 754.606 128.253 748.697 132.192C742.788 136.132 737.863 142.041 733.924 149.919C730.266 157.798 728.437 167.225 728.437 178.199V295.958H658.795V60.4395H728.437V134.303C729.563 108.697 738.004 89.422 753.762 76.4784C769.8 63.2533 792.311 56.6408 821.294 56.6408ZM844.277 0.926909H913.919V158.783L974.276 60.4395H1056.16L990.737 166.802L1068.82 293.003L986.938 292.581L913.919 174.822V293.003H844.277V0.926909Z" fill="#00BF58"/>
</svg>
