<svg width="96" height="96" viewBox="0 0 96 96" fill="none" xmlns="http://www.w3.org/2000/svg">
<circle cx="48" cy="48" r="48" fill="#6B34CD"/>
<path d="M25.3178 70.3096C24.776 70.3716 24.4753 70.0888 24.4021 69.4561L19.014 23.6951C18.9381 23.0651 19.1711 22.7177 19.7075 22.6558L42.4629 20.009C43.0047 19.9443 43.3054 20.2297 43.3785 20.8598L44.2779 28.4988C44.3537 29.1315 44.1208 29.4762 43.5844 29.5408L30.8522 31.0217L32.0523 41.2079L42.8882 39.9477C43.4733 39.8813 43.8065 40.1865 43.8878 40.8632L44.7601 48.2841C44.8359 48.9168 44.5786 49.2669 43.9934 49.3342L33.1575 50.5943L35.2299 68.2013C35.303 68.8341 35.0972 69.176 34.6095 69.2326L25.3178 70.3096Z" fill="white"/>
<path d="M54.8429 76.9902C54.2578 77.0584 53.9282 76.7774 53.8541 76.1474L48.466 30.373C48.3901 29.7429 48.6475 29.3928 49.2326 29.3255L58.3104 28.27C58.8955 28.2036 59.2251 28.4845 59.2992 29.1128L63.6769 66.2951L75.0898 64.973C75.6749 64.903 76.0054 65.1857 76.0785 65.8158L76.986 73.4548C77.0619 74.0875 76.8289 74.4322 76.2925 74.4941L54.8429 76.9902Z" fill="white"/>
</svg>
