<?xml version="1.0" encoding="utf-8"?>
<!-- Generator: Adobe Illustrator 26.0.1, SVG Export Plug-In . SVG Version: 6.00 Build 0)  -->
<svg version="1.1" id="Layer_1" xmlns="http://www.w3.org/2000/svg" xmlns:xlink="http://www.w3.org/1999/xlink" x="0px" y="0px"
	 viewBox="0 0 426.52 98.06" style="enable-background:new 0 0 426.52 98.06;" xml:space="preserve">
<style type="text/css">
	.st0{fill:#FFFFFF;}
</style>
<g>
	<path class="st0" d="M8.1,87.93c-0.87,0-1.31-0.51-1.31-1.54v-74.7c0-1.03,0.43-1.54,1.31-1.54h36.94c0.87,0,1.31,0.52,1.31,1.54
		v12.47c0,1.03-0.44,1.54-1.31,1.54H24.37v16.63h17.58c0.95,0,1.43,0.56,1.43,1.66V56.1c0,1.03-0.48,1.55-1.43,1.55H24.37v28.74
		c0,1.03-0.4,1.54-1.19,1.54L8.1,87.93L8.1,87.93z"/>
	<path class="st0" d="M54.29,87.93c-0.87,0-1.31-0.51-1.31-1.54v-74.7c0-1.03,0.43-1.54,1.31-1.54h36.94c0.87,0,1.31,0.52,1.31,1.54
		v12.47c0,1.03-0.44,1.54-1.31,1.54H70.56v15.56h18.65c0.87,0,1.31,0.52,1.31,1.54v11.76c0,1.03-0.44,1.54-1.31,1.54H70.56v16.27
		h20.67c0.87,0,1.31,0.52,1.31,1.54v12.47c0,1.03-0.44,1.54-1.31,1.54H54.29V87.93z"/>
	<path class="st0" d="M112.37,87.93c-0.87,0-1.31-0.51-1.31-1.54V25.7H98.71c-0.87,0-1.31-0.51-1.31-1.54V11.69
		c0-1.03,0.43-1.54,1.31-1.54h42.28c0.87,0,1.31,0.52,1.31,1.54v12.47c0,1.03-0.44,1.54-1.31,1.54h-12.35v60.69
		c0,1.03-0.44,1.54-1.31,1.54H112.37z"/>
	<path class="st0" d="M170.92,88.64c-8.16,0-14.35-2.26-18.59-6.77s-6.35-11.64-6.35-21.38V37.57c0-9.34,2.12-16.37,6.35-21.08
		s10.43-7.07,18.59-7.07c5.62,0,10.33,1.19,14.13,3.56c3.8,2.38,6.59,5.66,8.37,9.86s2.36,9.14,1.72,14.85
		c-0.16,1.03-0.55,1.54-1.19,1.54h-15.08c-0.95,0-1.35-0.55-1.19-1.66c0.24-3.96-0.16-7.01-1.19-9.15s-2.93-3.21-5.7-3.21
		c-2.69,0-4.57,0.95-5.64,2.85c-1.07,1.9-1.6,5.23-1.6,9.98v21.62c0,4.99,0.57,8.43,1.72,10.33s3.03,2.85,5.64,2.85
		c3.01,0,4.93-1.15,5.76-3.44c0.83-2.3,1.17-5.3,1.01-9.03c0-1.11,0.4-1.66,1.19-1.66h15.08c0.71,0,1.15,0.52,1.31,1.54
		c0.79,8.55-0.85,15.42-4.93,20.61C186.26,86.05,179.79,88.64,170.92,88.64z"/>
	<path class="st0" d="M203.94,87.93c-0.95,0-1.43-0.51-1.43-1.54v-74.7c0-1.03,0.47-1.54,1.43-1.54h14.73
		c0.95,0,1.43,0.52,1.43,1.54v29.22h13.78V11.69c0-1.03,0.47-1.54,1.43-1.54h14.73c0.95,0,1.43,0.52,1.43,1.54v74.7
		c0,1.03-0.48,1.54-1.43,1.54h-14.73c-0.95,0-1.43-0.51-1.43-1.54V56.46H220.1v29.93c0,1.03-0.47,1.54-1.43,1.54L203.94,87.93
		L203.94,87.93z"/>
	<path class="st0" d="M275.91,87.93c-0.95,0-1.43-0.51-1.43-1.54v-74.7c0-1.03,0.48-1.54,1.43-1.54h14.73
		c0.95,0,1.43,0.52,1.43,1.54v60.69h18.53c0.95,0,1.43,0.52,1.43,1.54v12.47c0,1.03-0.44,1.54-1.31,1.54L275.91,87.93L275.91,87.93z
		"/>
	<path class="st0" d="M316.17,87.93c-0.95,0-1.31-0.55-1.07-1.66l16.27-74.94c0.16-0.79,0.67-1.19,1.54-1.19h19
		c0.87,0,1.38,0.4,1.54,1.19l16.15,74.82c0.32,1.19,0,1.78-0.95,1.78h-16.63c-0.79,0-1.27-0.4-1.43-1.19l-6.06-44.06
		c-0.4-2.69-0.75-5.38-1.07-8.08c-0.32-2.69-0.63-5.38-0.95-8.08h-0.24c-0.32,2.69-0.64,5.39-0.95,8.08
		c-0.32,2.69-0.67,5.38-1.07,8.08l-6.41,43.94c-0.08,0.87-0.59,1.31-1.54,1.31L316.17,87.93L316.17,87.93z M333.27,73.08l2.26-13.89
		h13.18l2.61,13.89H333.27z"/>
	<path class="st0" d="M375.43,87.93c-1.03,0-1.54-0.51-1.54-1.54v-74.7c0-1.03,0.48-1.54,1.43-1.54h19.36
		c7.6,0,13.28,1.64,17.04,4.93c3.76,3.29,5.64,8.22,5.64,14.79c0,4.04-0.79,7.42-2.38,10.15c-1.58,2.73-4.12,4.93-7.6,6.59v0.47
		c4.12,1.19,7.2,3.33,9.26,6.41c2.06,3.09,3.09,7.01,3.09,11.76c0,7.76-1.98,13.48-5.94,17.16s-10.26,5.52-18.88,5.52H375.43z
		 M391.46,41.96h2.73c1.9,0,3.38-0.79,4.45-2.38c1.07-1.58,1.6-3.88,1.6-6.89c0-2.85-0.52-4.95-1.54-6.29
		c-1.03-1.35-2.61-2.02-4.75-2.02h-2.49V41.96z M391.46,73.67h3.68c2.38,0,4.2-0.83,5.46-2.49c1.27-1.66,1.9-4.04,1.9-7.13
		c0-3.01-0.65-5.3-1.96-6.89c-1.31-1.58-3.19-2.38-5.64-2.38h-3.44V73.67z"/>
</g>
</svg>
