<?xml version="1.0" encoding="utf-8"?>
<!-- Generator: Adobe Illustrator 26.0.1, SVG Export Plug-In . SVG Version: 6.00 Build 0)  -->
<svg version="1.1" id="Layer_1" xmlns="http://www.w3.org/2000/svg" xmlns:xlink="http://www.w3.org/1999/xlink" x="0px" y="0px"
	 viewBox="0 0 238.39 231.23" style="enable-background:new 0 0 238.39 231.23;" xml:space="preserve">
<style type="text/css">
	.st0{fill:#151515;}
</style>
<g>
	<path class="st0" d="M35.46,196.63c-1.98,0.23-3.11-0.82-3.38-3.17L12.19,23.49c-0.27-2.34,0.58-3.63,2.56-3.86L98.79,9.8
		c1.98-0.23,3.11,0.83,3.38,3.16l3.32,28.37c0.27,2.34-0.58,3.63-2.56,3.86l-47.02,5.5l4.43,37.83l39.99-4.68
		c2.16-0.25,3.39,0.88,3.69,3.4l3.23,27.56c0.27,2.35-0.67,3.64-2.83,3.9l-39.99,4.68l7.65,65.39c0.27,2.34-0.49,3.62-2.29,3.83
		L35.46,196.63z"/>
	<path class="st0" d="M144.45,221.42c-2.16,0.25-3.38-0.79-3.65-3.13L120.91,48.31c-0.27-2.34,0.67-3.64,2.83-3.89l33.51-3.92
		c2.16-0.25,3.38,0.79,3.65,3.13l16.16,138.09l42.16-4.93c2.16-0.25,3.38,0.79,3.65,3.13l3.32,28.37c0.27,2.34-0.58,3.63-2.56,3.86
		L144.45,221.42z"/>
</g>
</svg>
